<svg width="24" height="24" viewBox="0 0 24 24" fill="none" xmlns="http://www.w3.org/2000/svg">
<g clip-path="url(#clip0)">
<path d="M23.5297 12.2756C23.5297 11.4599 23.4636 10.6397 23.3224 9.83722H12.001V14.4582H18.4842C18.2152 15.9486 17.3508 17.2669 16.085 18.1047V21.1031H19.9529C22.2242 19.013 23.5297 15.9265 23.5297 12.2756Z" fill="#4285F4"/>
<path d="M12.0005 24C15.2377 24 17.9677 22.9374 19.9568 21.1031L16.0889 18.1048C15.0128 18.8367 13.6235 19.2512 12.0049 19.2512C8.87351 19.2512 6.21846 17.1391 5.26581 14.2995H1.27441V17.3904C3.31201 21.4426 7.46219 24 12.0005 24Z" fill="#34A853"/>
<path d="M5.26135 14.2995C4.75857 12.8091 4.75857 11.1953 5.26135 9.70496V6.61401H1.27437C-0.428044 10.0048 -0.428044 13.9996 1.27437 17.3904L5.26135 14.2995Z" fill="#FBBC04"/>
<path d="M12.0005 4.74887C13.7117 4.72241 15.3656 5.36617 16.6049 6.54787L20.0318 3.12182C17.8619 1.08471 14.9819 -0.0352595 12.0005 1.52089e-05C7.46219 1.52089e-05 3.31201 2.55743 1.27441 6.61401L5.2614 9.70496C6.20964 6.86094 8.8691 4.74887 12.0005 4.74887Z" fill="#EA4335"/>
</g>
<defs>
<clipPath id="clip0">
<rect width="23.5294" height="24" fill="white"/>
</clipPath>
</defs>
</svg>
