<?xml version="1.0" encoding="UTF-8"?>
<svg xmlns="http://www.w3.org/2000/svg" xmlns:xlink="http://www.w3.org/1999/xlink" width="74px" height="100px" viewBox="0 0 74 99" version="1.1">
<g id="surface1">
<path style=" stroke:none;fill-rule:nonzero;fill:rgb(100%,100%,100%);fill-opacity:1;" d="M 28.957031 0 C 12.996094 0 0 12.722656 0 28.34375 C 0 33.925781 1.710938 39.171875 4.558594 43.523438 C 6.5 40.398438 8.890625 37.496094 11.628906 35.042969 C 10.832031 32.921875 10.261719 30.6875 10.261719 28.34375 C 10.261719 18.300781 18.695312 10.042969 28.957031 10.042969 C 39.21875 10.042969 47.65625 18.300781 47.65625 28.34375 C 47.65625 38.390625 39.332031 46.648438 28.957031 46.648438 C 25.421875 46.648438 22.117188 45.644531 19.265625 43.96875 C 16.757812 46.3125 14.707031 49.101562 13.339844 52.226562 C 17.898438 55.128906 23.257812 56.800781 28.957031 56.800781 C 44.917969 56.800781 57.914062 44.082031 57.914062 28.457031 C 57.914062 12.722656 44.917969 0 28.957031 0 Z M 28.957031 0 "/>
<path style=" stroke:none;fill-rule:nonzero;fill:rgb(100%,100%,100%);fill-opacity:1;" d="M 58.371094 33.144531 C 57.800781 36.714844 56.546875 40.0625 54.722656 43.078125 C 60.082031 47.875 63.5 54.683594 63.5 62.382812 C 63.386719 76.667969 51.53125 88.386719 36.824219 88.386719 C 22.230469 88.386719 10.261719 76.777344 10.261719 62.382812 C 10.261719 48.097656 22.117188 36.382812 36.824219 36.382812 C 39.445312 36.382812 41.839844 36.714844 44.234375 37.386719 C 45.832031 34.707031 46.855469 31.695312 46.855469 28.347656 C 46.855469 28.121094 46.855469 27.898438 46.855469 27.675781 C 43.664062 26.785156 40.359375 26.335938 36.824219 26.335938 C 16.53125 26.335938 0 42.519531 0 62.382812 C 0 82.246094 16.53125 98.429688 36.824219 98.429688 C 57.117188 98.429688 73.648438 82.246094 73.648438 62.382812 C 73.648438 50.332031 67.605469 39.617188 58.371094 33.144531 Z M 58.371094 33.144531 "/>
</g>
</svg>
