<svg xmlns="http://www.w3.org/2000/svg" viewBox="0 0 226.43 194.52"><defs><style>.cls-1{fill:#fff;}.cls-2{fill:#567ad0;}.cls-3{fill:#809ce6;}.cls-4{fill:#bbc6ee;}.cls-5{fill:#fbf9fb;}.cls-6{fill:#59337e;}.cls-7{fill:#9b46c3;}.cls-8{fill:#d66be8;}.cls-9{fill:#f0cef2;}.cls-10{fill:#dbe8f1;}.cls-11{fill:#c86b41;}.cls-12{fill:#e57f59;}.cls-13{fill:#f8e7f9;}.cls-14{fill:#f6e5cd;}.cls-15,.cls-16{fill:none;stroke-linecap:round;stroke-linejoin:round;}.cls-15{stroke:#567ad0;}.cls-16{stroke:#59337e;stroke-width:0.71px;}</style></defs><g id="Layer_2" data-name="Layer 2"><g id="Layer_1-2" data-name="Layer 1"><path class="cls-1" d="M91.93,146.09C43.2,133.27,49.55,89.17,50,87.13a25.86,25.86,0,0,0-2.33-18.19C42.18,59.23,30.1,54.07,19.31,57.36c-8.08,2.47-15.15,8.82-17,17.28a101.66,101.66,0,0,0-.76,39.59,100.56,100.56,0,0,0,13.79,35.48c1.15,1.83,2.37,3.63,3.65,5.38a100.57,100.57,0,0,0,47.83,35.25c6.09,2.12,12.87,4.3,19.37,4.18a24.74,24.74,0,0,0,16.37-6.71c7.82-7.4,10.38-20.71,4.5-30.06C103.73,152.38,98.4,147.27,91.93,146.09Z"/><path class="cls-1" d="M106,66l-1,.2C99,66.86,92,64.76,85.59,61.06c-13.31-7.73-17.63-25-9-35.9a60.19,60.19,0,0,1,7-7.34C99.63,3.45,121.76-1.75,144.71.51c52.49,5.17,99.4,60.29,75.15,94.27-18.87,31.71-77,33.13-88.08-11.54-.1-.45-.22-.9-.35-1.35C128.26,70.79,116.67,63.72,106,66Z"/><path class="cls-2" d="M205.38,107.13c0,11.41-29.34,22.58-65.52,22.58s-65.51-11.17-65.51-22.58c0-3.41,37.32-16.63,65.51-16.63C184,90.5,205.38,103.72,205.38,107.13Z"/><ellipse class="cls-3" cx="139.86" cy="107.13" rx="65.51" ry="18.31"/><ellipse class="cls-3" cx="139.86" cy="106.92" rx="63.26" ry="16.42"/><ellipse class="cls-2" cx="139.86" cy="109" rx="25.74" ry="7.01"/><path class="cls-3" d="M97.93,41.83c0,29.53,18.17,44,18.17,67.17,0,3,10.64,5.35,23.76,5.35S163.62,112,163.62,109c0-23.15,18.17-37.64,18.17-67.17Z"/><path class="cls-2" d="M120.93,112c0-26.92-16.26-40.6-16.26-70.13H97.93c0,29.53,18.17,44,18.17,67.17,0,1.22,1.82,2.34,4.87,3.24A.86.86,0,0,1,120.93,112Z"/><path class="cls-3" d="M194.12,50.51a22,22,0,0,0-12.05,3.59l-1.55,1h0a77.54,77.54,0,0,1-2.78,10.28L185.94,60a14.91,14.91,0,0,1,8.18-2.44A9.2,9.2,0,0,1,203.3,67a9.35,9.35,0,0,1-5.47,8.21h0l-20.48,9.54-4.58,2.14h0l-5,2.3h0a58,58,0,0,0-4,15.36c2.09,0,3.25-1.09,4.37-2.85a28.17,28.17,0,0,1,11.83-10.4L201,81.52a16.26,16.26,0,0,0-6.86-31Z"/><path class="cls-2" d="M180.52,55.09h0c-.42,2.16-.93,4.24-1.51,6.25,1.46-4.48,2.54-7,4.37-8-.44.25-.88.51-1.3.79Z"/><ellipse class="cls-4" cx="139.86" cy="41.83" rx="41.93" ry="10.74"/><ellipse class="cls-5" cx="139.86" cy="41.49" rx="38.1" ry="8.59"/><ellipse class="cls-6" cx="139.86" cy="44.37" rx="35.92" ry="5.71"/><path class="cls-2" d="M197.83,75.18l-30,14c0,.11-.08.22-.13.33s-.13.35-.2.53l-.3.81-.19.52-.3.85c0,.16-.11.32-.17.49l-.31.94c0,.13-.08.26-.13.4-.14.45-.28.9-.41,1.35h0a50.68,50.68,0,0,0-1.83,9.14c1.14,0,1.51-3.37,1.51-3.37a33,33,0,0,1,1.27-5.38c1.85-5,10.27-8.7,18.8-12.53,15.73-7.06,17.87-8,17.87-16.27A9.35,9.35,0,0,1,197.83,75.18Z"/><ellipse class="cls-7" cx="132.84" cy="46.27" rx="2.65" ry="0.69"/><ellipse class="cls-7" cx="142.77" cy="45.34" rx="4.35" ry="1.13"/><path class="cls-7" d="M21.21,140.52c0,12.41,31.94,24.57,71.32,24.57s71.32-12.16,71.32-24.57c0-3.72-40.63-18.11-71.32-18.11C44.45,122.41,21.21,136.8,21.21,140.52Z"/><ellipse class="cls-8" cx="92.53" cy="140.28" rx="71.32" ry="18.51"/><ellipse class="cls-7" cx="92.53" cy="143.18" rx="30.5" ry="7.41"/><path class="cls-8" d="M33.89,87a21.88,21.88,0,0,1,12,3.57l1.55,1h0a77.08,77.08,0,0,0,2.78,10.25l-8.18-5.34A14.86,14.86,0,0,0,33.89,94a9.17,9.17,0,0,0-9.15,9.36,9.32,9.32,0,0,0,5.45,8.18l25,11.64a2.13,2.13,0,0,0,2.9-2.63c2.84,6.54,5.1,12.72,5.84,19.95-2.09,0-3.09-.8-4.21-2.56a27.85,27.85,0,0,0-11.79-10.36l-20.86-9.73A16.21,16.21,0,0,1,33.89,87Z"/><path class="cls-7" d="M47.45,91.55l-1.55-1a21.88,21.88,0,0,0-12-3.57c7.6,0,13.19,7.47,16.34,14.82a77.08,77.08,0,0,1-2.78-10.25Z"/><path class="cls-7" d="M30.19,111.58l25,11.64a2.13,2.13,0,0,0,2.9-2.63c.19.44.37.87.56,1.3.06.14.11.28.17.41l.38.9c.06.17.13.33.2.49l.33.83.21.52c.1.26.21.53.31.8l.2.53.3.81c.07.17.13.34.19.52l.3.84c.05.16.11.32.17.49l.31.94.12.39c.15.45.28.9.42,1.35h0c.86,2.93,2.21,5,2.53,8.17l-2.22-2.42a31.73,31.73,0,0,0-1.26-5.37c-1.84-4.93-10.24-8.68-18.74-12.49-15.67-7-17.81-8-17.81-16.21A9.32,9.32,0,0,0,30.19,111.58Z"/><path class="cls-8" d="M137.53,100.5l.09-1.06c.17-2.08.31-4.25.4-6.51v0c0-.54,0-1.09.06-1.64,0-.17,0-.35,0-.53l0-1.36c0-.34,0-.68,0-1s0-.67,0-1c0-.71,0-1.44,0-2.17H46.89c0,.73,0,1.46,0,2.17,0,.34,0,.68,0,1s0,.69,0,1,0,.91,0,1.36c0,.18,0,.36,0,.53L47,92.89v0q.14,3.39.39,6.51l.09,1.06,0,.27c1.89,21.24,15.29,41.08,21.12,44h0c3.91,2.1,13.12,3.58,23.85,3.58s20-1.48,23.86-3.58h0c5.83-3,19.22-22.79,21.12-44A2.45,2.45,0,0,0,137.53,100.5Z"/><path class="cls-7" d="M75.49,146.93c-6.29-3.85-19.57-24-21.49-45.53,0-.09,0-.19,0-.28L53.89,100c-.18-2.16-.32-4.41-.42-6.77v0l-.06-1.7c0-.19,0-.37,0-.55,0-.47,0-.94,0-1.42s0-.71,0-1.07,0-.7,0-1c0-.75,0-1.5,0-2.26H46.89c0,.73,0,1.46,0,2.17,0,.34,0,.68,0,1s0,.69,0,1,0,.91,0,1.36c0,.18,0,.36,0,.53L47,92.89v0q.14,3.39.39,6.51l.09,1.06,0,.27c1.89,21.24,15.29,41.08,21.12,44h0A25.89,25.89,0,0,0,75.49,146.93Z"/><ellipse class="cls-9" cx="92.53" cy="85.15" rx="45.65" ry="11.69"/><ellipse class="cls-10" cx="92.53" cy="84.78" rx="41.48" ry="9.35"/><ellipse class="cls-11" cx="92.53" cy="87.91" rx="39.1" ry="6.22"/><path class="cls-12" d="M57.19,89.67c7.3,2.68,20.39,4.46,35.34,4.46,13.89,0,26.18-1.54,33.71-3.9-4-3.55-18.11-6.18-34.89-6.18C75.47,84.05,62,86.41,57.19,89.67Z"/><path class="cls-13" d="M126.47,75.19a29,29,0,0,0-12.42-2.69c-5-.15-10.11.34-15.17.28s-10.23-.72-14.75-3-8.34-6.36-9.29-11.33A12.11,12.11,0,0,0,63.65,72.64c-9.93,0-13,8.67-12.6,12.14,0,5.17,18.57,9.35,41.48,9.35S134,90,134,84.8C134,80.6,130.27,77.14,126.47,75.19Z"/><path class="cls-14" d="M134,84.78v0h0Z"/><path class="cls-9" d="M60.6,73A3.19,3.19,0,0,0,59.68,76c1.34,4.3,8.66,8,35.9,8,36.05,0,31-9.16,25.77-10.69h0a38,38,0,0,0-7.3-.86c-5-.15-10.11.34-15.17.28s-10.23-.72-14.75-3-8.34-6.36-9.29-11.33A12.11,12.11,0,0,0,63.65,72.64,14.58,14.58,0,0,0,60.6,73Z"/><polygon class="cls-5" points="151.81 59.92 146.46 65.72 146.46 84.78 163.47 84.78 163.47 65.72 158.13 59.92 151.81 59.92"/><polyline class="cls-15" points="154.97 63.23 154.97 51.86 153.34 49.37"/><ellipse class="cls-13" cx="154.97" cy="76.3" rx="5.53" ry="4.05"/><line class="cls-16" x1="153" y1="63.64" x2="156.93" y2="63.64"/></g></g></svg>