<svg xmlns="http://www.w3.org/2000/svg" viewBox="0 0 1038.7 948.86"><defs><style>.cls-1{fill:#faf8fa;}.cls-2{fill:#809ce6;}.cls-3{fill:#9b46c3;}.cls-4{fill:#bbc6ee;}.cls-5{fill:#59337e;}.cls-6{fill:#d66be8;}.cls-7{fill:#f0cef2;}.cls-8{fill:#e8aaee;}</style></defs><g id="Layer_2" data-name="Layer 2"><g id="ARTWORK"><path class="cls-1" d="M413.51,216.91C535,160.93,646,280,721.4,343.36c57.69,48.47,146.4,5.2,142.6-70.06-4.19-83.25-89-182.43-161.63-212.47C579.12-9.9,395.17-33.41,284.51,70,214.65,150.79,323.89,273.61,413.51,216.91Z"/><circle class="cls-1" cx="781.97" cy="621.4" r="131.69"/><path class="cls-1" d="M275.7,360.74c-46.88.86-95.66,11.49-135.4,29C-32.83,466.05-31.8,706,67.81,837.94c1.61,2.13,3.24,4.23,4.91,6.32,69.91,97.08,274.73,147.1,367.24,58.63,55.45-83,7.22-234.71-92.12-266.87,120.08-39,113.34-247-13.73-270.76A291.11,291.11,0,0,0,275.7,360.74Z"/><path class="cls-2" d="M780.55,461.78c-18-10.7-37.11-43.75-48.62-84.19-11.77-41.36-12.72-79.9-2.44-98.17,3.37-6,7.85-9.81,13.32-11.37l3.88,13.64c-1.75.49-3.37,2.07-4.85,4.68-6.76,12-8.48,44.46,3.73,87.34,8.37,29.45,25.16,65.76,42.21,75.89Z"/><path class="cls-3" d="M701,483.33c-14.34-15.92-23.6-54.67-23.6-98.71,0-45.05,9.57-84.13,24.4-99.56,4.89-5.1,10.29-7.68,16-7.68v14.17c-2.17,0-4.36,1.81-5.82,3.32-9.85,10.26-20.45,42.72-20.45,89.75,0,32.3,6.25,74,20,89.23Z"/><path class="cls-4" d="M537.26,245.56a48.49,48.49,0,0,0-38.5,10.54l-.06,0-95.43,80.15A37.72,37.72,0,0,1,362,341.08h0a4.84,4.84,0,0,1-1.26-7.72L471.43,221.74a126.34,126.34,0,0,1,51.36-31.42Z"/><path class="cls-3" d="M237.27,562.2v34.31a12.25,12.25,0,0,0,12.25,12.25h482.3a12.24,12.24,0,0,0,12.24-12.25V562.2Z"/><path class="cls-3" d="M264.54,608.76H716.8a0,0,0,0,1,0,0V870.54A45.48,45.48,0,0,1,671.31,916H310a45.48,45.48,0,0,1-45.48-45.48V608.76A0,0,0,0,1,264.54,608.76Z"/><rect class="cls-5" x="264.54" y="608.76" width="452.21" height="22.24"/><polygon class="cls-6" points="744.73 562.2 665.75 483.23 486.35 483.23 482.35 483.23 316.25 483.23 237.27 562.2 744.73 562.2"/><polygon class="cls-5" points="356.05 511.66 340.32 530.39 511.23 530.39 542.08 530.39 640.58 530.39 626.85 511.66 356.05 511.66"/><path class="cls-7" d="M646.85,449.7c-82.59-14.23-177.69-124.21-270.72-218.4-50.14,44.79-99.3,97.17-142.61,194.35q-2.19,4.92-4.36,10C271.88,443,318,476,365.36,519.16c4.33,3.84,11,11.23,11,11.23H605.68c15.46-24.57,26.82-47.11,41.17-80.69Z"/><path class="cls-8" d="M376.35,530.39H605.68q3.55-5.65,6.86-11.22H365.37C369.69,523,376.35,530.39,376.35,530.39Z"/><path class="cls-8" d="M505.15,361.13l-116.92,5.49c72.59,45.64,211.38,65.94,211.38,65.94h0C569.12,416.4,537.43,391,505.15,361.13Z"/><path class="cls-1" d="M386.38,409.21c-11.84,10.94-23.61,22.48-35.23,35.09-4,4.29-11.33,4.3-16.42.06a458.68,458.68,0,0,0-44.14-33.15c-4.95-3.18-5.9-10.41-2.11-16.15a491.26,491.26,0,0,1,33.92-45.15c3.93-4.68,11.28-4.69,16.42-.05,15,13.48,30.2,28,45.45,43.19C389.48,398.25,390.43,405.48,386.38,409.21Z"/><path class="cls-1" d="M431,440.63c-5.24-5.41-12.8-6.94-16.87-3.37-11.91,10.42-23.78,21.12-35.55,32.6-4,3.95-3.08,11.19,2.11,16.16,12.05,11.59,32.47,31.79,44.86,44.37H448a7.51,7.51,0,0,0,2.24-1.28c9.62-8.26,19.24-16.53,28.82-25.07,4.06-3.63,3.12-10.86-2.11-16.15C461.7,472.39,446.35,456.47,431,440.63Z"/><path class="cls-7" d="M461.83,519.17H414.4c4.08,4.07,7.9,7.91,11.16,11.22H448a7.51,7.51,0,0,0,2.24-1.28Z"/><path class="cls-5" d="M303.86,404.21a3,3,0,0,1-.53-5.95c20.64-3.79,43.05-3.93,70.51-.45a3,3,0,1,1-.75,5.95c-26.84-3.4-48.66-3.27-68.68.4A2.56,2.56,0,0,1,303.86,404.21Z"/><path class="cls-5" d="M342.78,435.56a3,3,0,0,1-3-2.61l-8.94-68.49a3,3,0,0,1,5.95-.77l8.94,68.48a3,3,0,0,1-2.59,3.37Z"/><path class="cls-4" d="M681.67,246.71,534,28.7a4.84,4.84,0,0,0-7.82-.26h0A37.72,37.72,0,0,0,523,69.86L633.19,269.62a8.08,8.08,0,0,0,10.2,3.56l34.69-14.46A8.09,8.09,0,0,0,681.67,246.71Z"/><polygon class="cls-2" points="582.49 177.75 589.29 169.88 534.56 90.91 582.49 177.75"/><path class="cls-4" d="M648.67,226.67,451.23,37.85a4.84,4.84,0,0,0-7.7,1.39h0a37.73,37.73,0,0,0,5.54,41.18l154.65,177.5Z"/><polygon class="cls-2" points="456.15 88.55 540.03 184.83 551.28 181.25 530.81 161.3 456.15 88.55 456.15 88.55"/><path class="cls-4" d="M606.52,217,376.82,69.11a4.83,4.83,0,0,0-7.28,2.83h0a37.7,37.7,0,0,0,13.24,39.38L549.24,243.4Z"/><polygon class="cls-2" points="503.85 207.38 513.49 193.7 444.34 160.16 503.85 207.38"/><path class="cls-4" d="M450.7,242.64l20.73-20.9a126.34,126.34,0,0,1,51.36-31.42l14.47,55.24a48.49,48.49,0,0,0-38.5,10.54l-.06,0-21.16,17.77"/><path class="cls-4" d="M717.85,291.56l-71.24-96.68A58.41,58.41,0,0,0,580.5,172l-57.71,18.37,14.47,55.24a48.61,48.61,0,0,1-13.45,96.28h.05l-83.93-10A55.83,55.83,0,0,0,385,359.47h0a4.83,4.83,0,0,0,3.25,7.15l183.09,36.43c126.1,37.09,323.77,3,467.38-32.17V182Z"/><path class="cls-3" d="M717.88,491.86c-4.17,0-10.48-1.48-16.84-8.53l10.54-9.48c1.57,1.75,3.95,3.84,6.3,3.84,9.17,0,26.27-32,26.27-93.07s-17.1-93.07-26.27-93.07V277.38c8.64,0,20.9,5.93,30.31,34.18,6.54,19.62,10.14,45.57,10.14,73.06s-3.6,53.44-10.14,73.06C738.78,485.93,726.52,491.86,717.88,491.86Z"/><path class="cls-2" d="M793.59,465.72a25.36,25.36,0,0,1-13-3.94l7.23-12.18c2,1.17,4.83,2.44,7.18,1.77,10.3-2.93,15.86-40.24,1.12-92S757,278.75,746.69,281.69l-3.88-13.64c8.26-2.35,21.58-.24,38.05,23.13,11.43,16.23,21.68,39.05,28.86,64.28s10.48,50,9.3,69.85c-1.7,28.55-11.91,37.34-20.18,39.69A18.8,18.8,0,0,1,793.59,465.72Z"/><rect class="cls-6" x="394.77" y="745.29" width="191.8" height="34.21" transform="translate(-395.38 570.25) rotate(-45)"/><rect class="cls-6" x="473.56" y="666.49" width="34.21" height="191.8" transform="translate(-395.38 570.25) rotate(-45)"/></g></g></svg>