<svg xmlns="http://www.w3.org/2000/svg" viewBox="0 0 201.06 200.11"><defs><style>.cls-1{fill:#fff;}.cls-2{fill:#9b46c3;}.cls-3{fill:#d66be8;}.cls-4{fill:#e8aaee;}.cls-5{fill:#59337e;}.cls-6{fill:#f0cef2;}.cls-7{fill:#567ad0;}.cls-8{fill:#2b52a0;}.cls-9{fill:#809ce6;}.cls-10{fill:#bbc6ee;}.cls-11{fill:#f8e7f9;}</style></defs><g id="Layer_2" data-name="Layer 2"><g id="Layer_1-2" data-name="Layer 1"><path class="cls-1" d="M64,104.36c-.41.11-.81.21-1.22.3C55.94,105.74,48,103.79,41,100a26.83,26.83,0,0,1-8-40.45,78.56,78.56,0,0,1,8.43-8.82,94,94,0,0,1,71-23.66c5.33.44,10.64,1,15.89,1.56,41.59,4.24,93.85,61,64,101.37-23.56,37.42-90,42.73-99.89-7.6-.1-.5-.2-1-.32-1.52A22.65,22.65,0,0,0,64,104.36Z"/><circle class="cls-1" cx="33.91" cy="141.99" r="31.51"/><polygon class="cls-2" points="143.49 200.11 123.14 200.11 123.14 136.91 144.24 136.91 143.49 200.11"/><path class="cls-2" d="M164.5,200.11h0a21.72,21.72,0,0,0,20.39-14.21l4.89-13.26a.82.82,0,0,0-1.43-.78l-10.1,13.39a16.06,16.06,0,0,1-12.8,6.38h-7.71"/><path class="cls-3" d="M159.67,146.33h0a10.06,10.06,0,0,1,12.8,13.61l-14.73,31.69a6,6,0,0,0,2.91,2.54,6.12,6.12,0,0,1,3.85,5.63v.31H152a3.17,3.17,0,0,1-3.17-3.17V157.75Z"/><path class="cls-4" d="M148.78,192.66v4.28a3.17,3.17,0,0,0,3.17,3.17H164.5v-.31a6.12,6.12,0,0,0-3.85-5.63,6,6,0,0,1-2.91-2.54h-9Z"/><path class="cls-2" d="M159.67,146.33l-8.85,34.82c-1.25,5.25-.1,8.64,4,11.29,3.19,2.09,4.66,4.08,4.66,7.67H146.27v-53"/><path class="cls-3" d="M107,146.33h0a10.06,10.06,0,0,0-12.8,13.61l14.74,31.69a6.07,6.07,0,0,1-2.92,2.54,6.12,6.12,0,0,0-3.85,5.63v.31h12.55a3.17,3.17,0,0,0,3.17-3.17V157.75Z"/><path class="cls-4" d="M106,194.17a6.12,6.12,0,0,0-3.85,5.63v.31h12.55a3.17,3.17,0,0,0,3.17-3.17v-5.31H108.9A6.07,6.07,0,0,1,106,194.17Z"/><path class="cls-2" d="M107,146.33l8.85,34.82c1.25,5.25.11,8.64-4,11.29-3.19,2.09-4.66,4.08-4.66,7.67h13.16v-53"/><path class="cls-3" d="M106.53,144.91A27.85,27.85,0,0,1,108,125.06l11-23.39V91.22h28.61v10.45l11,23.39a27.8,27.8,0,0,1,1.47,19.85l-10.72,35.63a14,14,0,0,0,1.3,11.09,6.06,6.06,0,0,0,3,2.57h0a6,6,0,0,1,3.8,5.6v.31h-14a3.16,3.16,0,0,1-3.16-3.17V150.45a7,7,0,0,0-14,0v46.49a3.17,3.17,0,0,1-3.17,3.17h-14v-.31a6,6,0,0,1,3.79-5.6h0a6,6,0,0,0,3-2.57,14.07,14.07,0,0,0,1.31-11.09Z"/><path class="cls-4" d="M142.45,101.69H124.19s-6.45,16.32-1.13,28.21a10.43,10.43,0,0,1,4.17-2.63h0a23.44,23.44,0,0,0,6.08,11.06,23.51,23.51,0,0,0,6.07-11.06h0a10.26,10.26,0,0,1,4.16,2.63C148.89,118,142.45,101.69,142.45,101.69Z"/><rect class="cls-5" x="119.02" y="96.78" width="28.6" height="4.89" transform="translate(266.64 198.45) rotate(-180)"/><path class="cls-2" d="M147.11,63.46a8,8,0,0,1,6.91,4l4.37,7.62a6,6,0,0,1-.12,6.2L151.82,91.6,141.71,63.46Z"/><path class="cls-2" d="M124.92,63.46h-5.4a8,8,0,0,0-6.91,4l-4.37,7.62a6,6,0,0,0,.12,6.2l6.45,10.31,10.11-28.14"/><path class="cls-3" d="M119,85.69A14.67,14.67,0,0,1,119.78,72l5.14-8.52h16.79L146.85,72a14.67,14.67,0,0,1,.77,13.71h0v5.53s-6.26,8.62-14.3,8.62c-8.4,0-14.31-8.62-14.31-8.62V85.69Z"/><path class="cls-2" d="M138.19,77.53a3.18,3.18,0,0,1,6.35,0"/><path class="cls-2" d="M122.09,77.53a3.18,3.18,0,0,1,6.35,0"/><circle class="cls-5" cx="141.36" cy="77.53" r="1.96"/><path class="cls-6" d="M122.18,91.68l3.28-4.08,1.15-3.35a6,6,0,0,1,5.65-4h2.11a6,6,0,0,1,5.65,4l1.15,3.35,3.28,4.08a5.63,5.63,0,0,1,1.23,3.5h0a4.13,4.13,0,0,1-2.9,4,4,4,0,0,1-4.46-1.69,5.38,5.38,0,0,0-4.55-2.5h-.91a5.39,5.39,0,0,0-4.55,2.5,4,4,0,0,1-4.46,1.69,4.13,4.13,0,0,1-2.9-4h0A5.63,5.63,0,0,1,122.18,91.68Z"/><path class="cls-5" d="M130.33,84.94a3.6,3.6,0,0,1,2.5-1h1a3.6,3.6,0,0,1,2.5,1,3.34,3.34,0,0,1,.13,4.82h0a2.65,2.65,0,0,1-1.86.77h-2.51a2.61,2.61,0,0,1-1.85-.77h0A3.33,3.33,0,0,1,130.33,84.94Z"/><circle class="cls-6" cx="142.11" cy="76.91" r="0.54"/><circle class="cls-5" cx="125.27" cy="77.53" r="1.96"/><circle class="cls-6" cx="126.02" cy="76.91" r="0.54"/><path class="cls-4" d="M140.33,192.66v4.28a3.16,3.16,0,0,0,3.16,3.17h14v-.31a6,6,0,0,0-3.8-5.6,6.06,6.06,0,0,1-3-2.57c-.19-.32-.35-.66-.51-1h-9.84Z"/><path class="cls-4" d="M126.31,196.94v-6.3h-9.85c-.16.33-.32.67-.51,1a6,6,0,0,1-3,2.57,6,6,0,0,0-3.79,5.6v.31h14A3.17,3.17,0,0,0,126.31,196.94Z"/><path class="cls-7" d="M100.71,129l-7.54,1.7L82.05,200.11h18.17a5.71,5.71,0,0,0-2.52-4.73l-.74-.5A6.15,6.15,0,0,1,94.5,188l15.06-49.5A7.52,7.52,0,0,0,100.71,129Z"/><path class="cls-8" d="M93.17,130.65l-2.31,57.71a5.49,5.49,0,0,0,2.32,4.7l1.76,1.24a5.89,5.89,0,0,1,2.49,4.81v1H84.74V130.65"/><path class="cls-7" d="M49.65,129l7.54,1.7,11.12,69.46H50.14a5.69,5.69,0,0,1,2.52-4.73l.74-.5a6.15,6.15,0,0,0,2.46-6.9L40.8,138.48A7.52,7.52,0,0,1,49.65,129Z"/><path class="cls-8" d="M57.19,130.65l2.3,57.71a5.47,5.47,0,0,1-2.32,4.7l-1.75,1.24a5.88,5.88,0,0,0-2.5,4.81v1h12.7V130.65"/><path class="cls-7" d="M84.13,52.09l1.52,23,4.44,13.56A82,82,0,0,1,93.93,120L89,188.88a6.16,6.16,0,0,0,2.6,5.47l1.35,1a5.89,5.89,0,0,1,2.49,4.81H82.05V140.18H68.31v59.93H54.92a5.88,5.88,0,0,1,2.5-4.81l4.19-3L56.42,120a82,82,0,0,1,3.85-31.34L64.7,75.12l1.53-23"/><polyline class="cls-9" points="82.05 49.75 82.05 140.18 68.31 140.18 68.31 49.75"/><path class="cls-7" d="M91.52,19.16,87.94,0h0c-1.65,3.84-6,21.77-6,21.77a12.6,12.6,0,0,0-6.59-1.86h-.24a12.55,12.55,0,0,0-6.59,1.86S64.06,3.84,62.42,0h0L58.83,19.16a17.21,17.21,0,0,0,3.59,14.27v9.69a12.45,12.45,0,0,0,3.81,9h0l1.3,7.56A6.59,6.59,0,0,0,74,65.13h2.29a6.6,6.6,0,0,0,6.51-5.48l1.3-7.56h0a12.49,12.49,0,0,0,3.81-9V33.43A17.21,17.21,0,0,0,91.52,19.16Z"/><path class="cls-10" d="M62.42,33.43V0L58.83,19.16A17.21,17.21,0,0,0,62.42,33.43Z"/><path class="cls-10" d="M85.85,45.9q-.16-.16-.33-.3a3.56,3.56,0,0,0-5.7,2.88v8.68a4.64,4.64,0,0,1-9.28,0V48.51a3.57,3.57,0,0,0-6-2.66l0,0-1.37,1.37a12.5,12.5,0,0,0,3.09,4.82h0l1.3,7.56A6.59,6.59,0,0,0,74,65.13h2.29a6.6,6.6,0,0,0,6.51-5.48l1.3-7.56h0a12.48,12.48,0,0,0,3.08-4.82Z"/><path class="cls-5" d="M75.18,59.51a2.35,2.35,0,0,1-2.35-2.35v-.91l4.7,0v.93A2.35,2.35,0,0,1,75.18,59.51Z"/><circle class="cls-5" cx="81.14" cy="38.5" r="2.18"/><circle class="cls-5" cx="69.21" cy="38.5" r="2.18"/><path class="cls-10" d="M87.94,33.43V0l3.58,19.16A17.21,17.21,0,0,1,87.94,33.43Z"/><path class="cls-8" d="M75.18,133.32h0A6.87,6.87,0,0,1,82,140.18v59.93a0,0,0,0,1,0,0H68.31a0,0,0,0,1,0,0V140.18A6.87,6.87,0,0,1,75.18,133.32Z"/><path class="cls-10" d="M66.65,34.6h5.13a3,3,0,0,0-5.13,0Z"/><path class="cls-10" d="M78.58,34.6h5.13a3,3,0,0,0-5.13,0Z"/><circle class="cls-6" cx="68.51" cy="37.89" r="0.7"/><circle class="cls-6" cx="80.44" cy="37.89" r="0.7"/><path class="cls-6" d="M26.21,182.9l3.25,17.21h6.3V200a3.67,3.67,0,0,0-1.26-2.77h0a3.66,3.66,0,0,1-1.27-2.76v-21"/><path class="cls-4" d="M20,197.22l-1.27-1.09-1.46-4.58a5.23,5.23,0,0,1,1.11-5.09l4.28-4.68A17.1,17.1,0,0,1,19.48,180l-4.76-3.45L14.33,179a10.7,10.7,0,0,1-.43,1.71v0l-2.06,7.09,3.09,12.32h6.3V200A3.66,3.66,0,0,0,20,197.22Z"/><path class="cls-4" d="M33.45,158.23h0A6.76,6.76,0,0,1,27,163H12.73a4.69,4.69,0,0,1-4.68-4.68h0a4.68,4.68,0,0,1,5.5-4.61h0a6.13,6.13,0,0,0-9.14,5.35h0a9.51,9.51,0,0,0,2.79,6.73l.64.64h0a10.85,10.85,0,0,0-3.18,7.68v5.23a4.53,4.53,0,0,1-1.15,3L0,186.3l1,13.81h6.3V200A3.67,3.67,0,0,0,6,197.22H6a3.66,3.66,0,0,1-1.27-2.76V192a5.37,5.37,0,0,1,3-4.81l1-.49A10.48,10.48,0,0,0,14.33,179l.39-2.44L19.48,180a17.11,17.11,0,0,0,10.05,3.26h0a17.12,17.12,0,0,0,17.12-17.12V157.3"/><path class="cls-3" d="M46.65,157.3l-6.39.45-.63,3h2.59a4.68,4.68,0,0,1,4.41,3.1l0,0Z"/><path class="cls-6" d="M44.3,144.21l4.25,7.59A15.68,15.68,0,0,0,55,139.13v-2.7Z"/><polygon class="cls-4" points="46.9 146.64 55 136.43 44.3 144.21 44.3 146.11 46.9 146.64"/><path class="cls-6" d="M24.26,136.43v2.7a15.68,15.68,0,0,0,6.45,12.67L35,144.21Z"/><polygon class="cls-4" points="32.36 146.64 24.26 136.43 34.96 144.21 34.96 146.11 32.36 146.64"/><circle class="cls-4" cx="39.63" cy="151.8" r="8.92"/><path class="cls-6" d="M33,148.13h2.56a1.47,1.47,0,0,0-2.56,0Z"/><path class="cls-6" d="M43.69,148.13h2.57a1.49,1.49,0,0,0-1.29-.75A1.47,1.47,0,0,0,43.69,148.13Z"/><path class="cls-6" d="M42.75,152.67l-.64-.64-.5-.4a3.24,3.24,0,0,0-4.46.4h0l-.61.61a3.18,3.18,0,0,1-4,.38l-1.79-1.22a8.92,8.92,0,0,0,17.84,0L46.83,153A3.19,3.19,0,0,1,42.75,152.67Z"/><circle class="cls-5" cx="44.97" cy="150.27" r="1.68"/><circle class="cls-5" cx="34.29" cy="150.27" r="1.68"/><path class="cls-6" d="M6.12,159.2a5.46,5.46,0,0,1,5.75-5.46,4.52,4.52,0,0,1,1.68,0,6.13,6.13,0,0,0-9.14,5.35h0a9.51,9.51,0,0,0,2.79,6.73l.64.64h0c1-1.16,3.75-1.79,3.75-1.79A5.46,5.46,0,0,1,6.12,159.2Z"/><path class="cls-6" d="M39.08,180.32l1.82,19.79h6.3v-.47a4.27,4.27,0,0,0-.75-2.42h0a4.28,4.28,0,0,1-.74-2.55l.94-28"/><path class="cls-4" d="M41.48,176l-2.4,4.35.55,6h0c0-4.72,5.15-12.43,5.15-12.43Z"/><path class="cls-6" d="M29.53,183.23h0a17.11,17.11,0,0,0,17.1-16.36,4.44,4.44,0,0,0-4.85,1l-.18.18a2.79,2.79,0,0,1-4,0A4.51,4.51,0,0,0,30,171.24v5.34a7.18,7.18,0,0,1-3.76,6.32h0C27.32,183.69,28.41,183.23,29.53,183.23Z"/><path class="cls-4" d="M33.23,182.82a17,17,0,0,0,1.73-.48l-1.73-8.83Z"/><path class="cls-3" d="M19.48,180l-4.76-3.45L14.33,179a10.85,10.85,0,0,1-.43,1.7v0l-1.31,4.5c1.29-4.43,5.65-5.1,8.92-3.92A15.7,15.7,0,0,1,19.48,180Z"/><path class="cls-2" d="M41.68,154.22c0-1.13-.92-1.29-2-1.29s-2.05.16-2.05,1.29a2,2,0,1,0,4.1,0Z"/><circle class="cls-11" cx="33.91" cy="149.7" r="0.38"/><circle class="cls-11" cx="44.59" cy="149.7" r="0.38"/><path class="cls-4" d="M41.9,157.39H37.37a2.61,2.61,0,0,0,2.26,1.31A2.63,2.63,0,0,0,41.9,157.39Z"/></g></g></svg>