<svg xmlns="http://www.w3.org/2000/svg" xmlns:xlink="http://www.w3.org/1999/xlink" viewBox="0 0 186.27 178.32"><defs><style>.cls-1,.cls-3,.cls-8{fill:none;}.cls-2{fill:#fff;}.cls-3,.cls-8{stroke:#567ad0;stroke-miterlimit:10;}.cls-3{stroke-width:2.83px;}.cls-4{fill:#59337e;}.cls-5{fill:#809ce6;}.cls-6{fill:#567ad0;}.cls-7{clip-path:url(#clip-path);}.cls-9{fill:#bbc6ee;}.cls-10{fill:#9b46c3;}.cls-11{fill:#f0cef2;}</style><clipPath id="clip-path" transform="translate(0 36.54)"><circle class="cls-1" cx="119.61" cy="30.12" r="30.12"/></clipPath></defs><g id="Layer_2" data-name="Layer 2"><g id="Layer_1-2" data-name="Layer 1"><path class="cls-2" d="M42.8,108.37l-.88.7c-5.1,3.45-12.25,4.86-19.41,4.41A24,24,0,0,1,.89,83.58,71.25,71.25,0,0,1,4.44,73.22,84.63,84.63,0,0,1,53.2,27.11c4.49-1.66,9-3.19,13.48-4.74,35.36-12.28,99,14.15,89.86,58.3-5.13,39.38-57.1,68.83-83.94,31.61-.26-.37-.54-.75-.83-1.12A20.18,20.18,0,0,0,42.8,108.37Z" transform="translate(0 36.54)"/><path class="cls-3" d="M46.35,103.33l-13,13a14.11,14.11,0,0,0,0,19.94h0a14.11,14.11,0,0,0,19.94,0l35.55-35.55a23.12,23.12,0,0,1,16.34-6.77h0A23.11,23.11,0,0,1,128.32,117h0a23.11,23.11,0,0,1-23.11,23.11H92.64" transform="translate(0 36.54)"/><rect class="cls-4" x="41.96" y="93.74" width="8.77" height="19.29" rx="3.86" transform="translate(86.68 34.05) rotate(45)"/><circle class="cls-5" cx="119.61" cy="66.66" r="30.12"/><path class="cls-6" d="M132.68,57.26c.61-.3,1.22-.62,1.82-1h0A30.1,30.1,0,0,0,145,13.86a30.11,30.11,0,0,1-16,36.86L93.43,15.23A28.84,28.84,0,0,0,91.62,19l26.89,26.89a4.43,4.43,0,0,1-3.32,7.55A30,30,0,0,1,91,39.6a30.12,30.12,0,0,0,39.72,18.51h0c.64-.25,1.27-.53,1.89-.83Z" transform="translate(0 36.54)"/><g class="cls-7"><rect class="cls-8" x="73.83" y="-16.66" width="92.56" height="92.56" transform="translate(14.24 130.14) rotate(-45)"/><line class="cls-8" x1="61.93" y1="58.88" x2="127.38" y2="124.33"/><line class="cls-8" x1="69.2" y1="51.61" x2="134.65" y2="117.06"/><line class="cls-8" x1="74.52" y1="46.42" x2="139.97" y2="111.86"/><line class="cls-8" x1="83.75" y1="37.07" x2="149.2" y2="102.52"/><line class="cls-8" x1="91.02" y1="29.8" x2="156.47" y2="95.24"/><line class="cls-8" x1="98.29" y1="22.52" x2="163.74" y2="87.97"/><line class="cls-8" x1="105.57" y1="15.25" x2="171.01" y2="80.7"/><line class="cls-8" x1="112.84" y1="7.98" x2="178.29" y2="73.43"/><line class="cls-8" x1="178.29" y1="58.88" x2="112.84" y2="124.33"/><line class="cls-8" x1="171.01" y1="51.61" x2="105.57" y2="117.06"/><line class="cls-8" x1="163.74" y1="44.34" x2="98.29" y2="109.79"/><line class="cls-8" x1="156.47" y1="37.07" x2="91.02" y2="102.52"/><line class="cls-8" x1="149.2" y1="29.8" x2="83.75" y2="95.24"/><line class="cls-8" x1="141.93" y1="22.52" x2="76.48" y2="87.97"/><line class="cls-8" x1="134.65" y1="15.25" x2="69.2" y2="80.7"/><line class="cls-8" x1="127.38" y1="7.98" x2="61.93" y2="73.43"/></g><rect class="cls-9" x="83.29" y="29.49" width="66.55" height="7.35" rx="3.24" transform="translate(57.59 -36.17) rotate(45)"/><rect class="cls-9" x="81.56" y="46.26" width="37.04" height="6.76" rx="0.64" transform="translate(64.42 -19.69) rotate(45)"/><path class="cls-10" d="M108.82,63.16,86.57,40.91,43.15,93.11a5.47,5.47,0,0,0,.34,7.37l5.76,5.76a5.48,5.48,0,0,0,7.37.34Z" transform="translate(0 36.54)"/><path class="cls-4" d="M86.57,40.91h0l16.75,16.76-52.2,43.41a5.47,5.47,0,0,1-7.37-.34l-.26-.26h0l5.76,5.76a5.48,5.48,0,0,0,7.37.34l52.2-43.42Z" transform="translate(0 36.54)"/><rect class="cls-4" x="76.09" y="55.84" width="8.77" height="19.29" rx="3.86" transform="translate(69.88 -1.19) rotate(45)"/><path class="cls-11" d="M33.74,27.81V58.58a6.21,6.21,0,1,0,2.35,4.86V39.92L57.76,27.06V44.33A6.15,6.15,0,0,0,53.9,43a6.22,6.22,0,1,0,6.21,6.22v-37Z" transform="translate(0 36.54)"/><path class="cls-9" d="M10.08,82.44v21.07a6.21,6.21,0,1,0,2.35,4.86V82.44Z" transform="translate(0 36.54)"/><path class="cls-11" d="M141.43,66.87V94.28a5.3,5.3,0,1,0,1.92,4.9l.08,0V79.59l18.51,11v15.89a5.25,5.25,0,0,0-3.3-1.18,5.31,5.31,0,1,0,5.3,5.31V80.24Z" transform="translate(0 36.54)"/></g></g></svg>