<svg width="22" height="20" viewBox="0 0 22 20" fill="none" xmlns="http://www.w3.org/2000/svg">
<path d="M17.3741 5.41671H14.7489V4.58337C14.7489 3.92033 14.4723 3.28445 13.98 2.81561C13.4876 2.34677 12.8199 2.08337 12.1236 2.08337H10.3735C9.67721 2.08337 9.00947 2.34677 8.51714 2.81561C8.02481 3.28445 7.74823 3.92033 7.74823 4.58337V5.41671H5.12298C4.42673 5.41671 3.75899 5.6801 3.26666 6.14894C2.77433 6.61778 2.49774 7.25367 2.49774 7.91671V15.4167C2.49774 16.0797 2.77433 16.7156 3.26666 17.1845C3.75899 17.6533 4.42673 17.9167 5.12298 17.9167H17.3741C18.0704 17.9167 18.7381 17.6533 19.2304 17.1845C19.7228 16.7156 19.9994 16.0797 19.9994 15.4167V7.91671C19.9994 7.25367 19.7228 6.61778 19.2304 6.14894C18.7381 5.6801 18.0704 5.41671 17.3741 5.41671ZM9.49839 4.58337C9.49839 4.36236 9.59059 4.1504 9.75469 3.99412C9.9188 3.83784 10.1414 3.75004 10.3735 3.75004H12.1236C12.3557 3.75004 12.5783 3.83784 12.7424 3.99412C12.9065 4.1504 12.9987 4.36236 12.9987 4.58337V5.41671H9.49839V4.58337ZM18.2492 15.4167C18.2492 15.6377 18.157 15.8497 17.9929 16.006C17.8288 16.1622 17.6062 16.25 17.3741 16.25H5.12298C4.8909 16.25 4.66832 16.1622 4.50421 16.006C4.3401 15.8497 4.2479 15.6377 4.2479 15.4167V10.8334C5.1015 11.1558 5.97897 11.4176 6.87315 11.6167V12.1084C6.87315 12.3294 6.96534 12.5413 7.12945 12.6976C7.29356 12.8539 7.51614 12.9417 7.74823 12.9417C7.98031 12.9417 8.20289 12.8539 8.367 12.6976C8.53111 12.5413 8.62331 12.3294 8.62331 12.1084V11.9334C9.49344 12.0462 10.3704 12.1046 11.2486 12.1084C12.1267 12.1046 13.0037 12.0462 13.8738 11.9334V12.1084C13.8738 12.3294 13.966 12.5413 14.1301 12.6976C14.2942 12.8539 14.5168 12.9417 14.7489 12.9417C14.981 12.9417 15.2035 12.8539 15.3677 12.6976C15.5318 12.5413 15.624 12.3294 15.624 12.1084V11.6167C16.5181 11.4176 17.3956 11.1558 18.2492 10.8334V15.4167ZM18.2492 9.00837C17.3981 9.35045 16.5204 9.62907 15.624 9.84171V9.58337C15.624 9.36236 15.5318 9.1504 15.3677 8.99412C15.2035 8.83784 14.981 8.75004 14.7489 8.75004C14.5168 8.75004 14.2942 8.83784 14.1301 8.99412C13.966 9.1504 13.8738 9.36236 13.8738 9.58337V10.2C12.1335 10.4501 10.3636 10.4501 8.62331 10.2V9.58337C8.62331 9.36236 8.53111 9.1504 8.367 8.99412C8.20289 8.83784 7.98031 8.75004 7.74823 8.75004C7.51614 8.75004 7.29356 8.83784 7.12945 8.99412C6.96534 9.1504 6.87315 9.36236 6.87315 9.58337V9.85837C5.97673 9.64573 5.09901 9.36712 4.2479 9.02504V7.91671C4.2479 7.69569 4.3401 7.48373 4.50421 7.32745C4.66832 7.17117 4.8909 7.08337 5.12298 7.08337H17.3741C17.6062 7.08337 17.8288 7.17117 17.9929 7.32745C18.157 7.48373 18.2492 7.69569 18.2492 7.91671V9.00837Z" fill="black"/>
</svg>
