<svg width="20" height="20" viewBox="0 0 20 20" fill="none" xmlns="http://www.w3.org/2000/svg">
<path d="M5.83335 7.49996C6.38589 7.49996 6.91579 7.28047 7.30649 6.88976C7.69719 6.49906 7.91669 5.96916 7.91669 5.41663C7.91669 4.86409 7.69719 4.33419 7.30649 3.94349C6.91579 3.55279 6.38589 3.33329 5.83335 3.33329C5.28082 3.33329 4.75092 3.55279 4.36021 3.94349C3.96951 4.33419 3.75002 4.86409 3.75002 5.41663C3.75002 5.96916 3.96951 6.49906 4.36021 6.88976C4.75092 7.28047 5.28082 7.49996 5.83335 7.49996ZM5.83335 9.16663C5.3409 9.16663 4.85326 9.06963 4.39829 8.88117C3.94332 8.69272 3.52992 8.4165 3.1817 8.06828C2.83348 7.72006 2.55726 7.30666 2.36881 6.85169C2.18035 6.39672 2.08335 5.90908 2.08335 5.41663C2.08335 4.92417 2.18035 4.43653 2.36881 3.98156C2.55726 3.52659 2.83348 3.1132 3.1817 2.76498C3.52992 2.41676 3.94332 2.14053 4.39829 1.95208C4.85326 1.76362 5.3409 1.66663 5.83335 1.66663C6.82792 1.66663 7.78174 2.06171 8.485 2.76498C9.18827 3.46824 9.58335 4.42206 9.58335 5.41663C9.58335 6.41119 9.18827 7.36501 8.485 8.06828C7.78174 8.77154 6.82792 9.16663 5.83335 9.16663ZM14.5834 10.8333C15.0254 10.8333 15.4493 10.6577 15.7619 10.3451C16.0744 10.0326 16.25 9.60865 16.25 9.16663C16.25 8.7246 16.0744 8.30068 15.7619 7.98811C15.4493 7.67555 15.0254 7.49996 14.5834 7.49996C14.1413 7.49996 13.7174 7.67555 13.4048 7.98811C13.0923 8.30068 12.9167 8.7246 12.9167 9.16663C12.9167 9.60865 13.0923 10.0326 13.4048 10.3451C13.7174 10.6577 14.1413 10.8333 14.5834 10.8333ZM14.5834 12.5C13.6993 12.5 12.8515 12.1488 12.2263 11.5236C11.6012 10.8985 11.25 10.0507 11.25 9.16663C11.25 8.28257 11.6012 7.43472 12.2263 6.8096C12.8515 6.18448 13.6993 5.83329 14.5834 5.83329C15.4674 5.83329 16.3153 6.18448 16.9404 6.8096C17.5655 7.43472 17.9167 8.28257 17.9167 9.16663C17.9167 10.0507 17.5655 10.8985 16.9404 11.5236C16.3153 12.1488 15.4674 12.5 14.5834 12.5ZM16.6667 17.5V17.0833C16.6667 16.5308 16.4472 16.0009 16.0565 15.6102C15.6658 15.2195 15.1359 15 14.5834 15C14.0308 15 13.5009 15.2195 13.1102 15.6102C12.7195 16.0009 12.5 16.5308 12.5 17.0833V17.5H10.8334V17.0833C10.8334 16.5908 10.9304 16.1032 11.1188 15.6482C11.3073 15.1933 11.5835 14.7799 11.9317 14.4316C12.2799 14.0834 12.6933 13.8072 13.1483 13.6187C13.6033 13.4303 14.0909 13.3333 14.5834 13.3333C15.0758 13.3333 15.5634 13.4303 16.0184 13.6187C16.4734 13.8072 16.8868 14.0834 17.235 14.4316C17.5832 14.7799 17.8594 15.1933 18.0479 15.6482C18.2364 16.1032 18.3334 16.5908 18.3334 17.0833V17.5H16.6667ZM8.33335 17.5V14.1666C8.33335 13.5036 8.06996 12.8677 7.60112 12.3989C7.13228 11.93 6.4964 11.6666 5.83335 11.6666C5.17031 11.6666 4.53443 11.93 4.06559 12.3989C3.59675 12.8677 3.33335 13.5036 3.33335 14.1666V17.5H1.66669V14.1666C1.66669 13.0616 2.10567 12.0017 2.88708 11.2203C3.66848 10.4389 4.72829 9.99996 5.83335 9.99996C6.93842 9.99996 7.99823 10.4389 8.77963 11.2203C9.56103 12.0017 10 13.0616 10 14.1666V17.5H8.33335Z" fill="black"/>
</svg>
