<svg width="23" height="31" viewBox="0 0 23 31" fill="none" xmlns="http://www.w3.org/2000/svg">
<path d="M9.00029 0C4.0395 0 0 3.98365 0 8.87584C0 10.6231 0.531513 12.2654 1.41737 13.6283C2.01975 12.6498 2.76387 11.7413 3.61429 10.9725C3.36625 10.3086 3.18908 9.60967 3.18908 8.87584C3.18908 5.73086 5.81121 3.14498 9.00029 3.14498C12.1894 3.14498 14.8115 5.73086 14.8115 8.87584C14.8115 12.0208 12.2248 14.6067 9.00029 14.6067C7.90182 14.6067 6.87423 14.2922 5.98838 13.768C5.20883 14.5019 4.57101 15.3755 4.1458 16.3539C5.56317 17.2625 7.22858 17.7866 9.00029 17.7866C13.9611 17.7866 18.0006 13.803 18.0006 8.91078C18.0006 3.98364 13.9611 0 9.00029 0Z" fill="#5865F6"/>
<path d="M18.1423 10.3787C17.9651 11.4969 17.5754 12.5452 17.0084 13.4887C18.6738 14.9913 19.7368 17.1229 19.7368 19.5341C19.7014 24.0069 16.0163 27.6761 11.4452 27.6761C6.90967 27.6761 3.18908 24.0419 3.18908 19.5341C3.18908 15.0612 6.87423 11.3921 11.4452 11.3921C12.2602 11.3921 13.0043 11.4969 13.7485 11.7066C14.2445 10.8679 14.5634 9.9244 14.5634 8.87607C14.5634 8.80618 14.5634 8.73629 14.5634 8.6664C13.5713 8.38685 12.5437 8.24707 11.4452 8.24707C5.13796 8.24707 0 13.314 0 19.5341C0 25.7542 5.13796 30.8211 11.4452 30.8211C17.7525 30.8211 22.8905 25.7542 22.8905 19.5341C22.8905 15.7601 21.0125 12.4054 18.1423 10.3787Z" fill="#5865F6"/>
</svg>
