<svg xmlns="http://www.w3.org/2000/svg" viewBox="0 0 823.79 873.79"><defs><style>.cls-1{fill:#faf8fa;}.cls-2{fill:#e8aaee;}.cls-3{fill:#f0cef2;}.cls-4{fill:#d66be8;}.cls-5{fill:#bbc6ee;}.cls-6{fill:#809ce6;}.cls-7{fill:#567ad0;}.cls-8{fill:#2b52a0;}.cls-9{fill:#9b46c3;}.cls-10{fill:#59337e;}.cls-11{fill:#f7f1f6;}</style></defs><g id="Layer_2" data-name="Layer 2"><g id="ARTWORK"><path class="cls-1" d="M705.31,852.89c158.17-3.93,157.78-235.64,0-240C547.13,616.82,547.53,848.52,705.31,852.89Z"/><path class="cls-1" d="M176.27,790.16c235.32-5.85,234.73-350.57,0-357.06C-59,439-58.46,783.66,176.27,790.16Z"/><path class="cls-1" d="M777.56,255.84C747.08,140.91,641,107.4,533.35,109.75,465.7,101.11,467,28.59,406.74,10.35,364.57-10.9,308.4,2.14,275.65,35.16,235,76.29,235.86,137.08,241,191c8.8,99.15,52.49,197.33,130,261.53,53.76,48.69,125.69,72.59,197.81,68.25C613,518.07,659,513.38,697.4,489.45,777,443.54,795.45,339.82,777.56,255.84Z"/><path class="cls-2" d="M375.75,258.32l-7,14.79.49.62a1.28,1.28,0,0,0,2.09-.15L379.78,259"/><path class="cls-2" d="M374.6,261.85l-4.71,15.66.58.54a1.27,1.27,0,0,0,2-.45l7-17.39"/><path class="cls-3" d="M374.93,262.24a31.32,31.32,0,0,1,3.08-9.61l2.67-5.21,12.56-40.68,19.63,7.44-18.25,38.18L393,261.57a14.55,14.55,0,0,1-2.42,5.86l-5.89,8.42-.68-.3a2.34,2.34,0,0,1-1.25-3l3.18-8.45a2,2,0,0,0-3.7-1.46l-7.36,17.72a2.19,2.19,0,0,1-2.59,1.28l-.3-.08Z"/><polyline class="cls-3" points="432.84 167.97 412.87 214.18 393.24 206.74 401.5 180.51"/><path class="cls-4" d="M408.23,159.15l-6.73,21.36,21.75,9.66h0l9.46-21.9a13.08,13.08,0,0,0-9.35-18h0A13.09,13.09,0,0,0,408.23,159.15Z"/><circle class="cls-3" cx="403.24" cy="209.98" r="10.51" transform="translate(77.34 526.98) rotate(-71.71)"/><path class="cls-2" d="M107.68,637.94l-9.77,15.77a2.27,2.27,0,0,1-2.86.87l-.28-.13,11.14-33.61"/><path class="cls-3" d="M109.38,639.48l-7.76,16.85a2.27,2.27,0,0,1-2.73,1.22l-.3-.09,6.93-34.73,15.29.66L122,633a15.16,15.16,0,0,1-.62,6.52l-3.28,10.12-.76-.09a2.42,2.42,0,0,1-2.13-2.56l.58-9.31a2.05,2.05,0,0,0-1.88-2.18h0a2.05,2.05,0,0,0-2,1.07"/><path class="cls-3" d="M112,636.56l-5.26,18.53a2.27,2.27,0,0,1-2.53,1.6l-.3-.05,1.92-35.36"/><circle class="cls-3" cx="351.85" cy="352.36" r="21.21" transform="translate(-143.29 405.24) rotate(-51.14)"/><polyline class="cls-5" points="377.5 251.98 332.72 343.17 369.86 363.56 399.32 316.51"/><path class="cls-5" d="M423.29,278.2l-25,39.94L355.9,295.91l21.31-43.35a26.4,26.4,0,0,1,39.88-9.22h0A26.41,26.41,0,0,1,423.29,278.2Z"/><circle class="cls-5" cx="351.79" cy="352.46" r="21.21" transform="translate(-132 470.51) rotate(-58.77)"/><path class="cls-5" d="M299.81,439.69l16.08-2.06.2,8.6a27.18,27.18,0,0,1-.79,7.13l-6.45,25.86-.91-.07a2.91,2.91,0,0,1-2.7-3l.3-8.15a2.21,2.21,0,0,0-3-2.14h0a2.21,2.21,0,0,0-1.11,1l-13.54,23.58a1.81,1.81,0,0,1-2.27.73h0a1.81,1.81,0,0,1-1-2.28l14.45-36.48"/><path class="cls-5" d="M295.9,464.58l-16.57,25.61a1.81,1.81,0,0,1-2.29.65h0a1.82,1.82,0,0,1-.91-2.32L293.6,452.2"/><path class="cls-5" d="M289.44,464.31l-16.2,20a1.81,1.81,0,0,1-2.37.26h0a1.82,1.82,0,0,1-.51-2.44l21.4-34.83"/><path class="cls-5" d="M290,454.82,273.15,473a1.53,1.53,0,0,1-2,.23h0a1.54,1.54,0,0,1-.44-2.06l15.18-24.82"/><polygon class="cls-5" points="285.36 449.99 332.43 343.81 368.7 365.24 307.42 458.51 285.36 449.99"/><polyline class="cls-5" points="279.25 457.19 291.84 436.62 307.68 424.42"/><polygon class="cls-5" points="295.61 435.13 307.47 439.1 295.75 466.98 278.27 459.48 295.61 435.13"/><path class="cls-3" d="M514.83,259.41a31.2,31.2,0,0,0-3.65-9.41l-3-5.05-14.91-39.87-19.17,8.57,20.45,37,2.13,9.11a14.43,14.43,0,0,0,2.75,5.71l6.38,8.06.65-.34a2.34,2.34,0,0,0,1.08-3L503.91,262a2,2,0,0,1,3.62-1.67l8.37,17.26a2.19,2.19,0,0,0,2.67,1.12l.28-.09Z"/><polyline class="cls-3" points="451.52 168.68 474.14 213.65 493.31 205.08 483.53 179.37"/><path class="cls-4" d="M475.57,158.44l8,20.93-21.14,10.91h0L451.66,169A13.08,13.08,0,0,1,460,150.46h0A13.07,13.07,0,0,1,475.57,158.44Z"/><circle class="cls-3" cx="483.52" cy="208.89" r="10.51" transform="translate(-42.95 192.92) rotate(-21.63)"/><path class="cls-6" d="M562.23,484.84l-1.74,30.49-1.2.5a2.08,2.08,0,0,1-2.87-1.84l-2.85-28.09"/><path class="cls-6" d="M555.7,484l-5,26.12-1.55.37a2.07,2.07,0,0,1-2.58-2.22l1.6-18.44"/><path class="cls-2" d="M567.45,509.44,551.29,503l-1.68,1.49a1.72,1.72,0,0,0,.24,2.81l.54.45-1.32.94a1.72,1.72,0,0,0,.25,2.81l1.49,1-1,1a1.72,1.72,0,0,0,.24,2.81l1,.72L550,518a1.72,1.72,0,0,0,.24,2.81l12.07,6.84Z"/><polygon class="cls-2" points="553.09 518.06 550.58 519.39 553.09 518.34 553.09 518.06"/><polyline class="cls-3" points="608.49 630.82 574.14 588.91 590.95 573.8 611.97 594.65"/><polygon class="cls-4" points="646.11 628.53 611.97 594.65 592.23 611.27 623.88 649.59 646.11 628.53"/><circle class="cls-3" cx="582.92" cy="581.77" r="11.31" transform="translate(-240.61 574.27) rotate(-44.42)"/><polygon class="cls-7" points="478.14 214.02 407.43 214.02 393.26 313.16 438.79 313.16 446.76 313.16 492.29 313.16 478.14 214.02"/><polygon class="cls-8" points="463.84 237.44 463.81 224.74 420.61 224.74 423.71 237.44 463.84 237.44"/><polygon class="cls-4" points="478.14 214.02 407.43 214.02 421.01 150.01 463.67 150.01 478.14 214.02"/><rect class="cls-3" x="71.16" y="872.79" width="681.07" height="1"/><polyline class="cls-5" points="471.18 272.22 505.02 368.63 545.83 356.37 532.85 302.07"/><path class="cls-9" d="M522.27,257.93A26.55,26.55,0,0,0,492.9,237.8h0a26.55,26.55,0,0,0-21.51,35.1l14.13,40.26,49.94-.16Z"/><path class="cls-9" d="M522.27,257.93A26.55,26.55,0,0,0,492.9,237.8h0a26.55,26.55,0,0,0-21.51,35.1l14.13,40.26,49.94-.16Z"/><polyline class="cls-5" points="548.33 473.44 505.95 370.49 546.16 357.16 568.27 472.62"/><circle class="cls-5" cx="525.26" cy="361.42" r="21.33" transform="translate(-106.26 273.66) rotate(-26.62)"/><path class="cls-6" d="M485.55,313.16,505,368.63l.15-.05a18.55,18.55,0,0,0,.79,1.9h0l2.55,6.21a289.47,289.47,0,0,0-2.92-63.61Z"/><path class="cls-6" d="M497,272.22,481.07,277l-8.41-.56,12.89,36.71,20-.07C502.61,294.43,498.58,281.12,497,272.22Z"/><path class="cls-10" d="M497.64,286l-16.57-9-8.41-.56,12.89,36.71,16.76-.05C500.51,301.85,498.74,292.25,497.64,286Z"/><path class="cls-10" d="M497,272.22l-14.12,4.24,12.88,36.7,9.83,0C502.62,294.45,498.58,281.13,497,272.22Z"/><circle class="cls-7" cx="386.51" cy="589.75" r="29.54"/><polyline class="cls-7" points="356.97 587.02 356.97 589.77 379.08 422.29 452.56 422.35 415.6 594.95 356.97 589.77"/><path class="cls-9" d="M423.25,277.86l-19.94,35.82L347.54,313l8.18-16.87,21-43.65a26.55,26.55,0,0,1,40-9.62h0A26.54,26.54,0,0,1,423.25,277.86Z"/><polygon class="cls-10" points="385.7 313.46 403.31 313.68 412.58 297.03 398.25 272.22 385.7 313.46"/><polygon class="cls-6" points="385.7 313.46 373.02 358.53 403.31 313.68 385.7 313.46"/><rect class="cls-5" x="468.31" y="803.24" width="35.23" height="69.56"/><circle class="cls-7" cx="474.42" cy="589.75" r="29.54"/><polyline class="cls-7" points="503.96 587.02 503.96 589.77 503.96 422.29 430.42 419.63 445.33 594.95 503.96 589.77"/><path class="cls-10" d="M489.58,853.16h0a21,21,0,0,1-15.82.15l-5.49-2.17,0,22.19H542v0a10.09,10.09,0,0,0-6.5-9.48l-20.46-9.87a26.48,26.48,0,0,1-9.82-8.15l-1.72-2.34h0a5.69,5.69,0,0,0-4.28,1.93l-1.93,2.21A21,21,0,0,1,489.58,853.16Z"/><polygon class="cls-7" points="503.96 589.77 503.52 821.58 446.31 821.58 445.33 594.95 503.96 589.77"/><polygon class="cls-9" points="495.39 237.43 402.93 237.43 379.08 422.29 503.96 422.35 503.96 422.35 495.39 237.43"/><rect class="cls-5" x="422.94" y="162.63" width="37.39" height="47.84" rx="18.7" transform="translate(765.95 539.63) rotate(-155.47)"/><path class="cls-5" d="M422.08,184.44l-3.64-2.57s6.3-3.33,8.36-7.83Z"/><path class="cls-5" d="M425.78,204.05h0l30.07-3.62a29.62,29.62,0,0,0-.28,24l6,13-1.3,1.56a21.13,21.13,0,0,1-34.07-1.56h0s10.51-10.65,4.9-25.45A21.78,21.78,0,0,0,425.78,204.05Z"/><polygon class="cls-6" points="468.28 830.21 468.28 821.58 503.36 821.58 468.28 830.21"/><polygon class="cls-5" points="316.53 872.8 351.76 872.8 361.81 803.24 326.58 803.24 316.53 872.8"/><path class="cls-10" d="M334.73,853.16h0a21,21,0,0,0,15.82.15l4.38-2.17-3.16,22.19h-69.5v0a10.09,10.09,0,0,1,6.5-9.48l20.46-9.87a26.48,26.48,0,0,0,9.82-8.15l1.72-2.34h0a5.69,5.69,0,0,1,4.28,1.93l1.93,2.21A21,21,0,0,0,334.73,853.16Z"/><polygon class="cls-7" points="356.97 589.77 323.92 821.58 381.13 821.58 415.6 594.95 356.97 589.77"/><polygon class="cls-6" points="357.97 830.07 359.16 821.58 324.08 821.58 357.97 830.07"/><polygon class="cls-8" points="436.88 495.59 453.66 468.18 445.33 594.95 436.88 495.59"/><path class="cls-10" d="M461.26,168.59a12.86,12.86,0,0,0-9.05-9.56c-8-2.51-18.67,1.64-21.78,9.67l16.72,4.49c-3.89,5.2-.14,11.1-.14,11.1,1.89,2.48,6.91,21.94,6.91,21.94s8.2-13.53,10.9-24.81C465,180.81,466.52,172.3,461.26,168.59Z"/><circle class="cls-10" cx="432.03" cy="162.38" r="6.47"/><circle class="cls-5" cx="449.16" cy="188.5" r="4.99"/><path class="cls-2" d="M727.22,719.23l6.09,15.19-.54.58a1.26,1.26,0,0,1-2.06-.26l-7.55-15.06"/><path class="cls-2" d="M728.16,722.82l3.76,15.92-.61.51a1.27,1.27,0,0,1-2-.58l-6-17.78"/><path class="cls-3" d="M705.66,668.71l18.71,43,.27.62,2,4.67a27.06,27.06,0,0,1,2,8.49l1.27,16.9-.26,0a1.89,1.89,0,0,1-2.16-1.27l-5.22-15.77a1.72,1.72,0,0,0-2.16-1.1h0A1.73,1.73,0,0,0,719,726.4l2.2,7.49a2,2,0,0,1-1.26,2.49l-.61.21-4.55-7.65a12.53,12.53,0,0,1-1.71-5.21l-.92-8.63-26.73-36.75"/><polyline class="cls-3" points="658.6 630.12 684.85 677.52 705.1 667.49 693.49 640.25"/><polygon class="cls-2" points="673.66 626.82 685.42 678.35 652.75 655.38 673.66 626.82"/><path class="cls-4" d="M684,618.08l9.45,22.17-22.28,12.64h0l-12.44-22.47a14.07,14.07,0,0,1,8.12-20.26h0A14.09,14.09,0,0,1,684,618.08Z"/><polygon class="cls-10" points="673.66 626.82 664.04 639.95 671.21 652.89 671.21 652.89 678.64 648.67 673.66 626.82"/><circle class="cls-3" cx="694.73" cy="672.01" r="11.31" transform="matrix(0.91, -0.41, 0.41, 0.91, -212.67, 339.03)"/><path class="cls-3" d="M476.94,214.2h0a12.86,12.86,0,0,1,12.86,12.86V302.9a0,0,0,0,1,0,0H464.08a0,0,0,0,1,0,0V227.06a12.86,12.86,0,0,1,12.86-12.86Z"/><path class="cls-4" d="M507,306.1l-17.24-9h0a14.5,14.5,0,0,1-3.51,1.78c-10.79,3.56-22.21-2.82-22.21-2.82l0,17.35,47.66-.32V313A7.36,7.36,0,0,0,507,306.1Z"/><path class="cls-7" d="M464,280.68h29.25L490.07,226A13.15,13.15,0,0,0,477,214h0a13.15,13.15,0,0,0-13.15,13.29Z"/><path class="cls-7" d="M409.16,289l27.42-7.78-16.35-57.76a12.86,12.86,0,0,0-15.84-8.93h0a12.85,12.85,0,0,0-8.93,15.84Z"/><polygon class="cls-3" points="436.58 281.2 414.26 287.53 423.06 314.28 442.15 300.88 436.58 281.2"/><polygon class="cls-2" points="489.82 280.65 464.01 280.68 464.09 286.03 489.82 280.65"/><polygon class="cls-2" points="414.26 287.53 436.58 281.2 438.05 286.37 414.26 287.53"/><path class="cls-5" d="M569.63,480.4l-1.36-7.78-19.94.82L546.72,486a19.47,19.47,0,0,0,.78,8.51l4.25,13.21,1-.12a3.16,3.16,0,0,0,2.79-3.33l-.73-12a2.8,2.8,0,0,1,2.19-3,2.68,2.68,0,0,1,3.16,2.39h0a28.24,28.24,0,0,1-.06,5.74l-2,17.79a3,3,0,0,0,2.23,3.2l.39.1L568,498.72a33.68,33.68,0,0,0,2.08-14.54C570,482.92,569.85,481.66,569.63,480.4Z"/><path class="cls-3" d="M571.87,584.11l20.36-7.23-19.4-49-1.54-10a15.58,15.58,0,0,0-2.49-6.36l-6.18-9.19-.73.31a2.52,2.52,0,0,0-1.4,3.17l3.25,9.17h0a17.29,17.29,0,0,0-5.67,17.8Z"/><polygon class="cls-3" points="621.31 872.79 640.03 872.79 640.03 694.2 604.31 734.2 621.31 872.79"/><polygon class="cls-4" points="618.46 609.52 608.64 683.23 681.17 683.23 671.35 609.52 618.46 609.52"/><rect class="cls-3" x="628.07" y="556.38" width="33.48" height="42.84" rx="16.74" transform="translate(991.52 1371.15) rotate(-155.47)"/><path class="cls-3" d="M656.61,609.66l-5.3,5.55a6.69,6.69,0,0,1-10-.36l-4.47-5.41a21.54,21.54,0,0,0-1.33-8.6,19.67,19.67,0,0,0-4.89-7.38h0l26.93-3.24C651.47,599.11,656.53,609.44,656.61,609.66Z"/><path class="cls-10" d="M666,571.91c39.74-19.07,46-5.21,43,4.38C704.63,590.22,666,571.91,666,571.91Z"/><circle class="cls-4" cx="669.47" cy="571.41" r="3.86"/><path class="cls-10" d="M662.66,558.21a18.77,18.77,0,0,0-13.77-4.32,20.35,20.35,0,0,0-4,.8l-8.48,5.68c1,1.72,5.74,10.34,7.78,14.69a5.82,5.82,0,0,0,3.8,3.15h0a3.33,3.33,0,0,1,1.52-2.32,6.08,6.08,0,0,1,2.31-.85l1.1.24-2.75,8.5c-3.91,7.13,1.93,13.09,4.48,15,2.23-9.14,12.17-13.89,14.08-23.11.07-.36.13-.72.19-1.08A18.06,18.06,0,0,0,662.66,558.21Z"/><circle class="cls-3" cx="651.54" cy="579.54" r="4.47"/><path class="cls-10" d="M640.05,858.14l0,15.07H589.81a6.54,6.54,0,0,1,4.21-6.14l25.61-8.93,1.92.7c5.23,1.9,13.46,1.64,18.5-.7Z"/><path class="cls-4" d="M610.4,863.28l-.17-.36a9.67,9.67,0,0,0-.61-1.13,11.93,11.93,0,0,1-5.38,0,11.57,11.57,0,0,1-4.83-2.31,2.8,2.8,0,0,1-1-2.85,2.51,2.51,0,0,1,2.24-1.66c3-.42,6.19,1.73,8.37,4.28a20,20,0,0,1-.63-4.85c0-2.76,1.24-4.41,3.33-4.52a3,3,0,0,1,2.33.9,4.81,4.81,0,0,1,1.32,3.5,7.54,7.54,0,0,1-2.78,6.13,7.39,7.39,0,0,1-1.86,1c.14.36.28.71.43,1.06.06.12.11.24.16.37Zm-9-7.36a4.21,4.21,0,0,0-.62.05,1.56,1.56,0,0,0-1.42,1,1.82,1.82,0,0,0,.72,1.82,10.53,10.53,0,0,0,4.4,2.08,11.18,11.18,0,0,0,4.54.06C607.17,858.33,604.19,855.92,601.4,855.92Zm10.48-5h-.12c-2,.11-2.37,2.26-2.38,3.53a20.35,20.35,0,0,0,1,6.08,6.36,6.36,0,0,0,1.59-.88,6.6,6.6,0,0,0,2.38-5.36,3.84,3.84,0,0,0-1-2.76A2,2,0,0,0,611.88,850.88Z"/><polygon class="cls-3" points="672.85 872.79 654.14 872.79 654.14 694.2 689.86 734.2 672.85 872.79"/><path class="cls-10" d="M654.12,858.14l0,15.07h50.22a6.55,6.55,0,0,0-4.21-6.14l-25.61-8.93-1.92.7c-5.23,1.9-13.46,1.64-18.5-.7Z"/><path class="cls-4" d="M683.77,863.28l-.92-.4c0-.12.11-.25.17-.37.15-.35.29-.7.42-1.06a7.15,7.15,0,0,1-4.64-7.16,4.85,4.85,0,0,1,1.32-3.5,3.06,3.06,0,0,1,2.33-.9c2.09.11,3.31,1.76,3.33,4.52a19.91,19.91,0,0,1-.62,4.85c2.18-2.55,5.33-4.7,8.37-4.28a2.5,2.5,0,0,1,2.23,1.66,2.79,2.79,0,0,1-1,2.85,11.41,11.41,0,0,1-4.82,2.31,12,12,0,0,1-5.39,0,11.44,11.44,0,0,0-.61,1.13Zm1.37-2.39a11.23,11.23,0,0,0,4.55-.06,10.59,10.59,0,0,0,4.4-2.08,1.86,1.86,0,0,0,.72-1.82,1.58,1.58,0,0,0-1.42-1C690.42,855.56,687.14,858.14,685.14,860.89Zm-2.86-10a2,2,0,0,0-1.46.62,3.84,3.84,0,0,0-1,2.76,6.58,6.58,0,0,0,2.39,5.36,6.13,6.13,0,0,0,1.58.88,20,20,0,0,0,1-6.08c0-1.27-.34-3.42-2.38-3.53Z"/><polygon class="cls-9" points="679.43 670.16 610.38 670.16 608.64 683.23 681.17 683.23 679.43 670.16"/><polygon class="cls-4" points="663.24 624.29 683 624.29 671.35 609.55 663.24 609.55 663.24 624.29"/><circle class="cls-10" cx="640.93" cy="557.4" r="5.42"/><path class="cls-4" d="M647.81,569.73a1.74,1.74,0,0,0-3.47,0c0,1,.78,3.32,1.73,3.32S647.81,570.69,647.81,569.73Z"/><path class="cls-4" d="M644.34,578.4a1.74,1.74,0,0,0,3.47,0c0-.95-.78-3.31-1.74-3.31S644.34,577.45,644.34,578.4Z"/><path class="cls-4" d="M650.36,572.23a1.73,1.73,0,0,0-2.45-2.45c-.67.68-1.79,2.89-1.11,3.57S649.69,572.9,650.36,572.23Z"/><path class="cls-4" d="M641.78,575.91a1.73,1.73,0,0,0,2.45,2.45c.68-.68,1.8-2.89,1.12-3.57S642.46,575.23,641.78,575.91Z"/><path class="cls-4" d="M650.41,575.8a1.73,1.73,0,0,0,0-3.46c-1,0-3.32.77-3.32,1.73S649.45,575.8,650.41,575.8Z"/><path class="cls-4" d="M641.74,572.34a1.73,1.73,0,0,0,0,3.46c1,0,3.31-.77,3.31-1.73S642.7,572.34,641.74,572.34Z"/><path class="cls-4" d="M647.91,578.36a1.74,1.74,0,0,0,2.45,0,1.73,1.73,0,0,0,0-2.45c-.67-.68-2.89-1.8-3.56-1.12S647.24,577.68,647.91,578.36Z"/><path class="cls-4" d="M644.23,569.78a1.73,1.73,0,0,0-2.45,0,1.74,1.74,0,0,0,0,2.45c.68.67,2.9,1.79,3.57,1.12S644.91,570.46,644.23,569.78Z"/><circle class="cls-11" cx="646.07" cy="574.08" r="2.19"/><path class="cls-6" d="M580.67,768.32a131.82,131.82,0,0,0,60.26,17.14H651.3a131.85,131.85,0,0,0,58.22-16l-28.35-86.23H608.64Z"/><circle class="cls-10" cx="174.43" cy="442.46" r="29.89"/><polyline class="cls-3" points="120.37 624.84 147.51 544.3 116.21 536.16 105.14 625.21"/><circle class="cls-3" cx="132.32" cy="538.45" r="16.29" transform="translate(-421.97 524.63) rotate(-74.77)"/><circle class="cls-3" cx="132.22" cy="538.44" r="16.34" transform="translate(-421.95 521.17) rotate(-74.42)"/><path class="cls-4" d="M158,443.92h0a20.33,20.33,0,0,0-27.56,14.65l0,0-.09.5h0l-6.76,36.48h0l-7.41,40,31.79,7.41,12.08-41,9.81-33.4A20.32,20.32,0,0,0,158,443.92Z"/><rect class="cls-3" x="208.05" y="820.32" width="26.5" height="52.32"/><circle class="cls-9" cx="212.64" cy="667.39" r="22.22"/><polygon class="cls-9" points="234.8 569.08 234.53 841.32 207.94 841.32 190.76 671.3 234.8 569.08"/><polyline class="cls-9" points="234.86 665.34 234.86 667.41 234.8 569.08 181.65 568.95 190.76 671.3 234.86 667.41"/><polygon class="cls-10" points="185.56 613.29 194.88 608.02 207.94 841.32 192.71 690.89 185.56 613.29"/><path class="cls-10" d="M224.05,857.86h0a15.79,15.79,0,0,1-11.91.11L208,856.34l0,16.69H263.5v0a7.6,7.6,0,0,0-4.89-7.13l-15.39-7.42a20,20,0,0,1-7.38-6.13l-1.3-1.76h0a4.24,4.24,0,0,0-3.21,1.45l-1.46,1.66A15.73,15.73,0,0,1,224.05,857.86Z"/><rect class="cls-3" x="142.22" y="820.32" width="26.5" height="52.32" transform="translate(310.94 1692.95) rotate(-180)"/><circle class="cls-7" cx="163.74" cy="667.34" r="22.17"/><polyline class="cls-9" points="141.57 665.34 141.57 667.41 141.46 569.08 192.59 569.08 185.89 668.84 141.57 667.41"/><path class="cls-10" d="M152.72,857.86h0a15.76,15.76,0,0,0,11.9.11l4.13-1.63,0,16.69H113.26v0a7.61,7.61,0,0,1,4.89-7.13l15.39-7.42a20,20,0,0,0,7.39-6.13l1.29-1.76h0a4.27,4.27,0,0,1,3.22,1.45l1.45,1.66A15.77,15.77,0,0,0,152.72,857.86Z"/><polygon class="cls-9" points="141.52 569.08 142.24 841.32 168.75 841.32 185.56 671.3 141.52 569.08"/><circle class="cls-10" cx="197.44" cy="442.46" r="18.21"/><polyline class="cls-3" points="293.88 610.93 244.69 541.25 272.45 524.45 308.63 606.93"/><circle class="cls-3" cx="257.57" cy="531.2" r="16.34" transform="translate(-278.89 284.78) rotate(-39.46)"/><circle class="cls-3" cx="257.34" cy="531.13" r="16.34" transform="translate(-235.33 206.17) rotate(-30.74)"/><path class="cls-4" d="M254.49,487.44h0L238.42,454h0l-.21-.45v0a20.34,20.34,0,1,0-35.45,19.87L221,503.12l22.38,36.44L272.1,524.1Z"/><path class="cls-4" d="M172,442.46h32.22a25.7,25.7,0,0,1,25.68,24.48l4.88,102.14H141.47l4.87-102.14A25.72,25.72,0,0,1,172,442.46Z"/><rect class="cls-4" x="150.68" y="442.46" width="70.29" height="29.1"/><rect class="cls-3" x="167.54" y="375.5" width="37.77" height="48.33" rx="18.89" transform="translate(-149.11 113.48) rotate(-24.53)"/><path class="cls-3" d="M196.82,442.32a24.08,24.08,0,0,1,.21-17,21.84,21.84,0,0,1,5.4-8h0l-30.38-3.66a29.93,29.93,0,0,1,.29,24.21l-2.18,4.7h0a14.3,14.3,0,0,0,26,1Z"/><polygon class="cls-2" points="142.24 841.32 168.59 846.76 168.75 841.32 142.24 841.32"/><polygon class="cls-2" points="234.49 841.32 208.06 846.81 207.97 841.32 234.49 841.32"/><circle class="cls-3" cx="178.82" cy="401.63" r="5.04"/><path class="cls-3" d="M188.63,427.36A22.93,22.93,0,0,1,167.8,414l-4.39-9.6a22.89,22.89,0,1,1,41.64-19l4.39,9.61a22.89,22.89,0,0,1-20.81,32.39Z"/><path class="cls-10" d="M178.08,405.15c-1.38-4,2.2-15.68,4.68-17.57L203,381.72A23,23,0,0,0,184.22,372a22.68,22.68,0,0,0-9,1.87c-11.81,5.09-16.87,19.38-11.53,31.08L167.8,414a22.66,22.66,0,0,0,6.06,8C175.91,414.22,178.27,405.72,178.08,405.15Z"/><path class="cls-10" d="M178.08,405.15h0a26.39,26.39,0,0,1-2,30.05l-5.9,7.39L167.8,414Z"/><circle class="cls-7" cx="182.08" cy="397.75" r="13.13"/><path class="cls-7" d="M173.28,369.47H178a4.17,4.17,0,0,1,4.17,4.17v31.43a0,0,0,0,1,0,0h-13a0,0,0,0,1,0,0V373.64A4.17,4.17,0,0,1,173.28,369.47Z" transform="translate(-176.95 149.54) rotate(-31.61)"/><circle class="cls-8" cx="182.08" cy="397.75" r="7.36"/><polygon class="cls-9" points="230.73 483.92 243.35 539.56 232.55 521.98 230.73 483.92"/><path class="cls-3" d="M293.18,600.21l3.09-10.51,5.39,2.21a18.12,18.12,0,0,1,4.2,2.42l14.28,11-.3.54a2,2,0,0,1-2.57.87l-5-2.4a1.49,1.49,0,0,0-2.14,1.29h0a1.49,1.49,0,0,0,.29,1l10.93,14.79a1.22,1.22,0,0,1-.16,1.61h0a1.24,1.24,0,0,1-1.69,0l-18.68-18.86"/><path class="cls-3" d="M307.54,609.39l11.38,17.23a1.22,1.22,0,0,1-.23,1.59h0a1.22,1.22,0,0,1-1.68-.07l-17.76-20.68"/><path class="cls-3" d="M305.63,613.33l8,15.46a1.23,1.23,0,0,1-.48,1.54h0a1.22,1.22,0,0,1-1.65-.35l-15.77-22.72"/><path class="cls-3" d="M299.91,610.38l6.69,15.4a1,1,0,0,1-.41,1.3h0a1,1,0,0,1-1.4-.29l-11.25-16.14"/><polyline class="cls-3" points="316.59 619.69 308.07 605.77 297.36 597.52"/><polygon class="cls-3" points="289.22 601.59 294.9 595.31 308.99 610.14 299.6 618.93 289.22 601.59"/><polygon class="cls-9" points="144.87 473.95 142.82 541.84 135.11 539.9 144.87 473.95"/><rect class="cls-3" x="427.07" y="92.08" width="34.49" height="44.13" rx="17.25" transform="translate(-7.29 194.78) rotate(-24.53)"/><path class="cls-3" d="M462.36,112.2l3.35-2.38s-5.81-3.07-7.7-7.22Z"/><path class="cls-3" d="M453,150.05a22,22,0,0,1,.95-12.17,20.1,20.1,0,0,1,5-7.59h0L431.2,127a27.34,27.34,0,0,1,.27,22.1l-.54,1,19.5,7a2.93,2.93,0,0,0,3.73-3.79Z"/><path class="cls-10" d="M463.52,88.8a3.15,3.15,0,0,0-1.79-2.2c-1.23-.47-2.59.1-3.78.66l-5.57,2.62a21.46,21.46,0,0,0-21.85,1.91,14.25,14.25,0,0,0-4.64,6.5l-.64.15a7,7,0,0,0-3.11,1.56,6.33,6.33,0,0,0-1.7,3.69,10.78,10.78,0,0,0,.17,4.31c2.47,8.57,13.17,27.53,13.17,27.53a5.88,5.88,0,0,0,3.86-5.26L438.7,106c19.87,0,23.95-10.17,24.78-14.3A6.55,6.55,0,0,0,463.52,88.8Z"/><circle class="cls-3" cx="437.38" cy="115.94" r="4.6"/><path class="cls-4" d="M416.6,330.54,422.42,312h0a13.92,13.92,0,0,0,3.74-1.23c10.16-5.11,13.78-17.69,13.78-17.69l11.9,12-33.71,33.7h0A7.37,7.37,0,0,1,416.6,330.54Z"/><path class="cls-3" d="M209.66,395.72l3.7-2.62s-6.41-3.39-8.5-8Z"/><path class="cls-3" d="M628.79,573.29l-3.36-2.38s5.81-3.07,7.71-7.22Z"/></g></g></svg>