<svg xmlns="http://www.w3.org/2000/svg" viewBox="0 0 901.4 878.71"><defs><style>.cls-1{fill:#faf8fa;}.cls-2{fill:#809ce6;}.cls-3{fill:#bbc6ee;}.cls-4{fill:#59337e;}.cls-5{fill:#9b46c3;}.cls-6{fill:#2b52a0;}.cls-7{fill:#d66be8;}.cls-8{fill:#f0cef2;}.cls-9{fill:#567ad0;}.cls-10{fill:#e8aaee;}</style></defs><g id="Layer_2" data-name="Layer 2"><g id="ARTWORK"><path class="cls-1" d="M760.12,854.88c186.45-3.93,186-235.64,0-240C573.66,618.81,574.13,850.51,760.12,854.88Z"/><path class="cls-1" d="M185.11,852c247.12-6.13,246.5-368.14,0-375C-62,483.19-61.39,845.19,185.11,852Z"/><path class="cls-1" d="M834.41,270C803,151.6,695.53,115.08,584.71,115.72A78.4,78.4,0,0,1,551,108.58c-45.44-21.3-52.74-78.21-104.06-96.38-2.4-.85-4.79-1.76-7.11-2.82C395.69-10.84,338.39,3.09,304.66,37.11c-42.89,43.41-42,107.57-36.54,164.5,9.29,104.64,55.41,208.28,137.18,276C462,529,538,554.26,614.08,549.68c46.62-2.87,95.23-7.81,135.72-33.08C833.79,468.14,853.29,358.67,834.41,270Z"/><path class="cls-2" d="M873.75,415.17,896.63,431a3.4,3.4,0,0,0,4.46-.52l.31-.34-35.49-39.5"/><path class="cls-3" d="M866.35,391.13l23.87,47.44-.39.25a3.41,3.41,0,0,1-4.44-.67l-17.75-20.88c-1.36-1.76-2.86-2.32-4-1.71h0a3.08,3.08,0,0,0-1.27,4.12l6.39,12.46a3.62,3.62,0,0,1-1.39,4.79l-1,.58-10.59-11.94a22.54,22.54,0,0,1-4.76-8.6l-3.93-14.15,19.87-11,31,44.72-.35.3a3.41,3.41,0,0,1-4.49,0l-20.76-18.5"/><path class="cls-4" d="M521.77,176.21l-37,0,11.55-23.64a18.33,18.33,0,0,0-15.58-26.36h0l-6.54-6.51,9.94-8.48A26.69,26.69,0,0,1,525.6,120h0a23.23,23.23,0,0,1,.18,19.5l-4.58,10.15a30.83,30.83,0,0,0,.57,26.53Z"/><path class="cls-5" d="M477,129.59l-6-7.36,3-2.48a2.48,2.48,0,0,1,3.36.2l3.07,3.18a2.48,2.48,0,0,1-.16,3.6Z"/><path class="cls-3" d="M136.16,427.91l14.33-5.28,2,7.86a25.29,25.29,0,0,1,.78,6.71l-.47,25.12-.85.13a2.74,2.74,0,0,1-3.1-2.16l-1.45-7.55a2.09,2.09,0,0,0-3.22-1.34h0a2.09,2.09,0,0,0-.82,1.12L135.89,477a1.72,1.72,0,0,1-1.93,1.15h0a1.71,1.71,0,0,1-1.39-1.89l5.57-36.56"/><path class="cls-3" d="M137.82,451.59l-9.83,27a1.71,1.71,0,0,1-2,1.08h0a1.72,1.72,0,0,1-1.32-1.94l8.39-37"/><path class="cls-3" d="M131.82,452.72,121.16,474.5a1.7,1.7,0,0,1-2.12.73h0a1.72,1.72,0,0,1-1-2.13l12.32-36.51"/><path class="cls-3" d="M130.36,443.87,118.7,464.14a1.45,1.45,0,0,1-1.8.63h0a1.43,1.43,0,0,1-.83-1.8l8.71-26"/><polyline class="cls-3" points="120.96 448.32 128.19 426.77 140.16 412.22"/><polygon class="cls-3" points="131.33 424.61 143.07 425.75 138.18 453.83 120.55 450.63 131.33 424.61"/><polygon class="cls-6" points="294.48 96.19 297.05 155.64 233.98 175.47 294.48 96.19"/><path class="cls-6" d="M284.33,68.75a26.16,26.16,0,0,1,3.95,7.12l3.55,9.63,1,2.72A26.63,26.63,0,0,1,267.88,124a26.67,26.67,0,0,1-18.81-7.82V66.82Z"/><path class="cls-3" d="M280.23,117.69l3.62-3-37.42-7.4c3.63,9.87,5.67,22.95.82,32.28l-8.06,15.93s23.19,11.39,40.77-.94C280,154.58,267.91,135.68,280.23,117.69Z"/><polyline class="cls-3" points="463.3 295.86 337.45 321.53 331.08 273.07 466.71 273.09"/><circle class="cls-3" cx="331.37" cy="297.68" r="24.61" transform="translate(-68.43 101.26) rotate(-15.77)"/><polyline class="cls-3" points="502.83 299.43 492.09 304.34 488.59 301.17"/><polyline class="cls-3" points="327.01 176.99 355.6 291.35 308.49 305.43 286.54 244.88"/><path class="cls-7" d="M268.68,195.58l18.55,50.21,53.58-13.7-13.62-54.37a30.63,30.63,0,0,0-43-20.18h0A30.63,30.63,0,0,0,268.68,195.58Z"/><circle class="cls-3" cx="331.7" cy="297.24" r="24.61" transform="translate(-79.05 125.02) rotate(-19.12)"/><polyline class="cls-3" points="151.09 427.94 200.25 309.27 153.89 293.79 128.09 426.95"/><circle class="cls-3" cx="177.99" cy="298.77" r="24.61" transform="translate(-168.91 323.27) rotate(-63.25)"/><polyline class="cls-3" points="182.65 178.64 154.06 293 201.17 307.09 223.12 246.54"/><path class="cls-7" d="M241,197.23l-18.65,51.4-53.48-14.89,13.61-54.37a30.63,30.63,0,0,1,43-20.17h0A30.62,30.62,0,0,1,241,197.23Z"/><circle class="cls-3" cx="177.96" cy="298.9" r="24.61" transform="translate(-162.73 369.16) rotate(-70.88)"/><circle class="cls-8" cx="207.28" cy="567.91" r="31.96"/><polygon class="cls-7" points="261.06 380.47 238.75 573.53 175.31 567.93 174.87 373.31 261.06 380.47"/><circle class="cls-8" cx="293.91" cy="567.91" r="31.96"/><polygon class="cls-7" points="240.13 380.47 262.44 573.53 325.87 567.93 326.13 375.5 240.13 380.47"/><polygon class="cls-7" points="216 156.09 177.21 358.63 317.5 359 296.83 154.53 216 156.09"/><path class="cls-4" d="M104.68,738.49h0a519.81,519.81,0,0,1,164-10.44l115.69,11.06S287.57,767.1,104.68,738.49Z"/><polygon class="cls-3" points="175.89 878.11 216.54 877.18 216.54 604.11 175.89 604.11 175.89 878.11"/><polygon class="cls-3" points="325.3 878.11 284.65 877.09 284.65 576.12 325.3 576.12 325.3 878.11"/><path class="cls-6" d="M139,867.46l36.93-15.91,5.38,3.16a28.86,28.86,0,0,0,28,.67l7.32-3.83-.05,26.28-85.07.57h0A11.67,11.67,0,0,1,139,867.46Z"/><path class="cls-6" d="M321.48,850.38l3.86-1.58v21H284.67v-21l3.84,1.57A43.65,43.65,0,0,0,321.48,850.38Z"/><path class="cls-9" d="M163.37,860.55c-.1-.21-.19-.43-.29-.64a21.3,21.3,0,0,0-1.27-2.3,21,21,0,0,1-9.67.09,20.22,20.22,0,0,1-8.43-4A4.65,4.65,0,0,1,142,849a4.11,4.11,0,0,1,3.67-2.68c5.84-.8,11.93,3.87,15.71,8.94a37,37,0,0,1-1.58-10.34c0-4.68,2.07-7.48,5.56-7.66a5,5,0,0,1,3.85,1.48,8.18,8.18,0,0,1,2.24,5.95c-.13,4.73-1.75,8.3-4.79,10.62a13.12,13.12,0,0,1-3.59,1.92c.28.77.58,1.54.9,2.27.11.22.21.44.3.65ZM147,847.22a9,9,0,0,0-1.16.08,3.16,3.16,0,0,0-2.84,2,3.64,3.64,0,0,0,1.4,3.64,19.08,19.08,0,0,0,8,3.8,20.43,20.43,0,0,0,8.84,0C157.88,851.88,152.26,847.22,147,847.22Zm18.68-9h-.23c-4,.21-4.59,4.27-4.61,6.67a36.66,36.66,0,0,0,1.94,11.34,12,12,0,0,0,3.31-1.75c2.8-2.13,4.28-5.45,4.4-9.85a7.1,7.1,0,0,0-1.94-5.21A4.06,4.06,0,0,0,165.66,838.24Z"/><path class="cls-9" d="M305.93,867.55c0-.23,0-.46-.05-.7a21.72,21.72,0,0,0-.42-2.59,21,21,0,0,1-9.13-3.19,20.23,20.23,0,0,1-6.57-6.64,4.64,4.64,0,0,1,0-5,4.14,4.14,0,0,1,4.36-1.29c5.77,1.23,9.91,7.69,11.75,13.74a36.49,36.49,0,0,1,2-10.26c1.62-4.39,4.47-6.34,7.82-5.33a5,5,0,0,1,3.13,2.7,8.23,8.23,0,0,1,.09,6.36c-1.73,4.4-4.46,7.22-8.11,8.37a13.54,13.54,0,0,1-4,.59c0,.82,0,1.64.08,2.44,0,.25,0,.48.05.71Zm.88-4.23a12.85,12.85,0,0,0,3.71-.53c3.35-1.06,5.87-3.68,7.48-7.78a7.22,7.22,0,0,0-.06-5.56,4,4,0,0,0-2.52-2.18c-3.79-1.14-5.76,2.46-6.6,4.72A36.85,36.85,0,0,0,306.81,863.32ZM292.88,849a2.77,2.77,0,0,0-2.32,1,3.67,3.67,0,0,0,.08,3.91,19.11,19.11,0,0,0,6.25,6.28,20.36,20.36,0,0,0,8.32,3c-1.62-6.1-5.77-12.9-11.3-14.08A5.48,5.48,0,0,0,292.88,849Z"/><path class="cls-6" d="M280.58,864.28H329a0,0,0,0,1,0,0v0a14.18,14.18,0,0,1-14.18,14.18h-20a14.18,14.18,0,0,1-14.18-14.18v0a0,0,0,0,1,0,0Z" transform="translate(609.54 1742.74) rotate(-180)"/><path class="cls-2" d="M325.3,748.55c-11.83,1.09-25.38,2-40.65,2.45V729.54l40.65,3.89Z"/><path class="cls-2" d="M216.54,750.23c-12.84-.65-26.39-1.59-40.65-2.9V727.54q20.28-1.71,40.65-1.83Z"/><path class="cls-5" d="M268.61,728.05A519.81,519.81,0,0,0,104.9,738.42l89.56-470.51L305.76,241l78.86,498.11-1,.18.65-.18Z"/><polyline class="cls-8" points="698.19 259.83 578.58 285.95 591.7 330.65 709.93 278.37"/><circle class="cls-8" cx="582.47" cy="309.08" r="23.46" transform="translate(-37.64 84.88) rotate(-8.07)"/><polyline class="cls-8" points="481.89 253.67 567.17 326.83 599.27 292.69 557.02 248.14"/><path class="cls-5" d="M522.62,211.89,557,248.14l-34.16,40.68h0l-40.43-34.68a29.2,29.2,0,0,1,1.15-45.25h0A29.19,29.19,0,0,1,522.62,211.89Z"/><circle class="cls-8" cx="582.39" cy="308.97" r="23.46" transform="translate(-50.23 494.53) rotate(-44.29)"/><polygon class="cls-6" points="504.83 471.54 548.62 878.3 537 878.3 483.38 471.54 504.83 471.54"/><polygon class="cls-6" points="431.4 471.54 387.61 878.3 399.23 878.3 452.85 471.54 431.4 471.54"/><path class="cls-2" d="M390.93,459.12H532.69a0,0,0,0,1,0,0v.71a15.32,15.32,0,0,1-15.32,15.32H406.24a15.32,15.32,0,0,1-15.32-15.32v-.71a0,0,0,0,1,0,0Z"/><rect class="cls-6" x="417.21" y="673.35" width="103.99" height="14.44"/><polyline class="cls-3" points="847.13 402.79 773.8 298.91 815.73 274.58 867.91 394.04"/><circle class="cls-3" cx="793.79" cy="284.88" r="24.37" transform="translate(183.44 866.89) rotate(-63.38)"/><polyline class="cls-3" points="657.06 191.38 618.41 301.48 571.8 287.48 586.63 225.47"/><path class="cls-5" d="M598.71,175.05a30.33,30.33,0,0,1,33.54-23h0a30.32,30.32,0,0,1,24.56,40.09l-16.14,46-57-.18Z"/><path class="cls-9" d="M598.71,175.05a30.33,30.33,0,0,1,33.54-23h0a30.32,30.32,0,0,1,24.56,40.09l-16.14,46-57-.18Z"/><polyline class="cls-3" points="568.94 421.18 617.35 303.6 571.42 288.38 546.17 420.25"/><circle class="cls-3" cx="595.3" cy="293.25" r="24.37" transform="translate(66.4 694.05) rotate(-63.38)"/><path class="cls-2" d="M640.65,238.13l-22.24,63.35-.18-.05c-.26.74-.56,1.46-.89,2.17h0l-2.92,7.1a331,331,0,0,1,3.34-72.64Z"/><path class="cls-2" d="M627.57,191.38l18.19,5.46,9.6-.63-14.71,41.92-22.88-.07C621.16,216.74,625.76,201.54,627.57,191.38Z"/><path class="cls-4" d="M626.84,207.15l18.92-10.31,9.6-.63-14.71,41.92-19.14-.06C623.56,225.22,625.58,214.25,626.84,207.15Z"/><path class="cls-6" d="M627.57,191.38l16.12,4.84L629,238.13l-11.22,0C621.16,216.76,625.76,201.55,627.57,191.38Z"/><circle class="cls-9" cx="753.75" cy="554.02" r="33.74"/><polyline class="cls-5" points="787.49 550.9 787.49 554.05 762.24 362.77 678.32 362.83 720.54 559.96 787.49 554.05"/><polyline class="cls-3" points="764.65 168.15 815.17 273.34 773.8 298.91 738.95 242.06"/><path class="cls-9" d="M711.79,197.82l22.78,40.91,63.69-.78-9.34-19.26L765,168.83a30.33,30.33,0,0,0-45.72-11h0A30.34,30.34,0,0,0,711.79,197.82Z"/><polygon class="cls-6" points="754.69 238.48 734.58 238.73 723.98 219.71 740.35 191.38 754.69 238.48"/><polygon class="cls-2" points="754.69 238.48 772.31 296.39 734.58 238.73 754.69 238.48"/><rect class="cls-3" x="620.1" y="797.85" width="40.23" height="79.44" transform="translate(1280.43 1675.14) rotate(-180)"/><circle class="cls-9" cx="653.36" cy="554.02" r="33.74"/><polyline class="cls-5" points="619.62 550.9 619.62 554.05 619.62 362.77 703.61 359.73 686.58 559.96 619.62 554.05"/><path class="cls-6" d="M636,854.86h0a24,24,0,0,0,18.07.17l6.28-2.47-.06,25.34h-84.2v0A11.55,11.55,0,0,1,583.56,867l23.36-11.27a30.29,30.29,0,0,0,11.21-9.31l2-2.67h0A6.47,6.47,0,0,1,625,846l2.21,2.52A24,24,0,0,0,636,854.86Z"/><polygon class="cls-5" points="619.62 554.05 620.12 818.79 685.46 818.79 686.58 559.96 619.62 554.05"/><polygon class="cls-9" points="629.41 151.64 735 151.64 762.24 362.77 619.62 362.83 619.62 362.83 629.41 151.64"/><rect class="cls-3" x="655.59" y="56.29" width="47.49" height="60.77" rx="23.75" transform="translate(1261.36 447.57) rotate(-155.47)"/><path class="cls-3" d="M654.5,84l-4.62-3.27s8-4.22,10.61-9.94Z"/><path class="cls-3" d="M659.2,108.9h0l38.2-4.59a37.63,37.63,0,0,0-.36,30.43l7.65,16.52-1.65,2a26.83,26.83,0,0,1-43.27-2h0s13.34-13.52,6.22-32.32A27.61,27.61,0,0,0,659.2,108.9Z"/><polygon class="cls-2" points="660.37 828.64 660.37 818.79 620.31 818.79 660.37 828.64"/><polygon class="cls-3" points="833.68 877.29 793.45 877.29 781.97 797.85 822.21 797.85 833.68 877.29"/><path class="cls-6" d="M812.9,854.86h0a24,24,0,0,1-18.08.17l-5-2.47,3.6,25.34h79.38v0A11.55,11.55,0,0,0,865.38,867L842,855.75a30.29,30.29,0,0,1-11.21-9.31l-2-2.67h0A6.51,6.51,0,0,0,824,846l-2.21,2.52A24,24,0,0,1,812.9,854.86Z"/><polygon class="cls-5" points="787.49 554.05 825.25 818.79 759.91 818.79 720.54 559.96 787.49 554.05"/><polygon class="cls-2" points="786.36 828.48 785 818.79 825.06 818.79 786.36 828.48"/><polygon class="cls-4" points="696.23 446.49 677.06 415.18 686.58 559.96 696.23 446.49"/><path class="cls-4" d="M725.59,71.38a5.49,5.49,0,0,0-2.53-4.63,5.5,5.5,0,0,0-2.94-8.4,5.69,5.69,0,0,0,.4-2.07,5.5,5.5,0,0,0-5.51-5.5,6,6,0,0,0-1.41.18,5.34,5.34,0,0,0,.1-1,5.51,5.51,0,0,0-8-4.93,5.5,5.5,0,0,0-9.07-4.12,5.5,5.5,0,0,0-9.51-2.18,5.49,5.49,0,0,0-9-.61,5.42,5.42,0,0,0-3.17-1,5.5,5.5,0,0,0-5.11,3.47,5.37,5.37,0,0,0-2.43-.58A5.52,5.52,0,0,0,662,44.83a5.5,5.5,0,0,0-5.12,5.48v.08a5.5,5.5,0,0,0-1.1,10.82L695.43,72a13.86,13.86,0,0,0-9.27,11.83c2.41,3.15,8.78,27.87,8.78,27.87l29.51-36.92v0A5.45,5.45,0,0,0,725.59,71.38Z"/><circle class="cls-3" cx="688.89" cy="89.15" r="6.34"/><polyline class="cls-8" points="445.51 242.84 397.2 344.28 354.01 326.08 374.58 268.24"/><path class="cls-5" d="M391.34,221.15l-17.45,49.11,48.41,21.32h0l22.9-48.09a29.19,29.19,0,0,0-19.39-40.9h0A29.18,29.18,0,0,0,391.34,221.15Z"/><circle class="cls-8" cx="376.05" cy="334.13" r="23.46" transform="translate(-68.14 570.24) rotate(-69.61)"/><polygon class="cls-5" points="501.62 202.75 512.26 393.49 397.57 393.49 419.74 201.94 501.62 202.75"/><polygon class="cls-8" points="506.43 673.23 472.72 654.13 508.39 590.27 542.09 609.37 506.43 673.23"/><circle class="cls-8" cx="439.6" cy="582.58" r="30.46"/><path class="cls-7" d="M385.9,457.71,409.61,588l60.45-5.35,10.28-202.11-79-22.08-12.65,44A121.54,121.54,0,0,0,385.9,457.71Z"/><polygon class="cls-8" points="469.61 842.43 469.77 525.98 409.61 587.95 440.92 837.9 469.61 842.43"/><circle class="cls-7" cx="631.41" cy="428.43" r="30.46"/><polygon class="cls-7" points="448.14 459.37 633.38 458.84 634.84 398.16 401.31 358.42 448.14 459.37"/><polygon class="cls-7" points="657.68 443.95 554.67 628.3 503.11 599.64 600.85 421.76 657.68 443.95"/><polygon class="cls-5" points="476.13 459.39 477.97 431.92 580.45 459.19 476.13 459.39"/><path class="cls-4" d="M459.47,839.25l10.32-.84a6.91,6.91,0,0,1,5.36,2h0a5.89,5.89,0,0,1,0,8.32l-1.78,1.77h0s0,7.32,5.74,16.14l9.64,2.45a9.72,9.72,0,0,1,7.33,9.39H461.25L422,832.83l16.22-16.21Z"/><rect class="cls-8" x="432.27" y="123.82" width="41.12" height="52.61" rx="20.56" transform="translate(882.03 358.41) rotate(-172.46)"/><path class="cls-8" d="M443.33,202.75,447.2,197a15.93,15.93,0,0,0-3-21.06L438,170.75,471,164c-6.36,19.07-.62,28.38,2.47,34.9l2,3.91-.32.44a19.58,19.58,0,0,1-31.75-.51Z"/><path class="cls-4" d="M510,650.74l-35.36-.15-13.1,23.81,101.18.54h0a11.13,11.13,0,0,0-7.16-10.42l-29-14V648a5.88,5.88,0,0,0-5.87-5.89h0a6.93,6.93,0,0,0-5.22,2.37Z"/><polygon class="cls-10" points="436.1 799.4 435.04 790.92 469.61 790.91 436.1 799.4"/><polygon class="cls-10" points="498.59 607.93 503.25 599.59 537.06 618.53 498.59 607.93"/><polygon class="cls-7" points="470.06 464.44 469.61 790.91 410.61 790.91 409.61 587.95 470.06 464.44"/><polyline class="cls-8" points="503.06 380.7 373.08 357.2 384 311.91 514.54 367.51"/><circle class="cls-8" cx="375.84" cy="333.9" r="23.46" transform="translate(8.78 677.44) rotate(-84.72)"/><rect class="cls-3" x="242.05" y="61.11" width="47.09" height="60.25" rx="23.54" transform="translate(-15.17 97.4) rotate(-20.22)"/><path class="cls-3" d="M285.42,76.92c4.65,9.17,7.41,11.3,7.41,11.3l-2.48,2.22"/><rect class="cls-8" x="108.86" y="877.71" width="789.96" height="1"/><path class="cls-9" d="M249.07,116.2a26.41,26.41,0,0,1-6.16-9.6l-4.55-12.35a26.6,26.6,0,0,1,46-25.5L261.12,92Z"/><path class="cls-9" d="M238.36,94.25l2.88,8.85a41.9,41.9,0,0,1-27.53,53h0l19.21,18.68a32.43,32.43,0,0,0,46.54-1.37h0a35.76,35.76,0,0,0,4.66-41.86L262.65,94Z"/><path class="cls-4" d="M265,88.07,282.72,77.4a5.86,5.86,0,0,0,1.69-8.54l-.08-.11Z"/><path class="cls-8" d="M433.24,141.73c-.72,5.4-6.27,10.92-6.27,10.92l4.65,1.54"/><polygon class="cls-4" points="504.4 247.03 505.59 274.01 522.84 288.8 530.06 280.2 504.4 247.03"/><polygon class="cls-10" points="530.06 280.2 522.84 288.8 564.01 324.1 530.06 280.2"/><polygon class="cls-4" points="414.05 251.99 399.58 281.6 409.96 286.18 414.05 251.99"/><polygon class="cls-10" points="399.58 281.6 385.07 311.66 405.98 320.81 409.96 286.18 399.58 281.6"/><polygon class="cls-4" points="492.62 378.79 400.3 362.2 393.98 383.93 492.62 378.79"/><path class="cls-5" d="M300.23,205.82,305.76,241l6.67-1.69C306.81,218.66,300.23,205.82,300.23,205.82Z"/><path class="cls-2" d="M305.76,241l12.77,81.28c4.44-32.27-.32-61.74-6.1-83Z"/><path class="cls-5" d="M205.92,209.07A277.68,277.68,0,0,0,194,240.72l5.58,1.56Z"/><path class="cls-2" d="M194,240.72c-8.23,25.94-17.2,64.87-14.3,105.4l19.88-103.84Z"/><path class="cls-4" d="M463.54,149.24a47.5,47.5,0,0,0,4.92,23.52l7.81-12.89a51.87,51.87,0,0,0,4.94-9.6,31.27,31.27,0,0,0,1.35-13.49c-.56-5.41-2.49-11-6.84-14.32a20.18,20.18,0,0,0-9.26-3.42,42.15,42.15,0,0,0-9.46-.26C401,123.07,454.07,150,463.54,149.24Z"/><circle class="cls-8" cx="461.4" cy="149.76" r="5.49"/><path class="cls-8" d="M509.33,376.86l27.43,4.61a3.4,3.4,0,0,0,3.81-2.36l.14-.45-48.89-20.72"/><path class="cls-8" d="M497.79,374.37l3.41-2.32,10.12.23,11.59,5.08-1.63,1.55a29.2,29.2,0,0,1-29.08-3.22h0"/><path class="cls-5" d="M409.61,588s16.8,135.43,1,203Z"/><path class="cls-4" d="M265.82,87.57c2.44,2.08,1.71,3.76,1.8,5.78.2-5,7.68-11.58,9.87-12.82Z"/><circle class="cls-3" cx="265.39" cy="92.97" r="6.28"/></g></g></svg>