<svg xmlns="http://www.w3.org/2000/svg" viewBox="0 0 747.61 615.83"><defs><style>.cls-1{fill:#faf8fa;}.cls-2{fill:#809ce6;}.cls-3{fill:#59337e;}.cls-4{fill:#3e2260;}.cls-5{fill:#bbc6ee;}.cls-6{fill:#567ad0;}.cls-11,.cls-7{fill:#f0cef2;}.cls-7{opacity:0.5;}.cls-8,.cls-9{fill:#d66be8;}.cls-8{opacity:0.2;}.cls-10{fill:#f7f1f6;}</style></defs><g id="Layer_2" data-name="Layer 2"><g id="ARTWORK"><path class="cls-1" d="M183.74,475.09c-11.56,7.51-25,15.75-37.73,6.39-10.3-7.56-10.34-22.49-13.38-34.9-6.81-27.83-35.38-49.72-64.26-48.43C17.81,400.42-5.15,445,1,491.29c5.65,42.8,30.56,83.63,68.39,104.43,20.8,11.43,44.52,16.61,68.14,18.86,29.68,2.84,60.16,1.19,88.35-8.5,29.38-10.09,62-30.41,71.64-61.8,12.86-41.85-20.08-86.68-63.83-86.4-16.07.1-31.82,5.67-45.39,14.28C186.8,473.09,185.28,474.09,183.74,475.09Z"/><ellipse class="cls-1" cx="577.94" cy="165.32" rx="169.67" ry="165.32"/><path class="cls-2" d="M251,50.86H553a0,0,0,0,1,0,0v501a0,0,0,0,1,0,0H251a29.43,29.43,0,0,1-29.43-29.43V80.29A29.43,29.43,0,0,1,251,50.86Z" transform="translate(688.62 -85.95) rotate(90)"/><rect class="cls-3" x="136.82" y="165.69" width="500.95" height="271.32"/><path class="cls-4" d="M637.83,423.83H474.56a10.93,10.93,0,0,1-10.93-10.93v-6.36h174.2Z"/><line class="cls-1" x1="701.97" y1="308.16" x2="701.97" y2="338.02"/><polygon class="cls-5" points="637.76 467.01 707.36 536.44 67.38 536.44 136.81 467.01 637.76 467.01"/><path class="cls-2" d="M67,536.44h0A29.26,29.26,0,0,0,96.29,565.7H677.9a29.26,29.26,0,0,0,29.26-29.26H67Z"/><polygon class="cls-2" points="314.42 505.84 300.13 524.14 474.97 524.19 460.63 505.84 314.42 505.84"/><path class="cls-6" d="M335.11,536.45H438.86a0,0,0,0,1,0,0v0a12.41,12.41,0,0,1-12.41,12.41H347.51a12.41,12.41,0,0,1-12.41-12.41v0A0,0,0,0,1,335.11,536.45Z"/><polygon class="cls-6" points="345.04 165.7 345.04 135.53 328.65 135.53 328.65 165.71 345.04 165.7"/><path class="cls-7" d="M136.82,264.19H101.23A10.93,10.93,0,0,1,90.3,253.26V246.9h46.52Z"/><path class="cls-4" d="M136.65,264.19H334.11A10.93,10.93,0,0,0,345,253.26V165.68h-16.4V236a10.93,10.93,0,0,1-10.93,10.93H136.65Z"/><line class="cls-1" x1="328.64" y1="135.58" x2="328.64" y2="165.43"/><path class="cls-7" d="M345,135.53a10.93,10.93,0,0,0-10.93-10.93h-5.47v11Z"/><polygon class="cls-8" points="638.11 437.01 366.26 165.72 302.59 165.72 574.44 437.01 638.11 437.01"/><polygon class="cls-8" points="494.56 437.01 222.72 165.72 137.87 165.72 409.72 437.01 494.56 437.01"/><polygon class="cls-1" points="506.28 178.81 499.52 191.47 484.25 150.62 525.1 165.89 511.96 172.9 532.7 193.64 526.9 199.44 506.28 178.81"/><path class="cls-7" d="M677.44,264.24H672v11h0v30.11h0v90.28A10.93,10.93,0,0,1,661,406.54H637.68v17.29h39.76a10.93,10.93,0,0,0,10.93-10.93V305.34h0V275.17A10.93,10.93,0,0,0,677.44,264.24Z"/><rect class="cls-1" x="417.06" y="248.61" width="254.91" height="159.6" rx="10.93"/><path class="cls-9" d="M417.06,276.88H671.94V259.54A10.93,10.93,0,0,0,661,248.61H428a10.93,10.93,0,0,0-10.93,10.93Z"/><circle class="cls-3" cx="435.84" cy="262.13" r="6.06"/><circle class="cls-10" cx="454.02" cy="262.13" r="6.06"/><rect class="cls-1" x="73.73" y="87.3" width="254.91" height="159.6" rx="10.93"/><path class="cls-9" d="M73.73,115.57H328.61V98.23A10.93,10.93,0,0,0,317.68,87.3h-233A10.93,10.93,0,0,0,73.73,98.23Z"/><circle class="cls-3" cx="92.51" cy="100.82" r="6.06"/><circle class="cls-10" cx="110.69" cy="100.82" r="6.06"/><rect class="cls-11" x="417.06" y="385.57" width="254.91" height="1.5"/><rect class="cls-11" x="417.06" y="363.68" width="254.91" height="1.5"/><rect class="cls-11" x="417.06" y="341.79" width="254.91" height="1.5"/><rect class="cls-11" x="417.06" y="319.9" width="254.91" height="1.5"/><rect class="cls-11" x="417.06" y="298.02" width="254.91" height="1.5"/><rect class="cls-11" x="628.73" y="276.88" width="1.5" height="131.33"/><rect class="cls-11" x="586.25" y="276.88" width="1.5" height="131.33"/><rect class="cls-11" x="543.76" y="276.88" width="1.5" height="131.33"/><rect class="cls-11" x="501.28" y="276.88" width="1.5" height="131.33"/><rect class="cls-11" x="458.79" y="276.88" width="1.5" height="131.33"/><rect class="cls-11" x="96.23" y="133.16" width="91.24" height="96.24" transform="translate(323.13 39.43) rotate(90)"/><rect class="cls-5" x="214.9" y="133.16" width="91.24" height="96.24" transform="translate(441.8 -79.24) rotate(90)"/></g></g></svg>