<svg xmlns="http://www.w3.org/2000/svg" viewBox="0 0 778.31 1087.39"><defs><style>.cls-1{fill:#567ad0;}.cls-2{fill:#9b46c3;}.cls-3{fill:#bbc6ee;}.cls-4{fill:#59337e;}.cls-5{fill:#809ce6;}.cls-6{fill:#f0cef2;}.cls-7{fill:none;stroke:#000;stroke-miterlimit:10;stroke-width:4px;}</style></defs><g id="Layer_2" data-name="Layer 2"><g id="ARTWORK"><circle class="cls-1" cx="265.31" cy="403.45" r="71.19"/><polyline class="cls-2" points="194.11 396.86 194.12 403.5 247.4 0 424.5 0 335.41 415.98 194.12 403.5"/><rect class="cls-3" x="462.44" y="917.97" width="84.9" height="167.64"/><circle class="cls-1" cx="477.16" cy="403.45" r="71.19"/><polyline class="cls-2" points="548.36 396.86 548.36 403.5 548.36 0 371.12 0 407.07 415.98 548.36 403.5"/><path class="cls-4" d="M513.71,1038.27h0a50.69,50.69,0,0,1-38.14.36l-13.23-5.22.1,53.48h177.7v-.11a24.36,24.36,0,0,0-15.68-22.84l-49.3-23.79a64,64,0,0,1-23.66-19.64l-4.15-5.63h0a13.61,13.61,0,0,0-10.31,4.65l-4.66,5.33A50.71,50.71,0,0,1,513.71,1038.27Z"/><polygon class="cls-2" points="548.36 403.5 547.3 962.15 409.42 962.15 407.07 415.98 548.36 403.5"/><polygon class="cls-5" points="462.36 982.95 462.36 962.15 546.91 962.15 462.36 982.95"/><polygon class="cls-3" points="96.64 1085.61 181.54 1085.61 205.76 917.97 120.86 917.97 96.64 1085.61"/><path class="cls-4" d="M140.5,1038.27h0a50.69,50.69,0,0,0,38.14.36l10.55-5.22-7.61,53.48H14.07v-.11a24.36,24.36,0,0,1,15.68-22.84l49.3-23.79a64.1,64.1,0,0,0,23.67-19.64l4.15-5.63h0a13.61,13.61,0,0,1,10.3,4.65l4.67,5.33A50.68,50.68,0,0,0,140.5,1038.27Z"/><polygon class="cls-2" points="194.12 403.5 114.45 962.15 252.33 962.15 335.41 415.98 194.12 403.5"/><polygon class="cls-5" points="196.51 982.61 199.39 962.15 114.84 962.15 196.51 982.61"/><polygon class="cls-4" points="386.69 176.52 427.14 110.46 407.07 415.98 386.69 176.52"/><path class="cls-2" d="M532.38,1024.86l-44.21,62H462.44l28.39-44.9S515.11,1045.1,532.38,1024.86Z"/><path class="cls-2" d="M121.87,1024.86l31.27,62h28.44l-22.79-44.73A52.37,52.37,0,0,1,121.87,1024.86Z"/><rect class="cls-6" y="1086.39" width="658.1" height="1"/><line class="cls-7" x1="778.31" y1="554.32" x2="493.49" y2="554.32"/></g></g></svg>