<svg xmlns="http://www.w3.org/2000/svg" viewBox="0 0 202.75 202.97"><defs><style>.cls-1{fill:#fff;}.cls-2{fill:#9b46c3;}.cls-3{fill:#d66be8;}.cls-4{fill:#59337e;}.cls-5{fill:#f0cef2;}.cls-6{fill:#e8aaee;}.cls-7{fill:#2b52a0;}.cls-8{fill:#bbc6ee;}.cls-9{fill:#809ce6;}.cls-10{fill:#567ad0;}</style></defs><g id="Layer_2" data-name="Layer 2"><g id="Layer_1-2" data-name="Layer 1"><path class="cls-1" d="M137.7,145.48c-1.43-5.81-4.17-12.06-9.75-14.21-3.86-1.49-8.22-.62-12.11.81a44.24,44.24,0,0,0-27.07,54.26c1.79,5.93,5.12,11.76,10.59,14.68,6.91,3.69,15.73,1.78,22.16-2.69s14.36-12.88,16.85-20.72C141.48,167.8,140.11,155.23,137.7,145.48Z"/><path class="cls-1" d="M56.44,47a39,39,0,0,0-27.63-1.58c-5.35,1.7-10.46,4.72-13.71,9.31-3.46,4.89-4.52,11.13-4.29,17.12s1.65,11.85,2.73,17.74A157,157,0,0,1,16,124.85c-.33,7.83-1.22,15.93,1.46,23.29,3.9,10.69,15.78,17.86,27.06,16.3a23.69,23.69,0,0,0,8.69-2.94c6.33-3.66,10.48-10.1,14.12-16.44,5.06-8.82,9.63-18,12.3-27.82,5.26-19.32,3.78-44.79-10-60.45A38.94,38.94,0,0,0,56.44,47Z"/><path class="cls-1" d="M105.63,80.68l0,.24c1,8.38,4.45,16.93,10.29,23.11,7.37,7.8,17.37,12.7,27.69,15.61,20.65,5.82,41.64-.78,50.75-21.18,7.8-17.44,5.43-39.88-6.08-55.17-6.94-9.21-16.54-16.07-26.53-21.84C144,11.16,123.42,2.53,102.85.24,89.78-1.22,79.31,4.06,75.23,17c-3.39,10.77-1.46,25.07,8.58,31.73,4.43,2.94,9.88,4.25,13.92,7.72C105.06,62.7,104.57,72,105.63,80.68Z"/><path class="cls-2" d="M88.17,194l21.93-11a1.68,1.68,0,0,0,.74-2.25l-1.72-3.42L103,165.14a1.73,1.73,0,0,0-2.22-.81l-23.13,10a2.26,2.26,0,0,0-1.13,3.09l7.67,15.28A3,3,0,0,0,88.17,194Z"/><path class="cls-2" d="M113.18,163.43l17.1-17.1a3,3,0,0,0,0-4.18L51.06,62.93a3,3,0,0,0-4.18,0L10.46,99.35a3,3,0,0,0,0,4.18l65.13,65.13a2.28,2.28,0,0,0,3.14.09l18.11-16.16a2.23,2.23,0,0,1,3.06.09l10.75,10.75A1.79,1.79,0,0,0,113.18,163.43Z"/><rect class="cls-3" x="68.96" y="144.81" width="23.98" height="16.24" rx="2.36" transform="translate(-84.43 102.03) rotate(-45)"/><path class="cls-2" d="M78.14,166.16l0-4.06-7.22-5.81a.81.81,0,0,1,0-1.14L68.4,154a2.78,2.78,0,0,0-.27.33.41.41,0,0,1-.07.11,2.44,2.44,0,0,0-.14.28,1.17,1.17,0,0,0,0,.11,2.15,2.15,0,0,0-.15.8.48.48,0,0,0,0,.12,1.53,1.53,0,0,0,0,.3.5.5,0,0,0,0,.12,2.5,2.5,0,0,0,.28.71,2.54,2.54,0,0,0,.35.46l8.14,8.14A2.33,2.33,0,0,0,78.14,166.16Z"/><rect class="cls-2" x="75.45" y="143.47" width="11.01" height="18.91" rx="0.81" transform="translate(30.06 318.3) rotate(-135)"/><path class="cls-4" d="M67.81,156.29h3.13l13.38-13.37v-3.14a2.36,2.36,0,0,0-2.31.6L68.4,154A2.36,2.36,0,0,0,67.81,156.29Z"/><rect class="cls-3" x="88.47" y="125.3" width="23.98" height="16.24" rx="2.36" transform="translate(-64.92 110.11) rotate(-45)"/><path class="cls-2" d="M97.64,146.65l0-4.06-7.21-5.8a.8.8,0,0,1,0-1.14l-2.54-1.16a2.22,2.22,0,0,0-.28.33l-.06.11c-.06.09-.1.18-.15.27s0,.07,0,.11a2.24,2.24,0,0,0-.16.8v.12l0,.3s0,.08,0,.12a2.29,2.29,0,0,0,.28.71,2.35,2.35,0,0,0,.36.47L96.05,146A2.3,2.3,0,0,0,97.64,146.65Z"/><rect class="cls-2" x="94.95" y="123.97" width="11.01" height="18.91" rx="0.81" transform="translate(77.14 298.8) rotate(-135)"/><path class="cls-4" d="M87.31,136.79h3.14l13.37-13.38v-3.13a2.36,2.36,0,0,0-2.3.59L87.91,134.49A2.33,2.33,0,0,0,87.31,136.79Z"/><rect class="cls-4" x="55.41" y="131.25" width="23.98" height="16.24" rx="2.36" transform="translate(-78.81 88.48) rotate(-45)"/><rect class="cls-4" x="41.85" y="117.7" width="23.98" height="16.24" rx="2.36" transform="translate(-73.2 74.92) rotate(-45)"/><rect class="cls-4" x="28.3" y="104.14" width="23.98" height="16.24" rx="2.36" transform="translate(-67.58 61.37) rotate(-45)"/><rect class="cls-4" x="14.74" y="90.59" width="23.98" height="16.24" rx="2.36" transform="translate(-61.97 47.81) rotate(-45)"/><polygon class="cls-5" points="0 99.42 46.39 53.02 49.52 56.15 4.16 101.51 0 99.42"/><path class="cls-3" d="M73.63,169.07l28.83-53.3a4.73,4.73,0,0,0-.82-5.59L52.79,61.33l-3.27-5.18L4.16,101.51l.22.1a21.37,21.37,0,0,1,6,4.21Z"/><path class="cls-5" d="M5.12,100.55l-1,1,.22.1a21.37,21.37,0,0,1,6,4.21Z"/><path class="cls-6" d="M73.63,169.07l28.83-53.3a4.73,4.73,0,0,0-.82-5.59l-29.7-29.7-30.5,56.4Z"/><polygon class="cls-5" points="52.79 61.33 49.52 56.15 48.57 57.1 52.79 61.33"/><rect class="cls-3" x="102.02" y="138.86" width="23.98" height="16.24" rx="2.36" transform="translate(-70.54 123.67) rotate(-45)"/><path class="cls-2" d="M111.2,160.21l0-4.06L104,150.34a.81.81,0,0,1,0-1.14L101.46,148a2.24,2.24,0,0,0-.27.34l-.07.1a2.44,2.44,0,0,0-.14.28.37.37,0,0,0,0,.11,2.48,2.48,0,0,0-.16.8s0,.08,0,.12a1.53,1.53,0,0,0,0,.3.5.5,0,0,0,0,.12,2.5,2.5,0,0,0,.28.71,2.54,2.54,0,0,0,.35.46l8.14,8.14A2.33,2.33,0,0,0,111.2,160.21Z"/><rect class="cls-2" x="108.51" y="137.52" width="11.01" height="18.91" rx="0.81" transform="translate(90.7 331.52) rotate(-135)"/><path class="cls-4" d="M100.87,150.34H104L117.37,137v-3.14a2.37,2.37,0,0,0-2.3.6L101.46,148A2.36,2.36,0,0,0,100.87,150.34Z"/><rect class="cls-3" x="81.91" y="170.63" width="23.98" height="16.24" rx="2.36" transform="translate(-70.22 61.14) rotate(-26.66)"/><path class="cls-2" d="M87.07,190.43l1.3-3.85-5-7.78a.82.82,0,0,1,.36-1.09l-2-1.9a2.92,2.92,0,0,0-.37.24l-.09.08a1.51,1.51,0,0,0-.23.21l-.08.09a2.49,2.49,0,0,0-.4.71l0,.12a2.46,2.46,0,0,0-.07.29s0,.08,0,.12a2.44,2.44,0,0,0,0,.76,2.31,2.31,0,0,0,.19.56l5.16,10.29A2.39,2.39,0,0,0,87.07,190.43Z"/><rect class="cls-2" x="88.4" y="169.3" width="11.01" height="18.91" rx="0.81" transform="translate(-23.71 342.88) rotate(-116.66)"/><path class="cls-4" d="M80.37,177.81l3,1,16.91-8.49,1-3a2.36,2.36,0,0,0-2.37-.15l-17.2,8.63A2.36,2.36,0,0,0,80.37,177.81Z"/><rect class="cls-4" x="110.28" y="146.02" width="7.47" height="1.91" transform="translate(-70.54 123.67) rotate(-45)"/><rect class="cls-4" x="96.72" y="132.47" width="7.47" height="1.91" transform="translate(-64.92 110.11) rotate(-45)"/><rect class="cls-4" x="90.17" y="177.8" width="7.47" height="1.91" transform="translate(-70.22 61.14) rotate(-26.66)"/><path class="cls-2" d="M4.38,101.61a21.37,21.37,0,0,1,6,4.21l1.91,1.91S6.85,103,10.46,99.35L46.88,62.93a3,3,0,0,1,4.18,0l7,3.63-5.23-5.23-3.27-5.18L4.16,101.51Z"/><polygon class="cls-3" points="98.62 122.86 98.62 122.86 98.62 122.86 98.62 122.86"/><path class="cls-5" d="M103.24,114.32h0l-.93,1.72A13,13,0,0,1,86.22,122h0a33.14,33.14,0,0,1-7.74-4.64L59,165.66l3.41,3.41a7.94,7.94,0,0,0,11.23,0h0"/><path class="cls-2" d="M113.86,169.46l2.78-2.78a1.86,1.86,0,0,1,3,.56l2,4.6a1.34,1.34,0,0,1-1.48,1.85l-5.4-1.08A1.87,1.87,0,0,1,113.86,169.46Z"/><path class="cls-2" d="M118.78,181.94l.83-1a.9.9,0,0,0,.08-1l-.83-1.56a.92.92,0,0,0-1.44-.21l-1.64,1.64a.91.91,0,0,0,.19,1.42l1.65,1A.91.91,0,0,0,118.78,181.94Z"/><path class="cls-6" d="M73.63,169.07l12.93-23.91h0L72.22,166.33a.79.79,0,0,1-1.44-.54l.48-3.88a.79.79,0,0,0-1.45-.53c-3.55,5.3-8,7.13-10.82,4.28l3.41,3.41A7.94,7.94,0,0,0,73.63,169.07Z"/><polygon class="cls-7" points="86.01 74.42 115.2 43.24 143.48 24.63 127.04 55.94 86.01 74.42"/><path class="cls-8" d="M114.42,54.64a11.34,11.34,0,0,1-12.57,10.19A11.34,11.34,0,0,1,90.73,53.06c.24-3.62,2.78,1.58,11.75,2.17S114.66,51,114.42,54.64Z"/><path class="cls-8" d="M105.35,6c2.22,2.88,4.42,10.47-2.71,16a11.33,11.33,0,0,1-16.11-1.48c-2.22-2.88-2.15-6.64,5-12.12S103.13,3.1,105.35,6Z"/><path class="cls-9" d="M200.44,95.44l-27.27-18.7L157.43,55.2,146.69,27.74,88.72,78h0A37.38,37.38,0,0,0,105,90.07l6.38,2.45L122,106.36a212.62,212.62,0,0,0,14.08,16.49L143,130.1l.18,9.42Z"/><path class="cls-10" d="M142.82,122.37h0a43.36,43.36,0,0,1-12.41-9.3l-19-20.55L122,106.36a212.62,212.62,0,0,0,14.08,16.49L143,130.1l.18,9.42Z"/><polygon class="cls-10" points="86.01 74.42 88.72 77.95 123.82 50.94 146.69 27.74 143.48 24.63 121.24 47.32 86.01 74.42"/><rect class="cls-10" x="136.81" y="117.09" width="72.28" height="3.79" transform="translate(-36.68 130.15) rotate(-37.57)"/><path class="cls-8" d="M120.42,35.69c.56,4.18-1.37,10.88-10,12s-12.31-4.79-12.87-9,2.16-5,10.84-6.16S119.86,31.51,120.42,35.69Z"/><path class="cls-8" d="M121.14,7.59a10.84,10.84,0,0,1,12.28,9.75c1,7.53-4.5,12.42-8.66,13.08s-.76-3.82-1.82-11.19C121.91,12.08,117,8.25,121.14,7.59Z"/><path class="cls-7" d="M127.46,104.23c7.35-17,31.1-12.62,38.45-29.59L154,59.2c-7.35,17-31.09,12.62-38.45,29.59Z"/><circle class="cls-8" cx="140.75" cy="81.72" r="21.42"/><path class="cls-10" d="M165.91,74.64c-18.28,2.76-20.17,26.83-38.45,29.59L115.58,88.79C133.86,86,135.75,62,154,59.2Z"/><path class="cls-10" d="M157.43,55.2h0a9.5,9.5,0,0,0-11.21-1l-5.34,3.25,6.61-6.8-.8-23Z"/><path class="cls-10" d="M173.17,76.74h0A8.56,8.56,0,0,1,174.7,84l-.27,1.13,6.06-3.37Z"/><path class="cls-8" d="M89.22,33.74A1.26,1.26,0,0,0,88,31.59a7.9,7.9,0,0,0-4.2,2.35c-1.32,1.73.15,3.31,1.48,4.27a1.27,1.27,0,0,0,2-.76l.44-2a1.28,1.28,0,0,1,.39-.66Z"/><path class="cls-8" d="M84.56,44.26l-1.75.34c-.44.08-.55.55-.18.75l2.57,1.43c.41.23,1-.11.77-.5l-.8-1.75A.55.55,0,0,0,84.56,44.26Z"/><path class="cls-8" d="M114.28,23l.21-1.77c.05-.45-.36-.69-.67-.4l-2.13,2c-.35.33-.18.94.24.89l1.92-.24A.54.54,0,0,0,114.28,23Z"/></g></g></svg>