<svg xmlns="http://www.w3.org/2000/svg" viewBox="0 0 205.65 179.83"><defs><style>.cls-1{fill:#fff;}.cls-2{fill:#809ce6;}.cls-13,.cls-3,.cls-4,.cls-6,.cls-7{fill:none;stroke-linecap:round;stroke-linejoin:round;}.cls-3,.cls-4,.cls-6,.cls-7{stroke:#567ad0;stroke-width:0.71px;}.cls-4{stroke-dasharray:2.83 5.67;}.cls-5{fill:#567ad0;}.cls-6{stroke-dasharray:2.89 5.78;}.cls-7{stroke-dasharray:2.83 5.66;}.cls-8{fill:#9b46c3;}.cls-9{fill:#d66be8;}.cls-10{fill:#bbc6ee;}.cls-11{fill:#59337e;}.cls-12{fill:#f0cef2;}.cls-13{stroke:#f0cef2;}</style></defs><g id="Layer_2" data-name="Layer 2"><g id="Layer_1-2" data-name="Layer 1"><path class="cls-1" d="M80.84,58.84c50.49-19.52,72.71,22.87,73.61,24.92,2.71,6.16,7.29,11.53,13.47,14.37,10.89,5,24.65,1.89,32-7.77,5.48-7.23,7.63-17.2,3.89-25.71A107.78,107.78,0,0,0,145.2,7.51q-3.25-1.3-6.58-2.38a108,108,0,0,0-63.81-.59c-6.63,2-13.9,4.36-19.49,8.56a26.57,26.57,0,0,0-10,16.14c-2.14,11.36,4,24.56,15,29C66.61,60.79,74.47,61.88,80.84,58.84Z"/><path class="cls-1" d="M48.56,161l.11.19c3.94,6.51,9.88,12.31,17,15.25,8.92,3.71,18.95,4.07,28.51,2.68,19.13-2.79,34-15.92,34-36.05,0-17.21-10.16-34.8-25.25-43.16-9.08-5-19.5-7.15-29.83-8.24C54.6,89.7,34.53,90.14,16.76,95.79c-11.29,3.6-18,11.79-16.58,23.92,1.16,10.1,8,21.16,18.7,23,4.72.79,9.69-.13,14.29,1.24C41.49,146.38,44.51,154.22,48.56,161Z"/><rect class="cls-2" x="21.67" y="44.98" width="159.11" height="111.88" rx="5.23"/><line class="cls-3" x1="179" y1="87.03" x2="179" y2="88.45"/><path class="cls-4" d="M179,94.12v58.09a2.88,2.88,0,0,1-2.87,2.87H26.33a2.87,2.87,0,0,1-2.87-2.87V91.28"/><line class="cls-3" x1="23.46" y1="88.45" x2="23.46" y2="87.03"/><path class="cls-5" d="M176,44.32H26.44a4.77,4.77,0,0,0-4.77,4.76V84.35A89.17,89.17,0,0,0,81.07,107h40.32a89,89,0,0,0,41.93-10.5,6.5,6.5,0,0,1,9.61,5.68v36.24a12.08,12.08,0,0,1-12.07,12.07H21.67V152a4.87,4.87,0,0,0,4.87,4.87H175.92a4.87,4.87,0,0,0,4.86-4.87V49.08A4.76,4.76,0,0,0,176,44.32Z"/><path class="cls-2" d="M174.35,41.42H28.11a8.21,8.21,0,0,0-8.22,8.21V75.11a4.91,4.91,0,0,0,1.49,3.54,87.18,87.18,0,0,0,60.14,24.07h39.41a87.18,87.18,0,0,0,60.14-24.07,4.87,4.87,0,0,0,1.49-3.54V49.63A8.2,8.2,0,0,0,174.35,41.42Z"/><path class="cls-3" d="M23.59,77.06c-.35-.33-.69-.65-1-1V74.66"/><path class="cls-6" d="M22.57,68.88V49.63a5.54,5.54,0,0,1,5.54-5.54H174.35a5.54,5.54,0,0,1,5.54,5.54V71.77"/><path class="cls-3" d="M179.89,74.66v1.42l-1,1"/><path class="cls-7" d="M174.62,80.81a83.85,83.85,0,0,1-53.69,19.24H81.52A83.86,83.86,0,0,1,25.67,79"/><path class="cls-8" d="M113.78,19.74H90.54a15,15,0,0,0-15,15v6.7h8v-6.7a7,7,0,0,1,7-7h23.24a7,7,0,0,1,7,7v6.7h7.95v-6.7A15,15,0,0,0,113.78,19.74Z"/><path class="cls-9" d="M102.16,19.74H90.54a15,15,0,0,0-15,15v6.7h2.15V35.05A12.86,12.86,0,0,1,90.57,22.19H122a14.94,14.94,0,0,0-8.19-2.45Z"/><rect class="cls-10" x="72.83" y="36.91" width="2.73" height="4.51"/><rect class="cls-10" x="83.51" y="36.91" width="2.73" height="4.51"/><rect class="cls-10" x="118.08" y="36.91" width="2.73" height="4.51"/><rect class="cls-10" x="128.76" y="36.91" width="2.73" height="4.51"/><rect class="cls-11" x="88.46" y="18.91" width="27.4" height="9.6" rx="1.59"/><rect class="cls-1" x="90.77" y="92.26" width="20.92" height="20.92" rx="4.1"/><rect class="cls-12" x="90.77" y="102.72" width="20.92" height="1.97"/><path class="cls-13" d="M93.62,102.72v-5.6a1.89,1.89,0,0,1,1.89-1.89h11.2"/><rect class="cls-10" x="144.2" y="137.4" width="21.62" height="7.52" rx="1.64"/></g></g></svg>