<svg xmlns="http://www.w3.org/2000/svg" viewBox="0 0 898.57 854.29"><defs><style>.cls-1{fill:#faf8fa;}.cls-2{fill:#e8aaee;}.cls-3{fill:#f0cef2;}.cls-4{fill:#9b46c3;}.cls-5{fill:#d66be8;}.cls-6{fill:#809ce6;}.cls-7{fill:#567ad0;}.cls-8{fill:#bbc6ee;}.cls-9{fill:#59337e;}.cls-10{fill:#415c9c;}</style></defs><g id="Layer_2" data-name="Layer 2"><g id="ARTWORK"><path class="cls-1" d="M239.62,605.91c28.1,58.26,64.37,110.77,115.9,150.52,52.92,40.82,134.27,52.92,199.57,49.88,64.71-3,128.52-16.68,181.75-55.81,55.3-40.65,87.58-98.29,105.73-163.31C858.36,530.62,865,461.64,829.12,411a122.81,122.81,0,0,0-15.43-17.88c-26.1-25-64.75-40-100-26.52-49,18.68-68.49,77.89-109.88,110.05-56.36,43.78-149.65,42.11-202.06-6.33C336.56,410.09,173.11,468,239.62,605.91Z"/><path class="cls-1" d="M493.9,256.94c150.24-87.68,242.37,35.49,246.27,41.53,11.73,18.16,29,32.86,50.08,38.72,37.11,10.32,79.17-6.56,97.48-40.95,13.7-25.75,15.44-58.48-.77-83.57a350.3,350.3,0,0,0-94.79-98.47,346.56,346.56,0,0,0-120.24-53Q661,58.75,649.85,57A346.79,346.79,0,0,0,447.06,87.72c-20,9.71-41.89,20.93-57.47,37.1A85.36,85.36,0,0,0,366,181.14c-1,37.15,25.23,75.9,62.41,84.37C449.74,270.37,475.22,269.85,493.9,256.94Z"/><path class="cls-1" d="M203.16,700.68c-8.25-13-39.11-53.08-40.25-179.07C162.6,487.94,139,458.55,106,452.09c-.75-.15-1.5-.28-2.25-.41a86.43,86.43,0,0,0-65.88,16.47c-22.73,17.45-31.4,44.64-35.18,72-4.3,31-2.93,63.14.77,94.22,5.46,45.91,18.24,91.21,40.33,132,10.09,18.6,22.5,36.65,40.1,48.41,25.45,17,62.65,18.89,88.8,2.24,18.15-11.7,34.13-29.12,39.06-50.8C216.71,744.32,215.5,720.14,203.16,700.68Z"/><circle class="cls-1" cx="161.62" cy="128.36" r="128.36"/><path class="cls-2" d="M645.37,485.2l12.78,20.63a3,3,0,0,0,3.74,1.14l.38-.16-14.59-44"/><path class="cls-3" d="M647.85,463.38l2.52,46.29-.41.06a3,3,0,0,1-3.31-2.08l-6.9-22.9c-.47-1.89-1.48-2.86-2.58-2.77h0a2.71,2.71,0,0,0-2.46,2.86l.76,12.19a3.16,3.16,0,0,1-2.8,3.35l-1,.12-4.29-13.25a19.46,19.46,0,0,1-.8-8.54l1.8-12.7,19.8-.73,9.07,45.46-.4.12a3,3,0,0,1-3.57-1.59l-10.15-22"/><path class="cls-4" d="M602.08,222.57a35.59,35.59,0,1,0-38.39,49.92,35.59,35.59,0,1,0,49.92-38.39A23.52,23.52,0,0,1,602.08,222.57Z"/><circle class="cls-5" cx="267.72" cy="301.92" r="21.18" transform="translate(-134.69 331.87) rotate(-52.69)"/><polyline class="cls-3" points="418.29 362.62 308.96 346.36 305.72 388.29 422.26 382.03"/><circle class="cls-3" cx="304.84" cy="367.13" r="21.18" transform="translate(-120.34 583.78) rotate(-77.3)"/><polyline class="cls-3" points="526.15 278.17 443.56 337.06 417.45 303.76 459.04 267.12"/><path class="cls-6" d="M492.9,237.3,459,267.12l27.44,39.34h0l39.15-27.92a26.35,26.35,0,0,0,2.63-40.78h0A26.37,26.37,0,0,0,492.9,237.3Z"/><circle class="cls-3" cx="431.32" cy="319.77" r="21.18" transform="translate(-104.29 357.4) rotate(-40.57)"/><polygon class="cls-7" points="501.01 295.97 504.49 272.88 486.47 306.46 501.01 295.97"/><polyline class="cls-3" points="628.27 466.17 585.96 364.05 625.86 350.73 648.06 465.31"/><circle class="cls-3" cx="605.12" cy="355.01" r="21.18" transform="translate(-95.03 310.3) rotate(-26.75)"/><polyline class="cls-3" points="373.4 222.17 446.57 305.02 413.16 330.57 354.96 229.41"/><circle class="cls-3" cx="431.39" cy="319.79" r="21.18" transform="translate(-98.79 405.1) rotate(-45.69)"/><polyline class="cls-3" points="219.47 260.93 162.67 344.96 126.57 322.9 152.73 274.03"/><path class="cls-6" d="M174,234.26l-22.2,41.48,40.34,25.56h0l26.93-39.84a26.36,26.36,0,0,0-11.8-39.13h0A26.35,26.35,0,0,0,174,234.26Z"/><circle class="cls-8" cx="145.16" cy="333.05" r="21.18" transform="translate(-216.53 298.71) rotate(-61.03)"/><polyline class="cls-5" points="339.02 226.88 256.11 285.32 278.88 320.98 327.23 293.87"/><path class="cls-5" d="M366.58,271.78l-39.35,22.09-28-38.91h0l39.3-27.7a26.37,26.37,0,0,1,39.36,11h0A26.35,26.35,0,0,1,366.58,271.78Z"/><circle class="cls-5" cx="268.37" cy="302.59" r="21.18" transform="translate(-115.56 175.37) rotate(-30.1)"/><polyline class="cls-3" points="237.68 288.15 286.23 377.21 324.26 358.67 302.87 307.55"/><path class="cls-6" d="M285.44,265.92l17.43,41.62L261,330.94h0l-23-42.22a26.35,26.35,0,0,1,15.46-37.83h0A26.35,26.35,0,0,1,285.44,265.92Z"/><circle class="cls-3" cx="304.8" cy="367.01" r="21.18" transform="translate(-121.13 152.1) rotate(-23.52)"/><polygon class="cls-7" points="261 330.94 262.72 286.4 273.78 252.97 279.25 320.73 261 330.94"/><polygon class="cls-2" points="261 330.94 265.93 340.2 281.77 369.04 279.25 320.73 261 330.94"/><path class="cls-4" d="M270.4,298.44c2.93-24.3,3.29-45.17,3.38-45.46l-68.6-31.53-37.27,154a64.37,64.37,0,1,0,110.47,26.07C269.44,367.86,266.25,333,270.4,298.44Z"/><rect class="cls-8" x="281.78" y="780.92" width="34.97" height="69.06" transform="translate(183.51 -45.43) rotate(12.49)"/><circle class="cls-7" cx="341.44" cy="572.44" r="29.33"/><polyline class="cls-7" points="370.66 576.14 370.07 578.8 415.14 421.82 331.3 407.02 312.13 571.23 370.07 578.8"/><polygon class="cls-7" points="370.07 578.8 319.85 803.39 264.4 791.1 312.13 571.23 370.07 578.8"/><polygon class="cls-3" points="225.43 853.54 190.45 853.3 190.45 784.25 225.43 784.25 225.43 853.54"/><polygon class="cls-3" points="268.5 830.45 234.4 822.69 248.65 758.21 282.75 765.97 268.5 830.45"/><polygon class="cls-4" points="180.51 436.15 280.56 573.75 326.73 549.98 279.3 405.06 180.51 436.15"/><circle class="cls-4" cx="302.7" cy="560.26" r="26.11"/><path class="cls-4" d="M579.8,163.56c5.55-1.3,7.94-8.06,5.87-13.37s-8.29-8.45-13.37-5.87c-8.72,4.44-17.08,17.74-17.08,17.74S568.39,166.23,579.8,163.56Z"/><circle class="cls-3" cx="198.42" cy="586.61" r="27.5"/><polygon class="cls-4" points="152.15 425.31 171.34 591.45 225.93 586.63 226.08 433.08 152.15 425.31"/><polygon class="cls-4" points="225.52 802.45 225.66 535.5 171.34 591.45 190.45 802.45 225.52 802.45"/><polyline class="cls-3" points="99.28 436.8 162.06 345.83 125.84 324.44 80.11 431.81"/><circle class="cls-3" cx="145.23" cy="332.97" r="21.18" transform="translate(-205.18 237.2) rotate(-51.15)"/><polygon class="cls-4" points="225.93 586.63 225.52 802.45 172.25 802.45 171.34 591.45 225.93 586.63"/><polygon class="cls-4" points="328.33 565.47 280.64 775.21 228.69 763.46 274.33 557.46 328.33 565.47"/><polygon class="cls-9" points="226.01 498.74 226.08 433.08 273.07 563.43 226.01 498.74"/><rect class="cls-8" x="419.7" y="784.25" width="34.97" height="69.06"/><polyline class="cls-5" points="416.53 266.08 484.35 341.51 517.07 314.69 484.44 269.88"/><path class="cls-5" d="M457.86,233.42l26.58,36.46-35.33,32.44h0L417,266.56a26.35,26.35,0,0,1,6.3-40.38h0A26.36,26.36,0,0,1,457.86,233.42Z"/><circle class="cls-5" cx="500.06" cy="327.3" r="21.18" transform="translate(-96.36 365.59) rotate(-36.88)"/><circle class="cls-7" cx="425.77" cy="572.3" r="29.33"/><polyline class="cls-7" points="455.1 569.58 455.1 572.32 455.1 406.04 370.04 409.73 396.89 577.46 455.1 572.32"/><polygon class="cls-10" points="331.3 407.01 328.85 427.97 393.2 427.97 393.2 417.95 331.3 407.01"/><polygon class="cls-7" points="452.14 802.45 452.28 534.87 397.84 590.95 416.99 802.45 452.14 802.45"/><polyline class="cls-5" points="612.93 298.92 499.83 306.02 505.13 347.74 617.65 317.58"/><circle class="cls-5" cx="499.99" cy="327.19" r="21.18" transform="translate(163.67 821.09) rotate(-88.95)"/><path class="cls-10" d="M440.82,833.8h0a20.83,20.83,0,0,1-15.71.15l-5.45-2.15,0,22h73.2v0a10,10,0,0,0-6.45-9.41l-20.31-9.8a26.37,26.37,0,0,1-9.75-8.09l-1.71-2.32h0a5.62,5.62,0,0,0-4.25,1.91l-1.92,2.2A20.84,20.84,0,0,1,440.82,833.8Z"/><path class="cls-10" d="M301.24,834h0a20.88,20.88,0,0,1-15.71.15l-7.62-3-5,22.53,80.4.35h0a10,10,0,0,0-6.46-9.41l-20.31-9.81a26.33,26.33,0,0,1-9.75-8.08l-1.71-2.33h0a5.65,5.65,0,0,0-4.24,1.92l-1.92,2.2A21,21,0,0,1,301.24,834Z"/><polygon class="cls-7" points="455.1 572.32 454.66 802.45 397.86 802.45 396.89 577.46 455.1 572.32"/><polygon class="cls-7" points="387.43 518.35 401.99 467.74 396.89 577.46 387.43 518.35"/><polygon class="cls-10" points="387.43 518.35 401.99 467.74 396.89 577.46 387.43 518.35"/><path class="cls-9" d="M259.24,818.33l9.32-.76a6.28,6.28,0,0,1,4.84,1.82h0a5.32,5.32,0,0,1,0,7.51l-1.6,1.6h0s0,6.61,5.18,14.57l8.7,2.21a8.8,8.8,0,0,1,6.62,8.48H260.85l-35.44-41.21,14.65-14.64Z"/><path class="cls-6" d="M221.15,228.58l-3.58,25.92a22.84,22.84,0,0,0,13,23.85h0a22.85,22.85,0,0,0,32.28-17.6l1.66-12"/><rect class="cls-3" x="240.2" y="170.38" width="37.12" height="47.5" rx="18.56" transform="translate(-19.41 29) rotate(-6.18)"/><path class="cls-3" d="M257.69,245.57a19,19,0,0,1,7.2-28.41l3.34-1.59L241,202.76a29.43,29.43,0,0,1-7.22,22.67l-5.64,6.4-.73,9.28a14.32,14.32,0,0,0,9.1,14.48l1.9.74a14.33,14.33,0,0,0,19.26-10.76Z"/><path class="cls-3" d="M276.65,187c.53,4.89,5.42,10,5.42,10l-4.23,1.29"/><path class="cls-10" d="M250.59,219.58c.22-6.08.38-13.13.43-21,0-1.87-3.5-1.71-2.49-3.28,2.44-3.74,4.17-.57,7.48-1.64a8.54,8.54,0,0,0,7-8.56l17.93.12a26.53,26.53,0,0,0-47-13.77,24.07,24.07,0,0,0-5.27,12.48,31.46,31.46,0,0,1-5.68,14.17,14.44,14.44,0,0,0,2.43,19.41h0a14.51,14.51,0,0,0,10.7,3.4Z"/><circle class="cls-3" cx="251.06" cy="193.61" r="4.95"/><path class="cls-9" d="M216.06,831.94l-25.65-.14,0,21.5,73.2.49h0a10,10,0,0,0-6.45-9.41L231,831.74v-2.26a5.3,5.3,0,0,0-5.3-5.32h0a6.27,6.27,0,0,0-4.71,2.13Z"/><polyline class="cls-3" points="601.11 251.64 625.71 350.05 585.18 362.17 566.29 310.07"/><path class="cls-6" d="M550.92,267.64l16,44.23,46-12.81-11.72-46.79a26.36,26.36,0,0,0-37-17.36h0A26.36,26.36,0,0,0,550.92,267.64Z"/><circle class="cls-3" cx="605.15" cy="355.12" r="21.18" transform="translate(-82.93 217.76) rotate(-19.12)"/><circle class="cls-3" cx="584.22" cy="586.61" r="27.5"/><polygon class="cls-5" points="537.94 425.31 557.14 591.45 611.73 586.63 612.11 419.16 537.94 425.31"/><circle class="cls-3" cx="509.67" cy="586.61" r="27.5"/><polygon class="cls-5" points="555.95 425.31 536.75 591.45 482.17 586.63 481.95 421.05 555.95 425.31"/><circle class="cls-6" cx="546.98" cy="421.05" r="65.03"/><polygon class="cls-6" points="576.72 232.24 610.46 406.81 483.81 406.85 511.02 230.73 576.72 232.24"/><rect class="cls-3" x="517.25" y="157.35" width="37.12" height="47.5" rx="18.56" transform="translate(976.04 536.21) rotate(-159.78)"/><path class="cls-3" d="M524.28,202l-2.86-2.35,29.51-5.83c-2.87,7.77-4.47,18.09-.65,25.44l6.35,12.56s-18.28,9-32.14-.74C524.49,231,534,216.14,524.28,202Z"/><path class="cls-3" d="M520.19,169.82c-1.7,4.61-7.68,8.38-7.68,8.38l3.79,2.27"/><path class="cls-4" d="M579.93,203.31c-20.44-7.51-11.21-24.85-15.2-37.27-2.5-7.79-7.32-12.24-14-14.7a26.31,26.31,0,0,0-3-.9,26.63,26.63,0,0,0-31.27,16.7l17.5,4.25a8.57,8.57,0,0,0,4.7,10c3,1.85,5.42-.81,6.88,3.43.61,1.77-2.78.76-3.22,2.58-.77,3.19-3.68,11.25-3.69,18.81v.32a30.36,30.36,0,0,0,9,21.27,13.93,13.93,0,0,0,9.87,4l19.72.53Z"/><circle class="cls-3" cx="543.41" cy="182.47" r="4.95"/><polygon class="cls-3" points="524.49 231.04 539.75 290.95 557.5 231.8 524.49 231.04"/><polygon class="cls-7" points="590.85 305.23 585.32 274.96 602.26 302.03 590.85 305.23"/><path class="cls-5" d="M331.3,407.07l21.07,10.72A93.8,93.8,0,0,0,455.09,406.1h0L437.24,222.52H354.8Z"/><polygon class="cls-4" points="444.66 300.94 440.04 254.39 466.14 321.33 444.66 300.94"/><polygon class="cls-4" points="347.17 282.79 351.09 254.39 302.87 307.55 347.17 282.79"/><rect class="cls-8" x="378.18" y="148.26" width="37.12" height="47.5" rx="18.56" transform="translate(-35.6 180.25) rotate(-24.53)"/><path class="cls-8" d="M416.16,169.91l3.61-2.56s-6.25-3.3-8.29-7.77Z"/><path class="cls-8" d="M412.48,189.38h0l-29.86-3.6a29.42,29.42,0,0,1,.28,23.79l-6,12.91,1.29,1.56A21,21,0,0,0,412,222.48h0s-10.42-10.57-4.86-25.26A21.58,21.58,0,0,1,412.48,189.38Z"/><path class="cls-6" d="M395.16,59.93v8H410.1L388.32,89.71a21.39,21.39,0,1,0,3.09,32.81h0A21.4,21.4,0,0,0,394,95.38l21.79-21.79V88.53h8V59.93Zm-9.4,56.94a13.38,13.38,0,1,1,0-18.94A13.41,13.41,0,0,1,385.76,116.87Z"/><path class="cls-5" d="M570.7,96.92a21.39,21.39,0,1,0-8,0v9H549.3v8h13.4v23.39h8V113.87h13.39v-8H570.7Zm-17.39-21A13.39,13.39,0,1,1,566.7,89.31,13.4,13.4,0,0,1,553.31,75.92Z"/><path class="cls-4" d="M259.19,104.63V95.68h13.4v-8h-13.4V73.81l10.57,10.57,5.66-5.66L255.19,58.5,235,78.72l5.65,5.66,10.57-10.57V87.68h-13.4v8h13.4v8.95a21.39,21.39,0,1,0,8,0Zm-4,34.39a13.39,13.39,0,1,1,13.39-13.39A13.4,13.4,0,0,1,255.19,139Z"/><polygon class="cls-4" points="153.61 402.61 205.18 221.45 195.63 396.32 153.61 402.61"/><path class="cls-9" d="M403.29,135.94c-6.18.41-12.05,3.74-17.36,7.23l-.75-4.56c-5.74.73-10.07,7.1-8.62,12.7-2.52-2-6.63-2.24-8.72.19s-1.4,6-.5,8.94c3,9.84,17.3,31.07,17.3,31.07h0a9,9,0,0,0,5.53-6c2.24-8,1.28-16,1.29-17.64,0-3.06-.07-6.11-.21-9.17a72.32,72.32,0,0,0,15.92,1.41,18.21,18.21,0,0,0,17.49-16.22l.49-4.35A50.44,50.44,0,0,0,403.29,135.94Z"/><circle class="cls-8" cx="389.28" cy="173.94" r="4.95"/><polygon class="cls-6" points="419.67 811.01 419.67 802.45 454.5 802.45 419.67 811.01"/><polygon class="cls-2" points="190.55 811.01 190.55 802.45 225.38 802.45 190.55 811.01"/><polygon class="cls-6" points="283.85 804.22 285.71 795.8 319.85 803.39 283.85 804.22"/><polygon class="cls-2" points="244.77 776.03 246.63 767.61 280.77 775.2 244.77 776.03"/><path class="cls-7" d="M672.51,733.39h0a447.4,447.4,0,0,0-141.16-9l-99.56,9.52S515.13,758,672.51,733.39Z"/><polygon class="cls-3" points="611.23 853.54 576.25 852.74 576.25 617.76 611.23 617.76 611.23 853.54"/><polygon class="cls-3" points="482.67 853.54 517.64 852.66 517.64 593.67 482.67 593.67 482.67 853.54"/><path class="cls-4" d="M643,844.38l-31.77-13.69-4.63,2.71a24.85,24.85,0,0,1-24.08.58l-6.3-3.29,0,22.61,73.2.49h0A10,10,0,0,0,643,844.38Z"/><path class="cls-4" d="M486,829.68l-3.32-1.36v18.06h35V828.32l-3.3,1.35A37.6,37.6,0,0,1,486,829.68Z"/><path class="cls-5" d="M622.07,838.46l-.92-.41c.08-.18.16-.37.25-.56q.4-.91.75-1.89a11.14,11.14,0,0,1-3-1.63c-2.64-2-4-5.11-4.16-9.19a7.1,7.1,0,0,1,1.95-5.17,4.38,4.38,0,0,1,3.37-1.3c3,.16,4.81,2.59,4.85,6.66a31.91,31.91,0,0,1-1.26,8.56c3.28-4.26,8.42-8.11,13.36-7.43a3.62,3.62,0,0,1,3.21,2.36,4.07,4.07,0,0,1-1.47,4.11,17.43,17.43,0,0,1-7.29,3.47,18.11,18.11,0,0,1-8.31-.06c-.4.65-.76,1.3-1.06,1.92Zm1.9-3.37a17.55,17.55,0,0,0,7.47,0,16.3,16.3,0,0,0,6.86-3.25,3.06,3.06,0,0,0,1.18-3.06,2.66,2.66,0,0,0-2.39-1.67C632.31,826.45,627.05,830.67,624,835.09ZM620,819.3a3.36,3.36,0,0,0-2.42,1,6.14,6.14,0,0,0-1.65,4.43c.11,3.77,1.37,6.6,3.76,8.43a10.49,10.49,0,0,0,2.76,1.47,31.28,31.28,0,0,0,1.65-9.67c0-2-.55-5.5-3.9-5.67Z"/><path class="cls-5" d="M499.4,844.46l-1-.07c0-.2,0-.4.05-.61,0-.67.06-1.35.06-2a11.2,11.2,0,0,1-3.41-.51c-3.16-1-5.53-3.44-7-7.24a7.15,7.15,0,0,1,.08-5.53,4.4,4.4,0,0,1,2.73-2.36c2.92-.88,5.41.81,6.82,4.63a31.1,31.1,0,0,1,1.71,8.48c1.65-5.12,5.18-10.48,10.06-11.52a3.62,3.62,0,0,1,3.82,1.14,4,4,0,0,1,0,4.36,17.46,17.46,0,0,1-5.68,5.73,18.17,18.17,0,0,1-7.84,2.76,20.31,20.31,0,0,0-.35,2.17C499.43,844.06,499.41,844.26,499.4,844.46Zm-7-17.58a4,4,0,0,0-1.18.19,3.36,3.36,0,0,0-2.12,1.84,6.07,6.07,0,0,0-.05,4.72c1.38,3.51,3.53,5.75,6.39,6.66a10.28,10.28,0,0,0,3.09.45h0a31.81,31.81,0,0,0-1.72-9.66C496.16,829.42,494.81,826.88,492.36,826.88Zm18.2,1.7a4.47,4.47,0,0,0-.87.1c-4.7,1-8.24,6.76-9.65,12a17.44,17.44,0,0,0,7-2.55,16.38,16.38,0,0,0,5.36-5.38,3.08,3.08,0,0,0,.07-3.28A2.32,2.32,0,0,0,510.56,828.58Z"/><path class="cls-4" d="M491.71,841.64h17.24a12.2,12.2,0,0,1,12.2,12.2v0a0,0,0,0,1,0,0H479.51a0,0,0,0,1,0,0v0A12.2,12.2,0,0,1,491.71,841.64Z"/><path class="cls-2" d="M482.67,742.05c10.17.94,21.83,1.71,35,2.11V725.7l-35,3.34Z"/><path class="cls-2" d="M576.25,743.5c11-.56,22.71-1.37,35-2.5V724q-17.44-1.47-35-1.57Z"/><path class="cls-6" d="M531.44,724.41a447.39,447.39,0,0,1,140.88,8.92L590.6,303.88,501.1,296l-69.48,438,.82.15-.56-.15Z"/><path class="cls-3" d="M86.8,433.88l12.89-2.06.38,6.92a21.88,21.88,0,0,1-.45,5.76l-4.54,21-.74,0a2.36,2.36,0,0,1-2.24-2.33l0-6.57a1.78,1.78,0,0,0-2.48-1.65h0a1.74,1.74,0,0,0-.87.8L78.47,475.05a1.47,1.47,0,0,1-1.81.64h0a1.45,1.45,0,0,1-.85-1.81l10.7-29.75"/><path class="cls-3" d="M84.28,454,71.59,475.07a1.47,1.47,0,0,1-1.83.58h0a1.46,1.46,0,0,1-.79-1.84l13.14-29.69"/><path class="cls-3" d="M79.07,454l-12.54,16.5a1.45,1.45,0,0,1-1.9.27h0a1.46,1.46,0,0,1-.47-1.95l16.35-28.59"/><path class="cls-3" d="M79.3,446.31,66.18,461.39a1.25,1.25,0,0,1-1.61.24h0a1.24,1.24,0,0,1-.41-1.65l11.6-20.38"/><polyline class="cls-3" points="70.68 448.5 80.3 431.61 92.74 421.38"/><polygon class="cls-3" points="83.29 430.32 92.95 433.21 84.22 455.96 69.95 450.36 83.29 430.32"/><rect class="cls-3" x="83.14" y="853.29" width="626.51" height="1"/></g></g></svg>