<svg width="23" height="23" viewBox="0 0 23 23" fill="none" xmlns="http://www.w3.org/2000/svg">
<g opacity="0.5" clip-path="url(#clip0)">
<g clip-path="url(#clip1)">
<g clip-path="url(#clip2)">
<path d="M9.62358 0C5.97279 0 3 2.97279 3 6.62358C3 7.92744 3.39116 9.15306 4.04308 10.1701C4.48639 9.43991 5.03401 8.76191 5.65986 8.18821C5.47732 7.69275 5.34694 7.1712 5.34694 6.62358C5.34694 4.27664 7.27664 2.34694 9.62358 2.34694C11.9705 2.34694 13.9002 4.27664 13.9002 6.62358C13.9002 8.97052 11.9966 10.9002 9.62358 10.9002C8.81519 10.9002 8.05896 10.6655 7.40703 10.2744C6.83333 10.822 6.36395 11.4739 6.05102 12.2041C7.0941 12.8821 8.31973 13.2732 9.62358 13.2732C13.2744 13.2732 16.2472 10.3005 16.2472 6.64966C16.2472 2.97279 13.2744 0 9.62358 0Z" fill="#2541B2"/>
<path d="M16.3515 7.74489C16.2211 8.57936 15.9342 9.36167 15.517 10.0658C16.7426 11.1871 17.5249 12.7778 17.5249 14.5771C17.4989 17.915 14.7868 20.6531 11.4229 20.6531C8.08504 20.6531 5.34694 17.941 5.34694 14.5771C5.34694 11.2392 8.05896 8.50113 11.4229 8.50113C12.0227 8.50113 12.5703 8.57936 13.1179 8.73582C13.483 8.10997 13.7177 7.40589 13.7177 6.62358C13.7177 6.57142 13.7177 6.51927 13.7177 6.46711C12.9875 6.2585 12.2313 6.15419 11.4229 6.15419C6.78118 6.15419 3 9.93537 3 14.5771C3 19.2188 6.78118 23 11.4229 23C16.0646 23 19.8458 19.2188 19.8458 14.5771C19.8458 11.7608 18.4637 9.25736 16.3515 7.74489Z" fill="#2541B2"/>
</g>
</g>
</g>
<defs>
<clipPath id="clip0">
<rect width="23" height="23" fill="white"/>
</clipPath>
<clipPath id="clip1">
<rect width="23" height="23" fill="white"/>
</clipPath>
<clipPath id="clip2">
<rect width="23" height="23" fill="white"/>
</clipPath>
</defs>
</svg>
