<svg xmlns="http://www.w3.org/2000/svg" viewBox="0 0 718.56 733.96"><defs><style>.cls-1{fill:#faf8fa;}.cls-2{fill:#f0cef2;}.cls-3{fill:#e8aaee;}.cls-4{fill:#59337e;}.cls-5{fill:#d66be8;}.cls-6{fill:#9b46c3;}.cls-7{fill:#809ce6;}.cls-8{fill:#fff;opacity:0.2;}.cls-9{fill:#567ad0;}.cls-10{fill:#bbc6ee;}</style></defs><g id="Layer_2" data-name="Layer 2"><g id="ARTWORK"><path class="cls-1" d="M498.81,443.29c-1,24.89-43.63,120.74-119.28,79.06C315.36,487,231.71,509.18,234.42,582.46c11.54,101.1,145.63,147,233.63,121.19,106.15-39.51,199.16-143.5,200.76-260.36C669.84,333.22,497.81,333,498.81,443.29Z"/><path class="cls-1" d="M185.3,479.68c-10.7,30.76-39.09,54.65-71.23,59.94s-66.69-8.24-86.69-34a117,117,0,0,1-16.33-29.83c-18.78-48.64-12.69-105,11.22-151.39s64.44-82.89,110.54-107.25c41.91-22.16,89.87-34.89,137-29.38s92.89,30.83,117.16,71.56c17.71,29.74,23.1,65.23,24.22,99.83.44,13.59.22,27.53-4.57,40.25-11.92,31.64-48.3,46.8-81.87,50.91A230.29,230.29,0,0,1,253,447.8c-11-2.15-22.1-4.78-32.35-9.48-8.76-4-14.77-1.66-21,5.8C191.19,454.15,189.47,467.69,185.3,479.68Z"/><path class="cls-1" d="M459.5,229.12l.37.61c12.84,21.19,32.15,40.06,55.19,49.64,29.05,12.08,61.69,13.26,92.82,8.72,62.28-9.07,110.64-51.82,110.68-117.36,0-56-33.1-113.32-82.21-140.52C606.76,13.82,572.84,6.9,539.2,3.38,479.17-2.91,413.84-1.49,356,16.93c-36.76,11.7-58.51,38.37-54,77.85,3.76,32.9,26,68.9,60.87,74.76,15.39,2.59,31.56-.4,46.52,4C436.49,181.63,446.31,207.17,459.5,229.12Z"/><path class="cls-2" d="M628.08,396.47a30.67,30.67,0,0,0-36.66-30,18.73,18.73,0,0,1,1.26,25.06h0a18.74,18.74,0,1,0,30.15,22.11h0A30.51,30.51,0,0,0,628.08,396.47Z"/><path class="cls-3" d="M614.47,371a30.61,30.61,0,0,1-.07,34.15h0a18.7,18.7,0,0,1-24.2,6.8,18.73,18.73,0,0,0,32.64,1.64h0A30.64,30.64,0,0,0,614.47,371Z"/><path class="cls-4" d="M611,409.58h0a0,0,0,0,1,0,0V444.1a2.89,2.89,0,0,1-2.89,2.89h0a2.89,2.89,0,0,1-2.89-2.89V415.36a5.78,5.78,0,0,1,5.78-5.78Z"/><path class="cls-3" d="M573.77,430h68.87a39.24,39.24,0,0,1,39.24,39.24V613.4a0,0,0,0,1,0,0H534.52a0,0,0,0,1,0,0V469.27A39.24,39.24,0,0,1,573.77,430Z"/><path class="cls-5" d="M661.53,500.41l20.36,5.8V469.27a39.11,39.11,0,0,0-2.56-13.94l-17.8,25.44Z"/><polygon class="cls-6" points="715.45 572.88 501.74 572.88 558.68 645.26 501.74 717.64 715.45 717.64 658.51 645.26 715.45 572.88"/><rect class="cls-5" x="501.52" y="717.67" width="213.93" height="16.18"/><path class="cls-5" d="M517.72,556.94H699.39a15.95,15.95,0,0,1,15.95,15.95v0a0,0,0,0,1,0,0H501.77a0,0,0,0,1,0,0v0A15.95,15.95,0,0,1,517.72,556.94Z"/><path class="cls-2" d="M385,74.88a32.77,32.77,0,0,1,39.21-32.3,20,20,0,0,0-1.34,26.8h0A20.05,20.05,0,1,1,390.63,93h0A32.7,32.7,0,0,1,385,74.88Z"/><path class="cls-3" d="M422.89,69.38h0A19.33,19.33,0,0,1,421.22,67a20,20,0,0,1-33.81,20A32.84,32.84,0,0,0,390.63,93h0a20.05,20.05,0,1,0,32.26-23.65Z"/><path class="cls-4" d="M409.83,85.78h0a0,0,0,0,1,0,0v41.54a3.48,3.48,0,0,1-3.48,3.48h0a3.48,3.48,0,0,1-3.48-3.48V92.73a7,7,0,0,1,7-7Z"/><path class="cls-5" d="M370.74,187.46v68.88a50.88,50.88,0,0,1-8,27.59,51.56,51.56,0,0,0-8.24,28H458.23A51.73,51.73,0,0,0,442,274.26V152.77a22.64,22.64,0,0,0-13.46-20.69l-12.25-5.43-8-11.23a21,21,0,0,0-15.39-8.9A20.52,20.52,0,0,0,370.74,127h0a37.72,37.72,0,0,1-11.24,26.86l-2.76,2.72a18.15,18.15,0,0,0,0,25.66h0a18.06,18.06,0,0,0,14,5.25"/><path class="cls-6" d="M394.33,312a20.62,20.62,0,0,0-41.24,0Z"/><polygon class="cls-6" points="370.77 187.38 370.77 204.72 383.63 174.85 370.77 187.38"/><path class="cls-5" d="M389.68,312a24.79,24.79,0,1,0-49.57,0Z"/><path class="cls-7" d="M517.11,698.8H510.8a70.33,70.33,0,0,1-65.62-45l-14.09-36.54H382l-13.41,35.87A70.32,70.32,0,0,1,302.7,698.8h0v34.91H517.11Z"/><path class="cls-7" d="M444.62,593.06l-17.58-47H386.45l-17.58,47a40.32,40.32,0,0,0,37.77,54.44h.22A40.31,40.31,0,0,0,444.62,593.06Z"/><circle class="cls-7" cx="407.02" cy="531.67" r="36.9"/><path class="cls-7" d="M449.67,451.12l-19.92-53.27h-46l-19.93,53.27a45.7,45.7,0,0,0,42.8,61.7h.26A45.69,45.69,0,0,0,449.67,451.12Z"/><path class="cls-7" d="M444.62,371.59l-17.58-47H386.45l-17.58,47A40.32,40.32,0,0,0,406.64,426h.22A40.31,40.31,0,0,0,444.62,371.59Z"/><rect class="cls-7" x="382.22" y="340.47" width="49.34" height="393.26"/><rect class="cls-8" x="384.44" y="311.97" width="14.71" height="421.99"/><path class="cls-7" d="M320.09,312H493.68a0,0,0,0,1,0,0v0a28.6,28.6,0,0,1-28.6,28.6H348.69a28.6,28.6,0,0,1-28.6-28.6v0A0,0,0,0,1,320.09,312Z"/><polygon class="cls-9" points="375.7 353.33 437.8 353.33 433.04 340.6 380.46 340.6 375.7 353.33"/><polygon class="cls-9" points="372.91 426.83 440.59 426.83 435.83 414.09 377.67 414.09 372.91 426.83"/><path class="cls-9" d="M372.77,517.94h68.5a36.89,36.89,0,0,0-8.54-12.73H381.31A36.75,36.75,0,0,0,372.77,517.94Z"/><polygon class="cls-9" points="377.04 571.23 436.46 571.23 431.7 558.5 381.8 558.5 377.04 571.23"/><polygon class="cls-9" points="371.17 646.16 442.25 646.16 437.33 633.43 375.93 633.43 371.17 646.16"/><path class="cls-2" d="M247,256.89a27.45,27.45,0,0,0-27.45-27.45,28.15,28.15,0,0,0-5.39.53,16.81,16.81,0,0,1,1.12,22.46h0a16.8,16.8,0,1,0,27,19.81h0A27.32,27.32,0,0,0,247,256.89Z"/><path class="cls-3" d="M234.8,234.07a27.46,27.46,0,0,1-.06,30.61h0a16.77,16.77,0,0,1-21.69,6.1,16.78,16.78,0,0,0,29.25,1.47h0a27.46,27.46,0,0,0-7.5-38.17Z"/><path class="cls-4" d="M231.65,264.41h0a0,0,0,0,1,0,0v41.54a3.48,3.48,0,0,1-3.48,3.48h0a3.48,3.48,0,0,1-3.48-3.48V271.36A7,7,0,0,1,231.65,264.41Z"/><path class="cls-10" d="M240.68,298.11v-7.26a5.27,5.27,0,0,0-5.27-5.26H222.86a5.27,5.27,0,0,0-5.27,5.26v7.26c0,7.79-8.1,14.1-18.08,14.1h0v374h59.25v-374h0C248.78,312.21,240.68,305.9,240.68,298.11Z"/><path class="cls-6" d="M301.78,698.71a21.17,21.17,0,0,1-21.17-21.17h0a21.17,21.17,0,0,1,21.17-21.17h1.77V621.12H157.23v35.25H159a21.17,21.17,0,0,1,21.17,21.17h0A21.17,21.17,0,0,1,159,698.71"/><path class="cls-6" d="M159,698.71H123.14L84.56,734H333.11a35.25,35.25,0,0,0,35.25-35.25H159Z"/><path class="cls-3" d="M672.33,443.57l16.17,21.71a20.63,20.63,0,0,1-7.5,30.85l-9,4.39h0a11.27,11.27,0,0,1-15.69-14Z"/><polygon class="cls-4" points="546.85 660.03 670.12 660.03 675.88 667.57 541.09 667.57 546.85 660.03"/><rect class="cls-5" x="534.21" y="630.02" width="149.68" height="30.48" rx="15.24"/><polygon class="cls-7" points="258.76 493.54 258.65 621.23 235.59 621.23 258.76 493.54"/><path class="cls-3" d="M543.54,489.21l-14.93,20.06a19,19,0,0,0,6.92,28.49l8.31,4.06h0a10.42,10.42,0,0,0,14.5-12.92Z"/><path class="cls-4" d="M162.42,656.65a21.15,21.15,0,0,1,12.67,7.15h110.6a21.18,21.18,0,0,1,12.68-7.15Z"/><path class="cls-4" d="M285.93,691.56H174.86A21.08,21.08,0,0,1,159,698.71H301.78A21.07,21.07,0,0,1,285.93,691.56Z"/><path class="cls-6" d="M84.56,734c-1.22,0-2.46-.05-3.69-.14a45.78,45.78,0,0,1-41.76-41.89,45.06,45.06,0,0,1,7.52-28.79l6.42-9.61-9.92-5.94A58.43,58.43,0,0,1,18.26,617.5a6.51,6.51,0,0,1,6.11-8.73,6.67,6.67,0,0,1,6.2,4.55,45.23,45.23,0,0,0,42.26,29.47H83.62a47.2,47.2,0,0,1,33.19,13.92,44.7,44.7,0,0,1,13.33,31.84A45.66,45.66,0,0,1,84.56,734Zm0-78.17a32.59,32.59,0,1,0,32.58,32.59A32.63,32.63,0,0,0,84.56,655.79Z"/><rect class="cls-8" x="366.35" y="311.97" width="14.71" height="28.6"/></g></g></svg>