<svg width="30" height="29" viewBox="0 0 30 29" fill="none" xmlns="http://www.w3.org/2000/svg">
<path d="M7.19955 0C3.23129 0 0 3.23129 0 7.19955C0 8.61678 0.42517 9.94898 1.13379 11.0544C1.61565 10.2608 2.21088 9.52381 2.89116 8.90023C2.69274 8.36168 2.55102 7.79479 2.55102 7.19955C2.55102 4.64853 4.64853 2.55102 7.19955 2.55102C9.75057 2.55102 11.8481 4.64853 11.8481 7.19955C11.8481 9.75057 9.77891 11.8481 7.19955 11.8481C6.32086 11.8481 5.49887 11.593 4.79025 11.1678C4.16667 11.763 3.65646 12.4717 3.31633 13.2653C4.45011 14.0023 5.78231 14.4274 7.19955 14.4274C11.1678 14.4274 14.3991 11.1961 14.3991 7.22789C14.3991 3.23129 11.1678 0 7.19955 0Z" fill="#5865F6"/>
<path d="M25.7732 12.4184C25.6315 13.3254 25.3197 14.1758 24.8662 14.9411C26.1984 16.1599 27.0487 17.8889 27.0487 19.8447C27.0204 23.4728 24.0725 26.449 20.4161 26.449C16.788 26.449 13.8118 23.5012 13.8118 19.8447C13.8118 16.2166 16.7596 13.2404 20.4161 13.2404C21.068 13.2404 21.6632 13.3254 22.2585 13.4955C22.6553 12.8152 22.9104 12.0499 22.9104 11.1996C22.9104 11.1429 22.9104 11.0862 22.9104 11.0295C22.1168 10.8028 21.2948 10.6894 20.4161 10.6894C15.3707 10.6894 11.2607 14.7994 11.2607 19.8447C11.2607 24.8901 15.3707 29.0001 20.4161 29.0001C25.4614 29.0001 29.5714 24.8901 29.5714 19.8447C29.5714 16.7835 28.0691 14.0624 25.7732 12.4184Z" fill="#5865F6"/>
</svg>
