<svg width="25" height="24" viewBox="0 0 25 24" fill="none" xmlns="http://www.w3.org/2000/svg">
<path d="M12.5 23L3 17.5V6.5L12.5 1L22 6.5V17.5L12.5 23ZM12.5 3.312L5 7.653V16.347L12.5 20.689L20 16.347V7.653L12.5 3.311V3.312ZM12.5 16C11.4395 15.997 10.4229 15.5759 9.671 14.828C8.52724 13.6839 8.18525 11.9635 8.80448 10.4689C9.42371 8.97436 10.8822 8 12.5 8C13.5603 8.00284 14.5765 8.42402 15.328 9.172C16.8895 10.734 16.8895 13.266 15.328 14.828C14.5764 15.5757 13.5602 15.9968 12.5 16ZM12.5 10C11.5458 9.9998 10.7244 10.6736 10.5381 11.6094C10.3517 12.5452 10.8524 13.4823 11.7339 13.8476C12.6153 14.2129 13.6321 13.9047 14.1623 13.1114C14.6926 12.3182 14.5886 11.2608 13.914 10.586C13.5398 10.2098 13.0307 9.99879 12.5 10Z" fill="white"/>
</svg>
