<svg xmlns="http://www.w3.org/2000/svg" viewBox="0 0 892.99 841.57"><defs><style>.cls-1,.cls-12{fill:#faf8fa;}.cls-2{fill:#59337e;}.cls-3{fill:#809ce6;}.cls-4{fill:#567ad0;}.cls-5{fill:#bbc6ee;}.cls-6{fill:#f0cef2;}.cls-7{fill:#e8aaee;}.cls-8{fill:#415c9c;}.cls-14,.cls-9{fill:#9b46c3;}.cls-10,.cls-13{fill:none;stroke-miterlimit:10;}.cls-10{stroke:#59337e;stroke-width:6px;}.cls-11{fill:#d66be8;}.cls-12{opacity:0.43;}.cls-13{stroke:#809ce6;stroke-width:16px;}.cls-14{opacity:0.36;}.cls-15{fill:#fff;}</style></defs><g id="Layer_2" data-name="Layer 2"><g id="ARTWORK"><path class="cls-1" d="M766.65,147.26c-14.87-5.07-24.46-12-26.56-27.76C724.73,57,637.26,38.37,597.81,89.3,523.48,213.73,623.09,402.92,767,417c67.94,6.63,134.87-56.66,125-126.44C883.46,229.62,823,166.49,766.65,147.26Z"/><path class="cls-1" d="M387.4,32c61.68-6.81,129.86,12.86,150.18,78.25,11.15,35.9,2.23,77.35-22.72,105.48-50.32,56.74-135.59,49.37-201.63,72.34-53,18.42-82.83,56.54-92,110.84-6.27,37.26-20.47,60.82-58.62,70.3C116.32,480.75,49.31,482.74,17.8,439.68-7.6,405-2,355.68,11,317.36c19.24-56.7,54.71-107.16,97.43-148.68A497.6,497.6,0,0,1,274.91,62.22C308.06,49.36,347.94,36.38,387.4,32Z"/><path class="cls-2" d="M222.7,428.11l22.39-48a41.47,41.47,0,0,1,37.6-24H647.46a41.47,41.47,0,0,1,37.88,24.57l21.17,47.43Z"/><path class="cls-3" d="M807.3,513.92l-1.79,11.56a2,2,0,0,0,.89,2h0a2.23,2.23,0,0,0,3.37-1.16l4.88-22.28"/><path class="cls-3" d="M816.22,508.56l-4.61,24.37a2,2,0,0,0,.9,2h0a2.23,2.23,0,0,0,3.37-1.16l5.27-17.69"/><path class="cls-3" d="M813.28,505.48l-4.72,23.72a2,2,0,0,0,.89,2h0a2.23,2.23,0,0,0,3.37-1.15l4.71-21.52"/><path class="cls-4" d="M817.14,521.91,814,513.59c-.65-1.73,1.78-3,3-1.53l3.93,4.76-.31-14.25-10.31-1.33-4.15,9.5,2.26,5.06"/><path class="cls-5" d="M798.85,497.47l3.27,11.07A17.67,17.67,0,0,0,806,515.4l8.75,9.57.84-.45a2.79,2.79,0,0,0,1.23-3.78l-5.22-9.93a2.39,2.39,0,0,1,1.12-3.26h0a2.68,2.68,0,0,1,3.49,1l11.85,20.76a2.94,2.94,0,0,0,3.53,1.24l.37-.13-6.3-23.31a37.14,37.14,0,0,0-5.25-11.36l-4.14-6"/><polygon class="cls-4" points="814.76 524.97 806.35 520.07 806.92 516.39 814.76 524.97"/><path class="cls-2" d="M722.59,563.6h99.7a0,0,0,0,1,0,0V823.95a17.45,17.45,0,0,1-17.45,17.45H740a17.45,17.45,0,0,1-17.45-17.45V563.6A0,0,0,0,1,722.59,563.6Z"/><rect class="cls-2" x="722.27" y="563.6" width="100.02" height="205.41"/><rect class="cls-6" x="79.06" y="840.57" width="773.1" height="1"/><path class="cls-7" d="M600.91,488.2l5.91,15.08-.52.59a1.22,1.22,0,0,1-2-.27l-7.32-15"/><path class="cls-7" d="M601.83,491.77l3.64,15.82-.59.49a1.22,1.22,0,0,1-2-.56l-5.8-17.67"/><path class="cls-6" d="M580,438l18.13,42.68.26.62,1.91,4.63a27.51,27.51,0,0,1,2,8.44l1.23,16.79-.25.05A1.83,1.83,0,0,1,601.2,510l-5.06-15.67a1.67,1.67,0,0,0-2.1-1.09h0a1.71,1.71,0,0,0-1.09,2.11l2.13,7.44a2,2,0,0,1-1.23,2.47l-.58.21-4.42-7.59a12.76,12.76,0,0,1-1.65-5.18l-.9-8.57-25.91-36.51"/><ellipse class="cls-6" cx="569.42" cy="441.29" rx="10.97" ry="11.24"/><polyline class="cls-6" points="534.38 399.68 559.84 446.77 579.47 436.8 568.22 409.75"/><polygon class="cls-7" points="548.98 396.41 560.39 447.59 539.9 410.99 548.98 396.41"/><path class="cls-4" d="M559.05,387.72l9.17,22-21.61,12.56h0L534.55,400a14.09,14.09,0,0,1,7.88-20.12h0A13.55,13.55,0,0,1,559.05,387.72Z"/><polygon class="cls-2" points="548.98 396.41 539.67 409.45 546.61 422.31 546.61 422.31 553.82 418.12 548.98 396.41"/><path class="cls-7" d="M441.21,488.2l-5.9,15.08.51.59a1.22,1.22,0,0,0,2-.27l7.32-15"/><path class="cls-7" d="M440.3,491.77l-3.65,15.82.6.49a1.21,1.21,0,0,0,1.94-.56l5.8-17.67"/><path class="cls-6" d="M462.11,438,444,480.7l-.27.62L441.8,486a27.5,27.5,0,0,0-2,8.44l-1.23,16.79.25.05a1.83,1.83,0,0,0,2.09-1.26L446,494.3a1.65,1.65,0,0,1,2.09-1.09h0a1.72,1.72,0,0,1,1.1,2.11L447,502.76a2,2,0,0,0,1.23,2.47l.59.21,4.41-7.59a12.77,12.77,0,0,0,1.66-5.18l.89-8.57,25.92-36.51"/><ellipse class="cls-6" cx="472.71" cy="441.29" rx="10.97" ry="11.24"/><polyline class="cls-6" points="507.74 399.68 482.29 446.77 462.65 436.8 473.91 409.75"/><polygon class="cls-7" points="493.14 396.41 481.74 447.59 502.23 410.99 493.14 396.41"/><path class="cls-4" d="M483.08,387.72l-9.17,22,21.6,12.56h0L507.58,400a14.09,14.09,0,0,0-7.88-20.12h0A13.55,13.55,0,0,0,483.08,387.72Z"/><polygon class="cls-8" points="493.14 396.41 502.46 409.45 495.51 422.31 495.51 422.31 488.3 418.12 493.14 396.41"/><polygon class="cls-4" points="495.47 379.22 485.96 452.44 556.26 452.44 546.75 379.22 495.47 379.22"/><path class="cls-6" d="M516.85,368.82h0a15.6,15.6,0,0,0,18.58-13.1l1.37-9.09a17.31,17.31,0,0,0-13.7-19.38h0a15.61,15.61,0,0,0-18.58,13.1l-1.37,9.08A17.33,17.33,0,0,0,516.85,368.82Z"/><path class="cls-6" d="M513.29,379.14A22.08,22.08,0,0,0,512,370.6a19.49,19.49,0,0,0-4.74-7.33h0l26.11-3.22c-5.88,8.83-.74,18.84-.66,19.06l-15.3,11.21a3.58,3.58,0,0,1-5.57-3.69Z"/><path class="cls-9" d="M527.44,349.63l7.37,16.27c-.35-9.31,7.7-16.18,7-25.48,0-.36-.07-.72-.11-1.08a18.79,18.79,0,0,0-10.25-14.26,18.19,18.19,0,0,0-14.06-1,18.67,18.67,0,0,0-3.55,1.7l-6.43,7.43,0,0a14.38,14.38,0,0,0,12.37,4.45h0a11.2,11.2,0,0,0,6.42,11.35Z"/><polygon class="cls-4" points="538.89 393.89 558.04 393.89 546.75 379.25 538.89 379.25 538.89 393.89"/><ellipse class="cls-9" cx="512.19" cy="328.21" rx="7.18" ry="6.73" transform="translate(-7.54 12.07) rotate(-1.34)"/><path class="cls-6" d="M503.74,347.42l-3.78-1.5s4.63-4.3,5.3-8.73Z"/><path class="cls-9" d="M541.72,339.34l5,39.88H532.93a10.93,10.93,0,0,1-10.21-14.28L527,350.17"/><circle class="cls-6" cx="525.21" cy="348.05" r="4.54"/><line class="cls-10" x1="608.78" y1="260.36" x2="608.78" y2="282.38"/><line class="cls-10" x1="321.21" y1="260.36" x2="321.21" y2="282.38"/><polygon class="cls-9" points="536.85 439.46 469.91 439.46 468.22 452.44 538.53 452.44 536.85 439.46"/><polyline class="cls-5" points="438.44 403.53 457.35 442.04 473.37 434.7 465.2 412.68"/><path class="cls-9" d="M458.54,394.75l6.66,17.93L447.52,422h0l-9-18.26a11.27,11.27,0,0,1,6.93-15.85h0A10.87,10.87,0,0,1,458.54,394.75Z"/><ellipse class="cls-5" cx="465.19" cy="437.97" rx="8.79" ry="9"/><path class="cls-7" d="M354.65,465.84l-9.14,10.42.25.64a1.06,1.06,0,0,0,1.71.39l10.24-9.89"/><path class="cls-7" d="M352.88,468.45l-7.52,11.7.34.59a1,1,0,0,0,1.74.13l9.8-12.54"/><path class="cls-5" d="M353.05,468.86a27.13,27.13,0,0,1,4.77-7.13l3.39-3.62L381,427.82,395,438.74l-23.76,26.85-3.48,7.17a12.57,12.57,0,0,1-3.34,4.21l-6.74,5.46-.47-.41a2,2,0,0,1-.29-2.74l4.57-6.15a1.72,1.72,0,0,0-.29-2.36,1.64,1.64,0,0,0-2.33.25l-10.13,12.74a1.82,1.82,0,0,1-2.39.41l-.21-.14Z"/><polyline class="cls-5" points="422.01 405.73 394.95 438.74 381.01 427.82 393.91 408.32"/><path class="cls-9" d="M404.42,392.45l-10.51,15.87L409,421.59h0l12.83-15.65a11.35,11.35,0,0,0-3.18-17.06h0A10.77,10.77,0,0,0,404.42,392.45Z"/><ellipse class="cls-5" cx="388.24" cy="432.93" rx="8.79" ry="9"/><polygon class="cls-9" points="460.69 442.36 401.59 442.36 412.94 387.53 448.6 387.53 460.69 442.36"/><path class="cls-5" d="M439,374h0a14.27,14.27,0,0,1-19.1-7.3l-3.35-7.51a14.93,14.93,0,0,1,7.13-19.57h0a14.27,14.27,0,0,1,19.1,7.3l3.35,7.51A14.93,14.93,0,0,1,439,374Z"/><path class="cls-5" d="M446.44,355.15l2.8-2s-4.85-2.63-6.44-6.19Z"/><path class="cls-5" d="M438.58,387.57a19.31,19.31,0,0,1,.93-10.8,17,17,0,0,1,4.07-6.12h0l-23.19-2.86a24,24,0,0,1,.22,18.93l-.45.83,1,1a11.81,11.81,0,0,0,17.42-.94Z"/><path class="cls-8" d="M438.1,336a16.23,16.23,0,0,0-9.33-1.75,16.54,16.54,0,0,0-8.93,3.38,12.2,12.2,0,0,0-3.88,5.57l-.54.13a5.69,5.69,0,0,0-2.6,1.34,5.45,5.45,0,0,0-1.42,3.15,9.59,9.59,0,0,0,.14,3.7c2.07,7.33,11,23.57,11,23.57a5,5,0,0,0,3.23-4.5l.89-20.77c13.25.67,19.14-8.8,19.14-8.8Z"/><circle class="cls-5" cx="425.47" cy="358.26" r="3.7"/><path class="cls-3" d="M455.28,417.9l5.41,24.45c.78-8.28-1.14-17.75-3.41-25.5Z"/><path class="cls-2" d="M451.62,401.34l3.66,16.56,2-1A124.6,124.6,0,0,0,451.62,401.34Z"/><path class="cls-9" d="M310.59,311.68,273.24,389.8l8.95-5.81c21.46,1.05,40.52-14.92,43.8-36.71l3.08-20.49"/><polyline class="cls-6" points="332.4 418.43 408.13 473.75 432.06 442.48 393.94 408.06"/><path class="cls-3" d="M362.89,380l31.05,28L368.78,445h0l-35.89-26.22a25.15,25.15,0,0,1-2.41-38.32h0A23.75,23.75,0,0,1,362.89,380Z"/><ellipse class="cls-6" cx="419.35" cy="457.51" rx="19.42" ry="19.9"/><polyline class="cls-6" points="268.79 393.41 246.24 485.85 283.4 497.24 300.72 448.29"/><path class="cls-3" d="M314.81,408.44,300.1,450,258,437.82h0L268.65,394c3.71-15.22,20.12-23.11,33.92-16.31h0A25,25,0,0,1,314.81,408.44Z"/><ellipse class="cls-6" cx="265.09" cy="490.61" rx="19.42" ry="19.9"/><polygon class="cls-3" points="290.76 375.24 346.19 373.87 367.73 435.15 391.06 622.4 256.6 623.97 290.76 375.24"/><path class="cls-6" d="M336,348.59h0a16.61,16.61,0,0,1-20-13.19l-1.86-9.5a17.87,17.87,0,0,1,13.4-20.79h0a16.61,16.61,0,0,1,20,13.19l1.86,9.5A17.86,17.86,0,0,1,336,348.59Z"/><path class="cls-6" d="M341,346.85l2.62-2.22-27.05-5.47c2.62,7.3,4.1,17,.59,23.9l-5.82,11.8s16.76,8.43,29.46-.7C340.79,374.16,332.08,360.16,341,346.85Z"/><path class="cls-6" d="M347.53,318.3c.88,4.5,5.77,8.75,5.77,8.75l-3.76,1.64Z"/><path class="cls-6" d="M340.79,374.16,336,393.44a10.26,10.26,0,0,1-19.9.43l-5.57-19Z"/><polygon class="cls-4" points="281.2 444.61 286.6 416.32 269.61 441.25 281.2 444.61"/><polygon class="cls-4" points="369.18 444.27 363.55 406.68 377.19 432.7 369.18 444.27"/><path class="cls-9" d="M311.33,374.86A16.22,16.22,0,0,0,323,370a17.14,17.14,0,0,0,4.46-14.53l-4-26.91-4.82-12.85L309.28,322l-3.06,9.25,9.18,26.42L286.52,375.1Z"/><path class="cls-9" d="M308.41,326.2a22,22,0,0,1,4.9-18.53,21.24,21.24,0,0,1,9.18-6.34,20.79,20.79,0,0,1,9.76-1,20.47,20.47,0,0,1,15.94,12.2l-16,2.9.5,3.27a5.28,5.28,0,0,1-4.17,6l-8.43,1.62"/><circle class="cls-6" cx="324.76" cy="327.73" r="4.54"/><polyline class="cls-5" points="798.57 497.91 723.59 420.56 756.22 394.74 816.51 490.03"/><line class="cls-5" x1="799.06" y1="498.18" x2="798.71" y2="497.83"/><polyline class="cls-5" points="647.77 432.04 746.17 425.99 740.2 385.18 685.34 380.68"/><path class="cls-9" d="M646.59,379.38a25.93,25.93,0,0,0-26.36,22.83h0c-2.19,16.56,11,31,27.28,29.84l37.89-2.9V380.68Z"/><ellipse class="cls-5" cx="738.76" cy="406.34" rx="20.68" ry="21.19"/><polyline class="cls-5" points="530.02 393.57 487.13 485.06 522.25 507.3 551.84 457.85"/><path class="cls-9" d="M574.89,419.37,555.55,455l-54.07-.67,7.93-16.76,20.34-43.36a25.42,25.42,0,0,1,38.8-9.56h0A26.81,26.81,0,0,1,574.89,419.37Z"/><polygon class="cls-2" points="538.47 454.74 555.55 454.95 564.54 438.41 550.64 413.77 538.47 454.74"/><polygon class="cls-3" points="538.47 454.74 523.51 505.11 555.55 454.95 538.47 454.74"/><polygon class="cls-9" points="645.46 379.36 553.21 379.21 532.06 562.84 653.13 562.9 653.13 562.9 645.46 379.36"/><path class="cls-5" d="M585.4,349.34h0A18.39,18.39,0,0,0,607,334.43l1.65-10.19c1.64-10.06-5.39-19.7-15.69-21.53h0a18.4,18.4,0,0,0-21.62,14.91l-1.65,10.19C568.07,337.87,575.1,347.51,585.4,349.34Z"/><path class="cls-5" d="M569.58,328.76l-4.23-1.59s5.23-4.72,6-9.55Z"/><path class="cls-5" d="M577.62,346.06h0l21.72-15.91,7.14,11.79c-3.49,7.54-2.16,16.71,1.14,24.33l6.07,12.92-1.31,1.55a21.45,21.45,0,0,1-34.31-1.55h0S588.64,368.6,583,353.9A21.63,21.63,0,0,0,577.62,346.06Z"/><path class="cls-8" d="M604,303.29s-3.54-5.79-12-6.26-17.73,6.11-18.59,14.59l17.49.24c-2.38,5.93,2.87,10.69,2.87,10.69,2.51,1.91,12.65,19.38,12.65,19.38s9.59-17.05,7.77-28.42A12,12,0,0,0,604,303.29Z"/><ellipse class="cls-8" cx="573.31" cy="305.16" rx="6.37" ry="6.57" transform="translate(60.07 703.14) rotate(-65.82)"/><ellipse class="cls-5" cx="597.04" cy="326.07" rx="4.92" ry="5.07" transform="translate(55 737.13) rotate(-65.82)"/><ellipse class="cls-2" cx="593.7" cy="446.22" rx="56.16" ry="57.54"/><path class="cls-2" d="M126.5,563.6h64.79a17.45,17.45,0,0,1,17.45,17.45V841.4a0,0,0,0,1,0,0H109a0,0,0,0,1,0,0V581.05A17.45,17.45,0,0,1,126.5,563.6Z" transform="translate(317.79 1405) rotate(-180)"/><path class="cls-9" d="M822.29,563.6a104.42,104.42,0,0,0-29.76-73.19L731.3,428.17H200L138.8,490.41a104.41,104.41,0,0,0-29.75,73.19l9.17,58.25h694.9Z"/><path class="cls-9" d="M118.22,621.85l8.37,53.25C135.48,731.53,183,773,238.82,773H692.51c55.8,0,103.35-41.49,112.23-97.92l8.38-53.25Z"/><path class="cls-2" d="M731.29,428.17l22.55-23.1a21.8,21.8,0,0,1,15.63-6.63h17.92a19.58,19.58,0,0,1,19.35,19.82h0a19.59,19.59,0,0,1-19.35,19.82H741Z"/><path class="cls-2" d="M200,428.17l-22.54-23.1a21.84,21.84,0,0,0-15.63-6.63H143.94a19.58,19.58,0,0,0-19.34,19.82h0a19.59,19.59,0,0,0,19.34,19.82h46.43Z"/><path class="cls-2" d="M622.62,533.21H308.72c-14.7,0-25,14.94-20,29.11l15.85,45.15a21.25,21.25,0,0,0,20,14.38H606.76a21.25,21.25,0,0,0,20-14.38l15.86-45.15C647.56,548.15,637.32,533.21,622.62,533.21Z"/><path class="cls-11" d="M200,428.17l36.54,37.44a86.08,86.08,0,0,0,61.61,26.14h335a86.07,86.07,0,0,0,61.6-26.14l36.55-37.44Z"/><path class="cls-8" d="M337.07,0h.28a4.74,4.74,0,0,1,4.74,4.74V39.89a0,0,0,0,1,0,0h-9.77a0,0,0,0,1,0,0V4.74A4.74,4.74,0,0,1,337.07,0Z"/><rect class="cls-3" x="292.51" y="43.67" width="90.58" height="212.44"/><path class="cls-5" d="M359.4,43.67C359.4,57.05,370,67.9,383,67.9V43.67Z"/><path class="cls-5" d="M383,231.85c-13.06,0-23.64,10.84-23.64,24.22H383Z"/><path class="cls-5" d="M316.2,43.67c0,13.38-10.59,24.23-23.65,24.23V43.67Z"/><path class="cls-5" d="M292.55,231.85c13.06,0,23.65,10.84,23.65,24.22H292.55Z"/><rect class="cls-4" x="328.82" y="43.69" width="16.67" height="212.38"/><path class="cls-3" d="M332.33,35.55H342a3.52,3.52,0,0,1,3.52,3.52v4.6a0,0,0,0,1,0,0H328.82a0,0,0,0,1,0,0v-4.6a3.52,3.52,0,0,1,3.52-3.52Z"/><polygon class="cls-12" points="635.75 428.17 502.92 292.07 424.48 292.07 557.3 428.17 635.75 428.17"/><polygon class="cls-12" points="536.88 428.17 404.06 292.07 366.44 292.07 499.27 428.17 536.88 428.17"/><path class="cls-9" d="M679.42,319.46c-13.73-28.88-42.35-47.2-73.7-47.2H325.27c-31.36,0-60,18.32-73.71,47.2l-51.7,108.71H731.12ZM222.7,428.11,269,328.16c10.42-21.89,32.51-36,56.28-36H605.72c23.77,0,45.86,14.15,56.27,36l44.52,99.95Z"/><circle class="cls-11" cx="732.66" cy="551.05" r="49.73"/><circle class="cls-11" cx="194.61" cy="551.05" r="49.73"/><path class="cls-7" d="M529.23,659.06H355.68a11.36,11.36,0,0,0-11.21,11.49v31.2a11.36,11.36,0,0,0,11.21,11.49h220a11.36,11.36,0,0,0,11.21-11.49v-31.2a11.36,11.36,0,0,0-11.21-11.49Z"/><polygon class="cls-11" points="118.22 621.86 813.18 621.86 807.38 659.06 124.55 659.06 118.22 621.86"/><polygon class="cls-3" points="783.63 438.08 741.07 438.08 749.29 446.5 783.63 438.08"/><path class="cls-6" d="M575.66,713.24H355.26a10.93,10.93,0,0,1-10.79-11.06V688.52c9-3,17.75-5.93,26.78-8.9,13-4.28,26.26-8.61,39.89-8.31,2.33.05,5,.41,6.3,2.35,1.17,1.69.92,4,.63,6l-1.62,11.42c-.37,2.57-.67,5.5,2.6,7a6.81,6.81,0,0,0,4,.41,411.88,411.88,0,0,0,62.24-16.62c12.58-4.43,25.43-9.56,38.74-8.26a6.89,6.89,0,0,1,2.1.52c7.78,3.46-1.26,15.93,5.07,18.73a5.35,5.35,0,0,0,2.44.4c17.44-.78,35.76-1.67,53.23-2.46v11A11.34,11.34,0,0,1,575.66,713.24Z"/><rect class="cls-11" x="462" y="84.43" width="92.81" height="250.57" transform="translate(718.12 -298.69) rotate(90)"/><path class="cls-7" d="M633.61,231.85c-12.85,0-23.27,10.84-23.27,24.22h23.27Z"/><path class="cls-7" d="M406.39,256.07c0-13.38-10.42-24.22-23.27-24.22v24.22Z"/><path class="cls-7" d="M633.61,187.58c-12.85,0-23.27-10.84-23.27-24.22h23.27Z"/><path class="cls-7" d="M406.39,163.36c0,13.38-10.42,24.22-23.27,24.22V163.36Z"/><rect class="cls-9" x="502.43" y="78.55" width="11.9" height="250.54" transform="translate(712.2 -304.56) rotate(90)"/><path class="cls-10" d="M534.4,220.11h-6.57a6.89,6.89,0,0,0-6.75,7h0a6.89,6.89,0,0,1-6.74,7H491.6a6.89,6.89,0,0,1-6.75-7h0a6.89,6.89,0,0,0-6.75-7h-6.56"/><path class="cls-7" d="M534.37,210.1h9.42a9.81,9.81,0,0,1,9.81,9.81v.4a9.81,9.81,0,0,1-9.81,9.81h-9.42a0,0,0,0,1,0,0v-20A0,0,0,0,1,534.37,210.1Z"/><path class="cls-7" d="M452.33,210.1h9.42a9.81,9.81,0,0,1,9.81,9.81v.4a9.81,9.81,0,0,1-9.81,9.81h-9.42a0,0,0,0,1,0,0v-20A0,0,0,0,1,452.33,210.1Z" transform="matrix(-1, 0, 0, -1, 923.9, 440.22)"/><path class="cls-9" d="M469.78,23.91l27.83,30.91,3.28-2.35a11.77,11.77,0,0,0,3.59-14.82c-3.18-6.33-5.84-13.25-9.6-18.76C491.74,14.3,488,9.89,483,7.54c-5.21-2.47-11.28-2.4-16.85-1s-9.05,4.11-14.61,8.25h0A27.61,27.61,0,0,1,469.78,23.91Z"/><path class="cls-9" d="M585.37,81.31A13.89,13.89,0,0,0,579,68.14h0a19.43,19.43,0,0,0-10.26-2.93h-4.88l-5.38-3.11,9.28-8.45a20.25,20.25,0,0,1,33.49,8.82h0a37,37,0,0,1,.33,21.11h0c-1.56,5.55-6.81,19.65-6.81,19.65a24.6,24.6,0,0,1-9.36-21.92h0"/><path class="cls-5" d="M569.54,104.74s3-14.33,4.14-19.76a42.12,42.12,0,0,0,.74-5c.05-.55.08-1,.08-1.4,0-12.93-10.22-23.41-22.82-23.41a22.78,22.78,0,0,0-3.89.35h0l-.89.18-.42.09-9.35,1.91a52.27,52.27,0,0,1-28.79-2.27l-7.62-2.85-6.61-16.3A62.56,62.56,0,0,0,473.28,9.39L460.61.07l1.8,15.65L441.18,41.31a6.29,6.29,0,0,0,2,9.61l5.15,2.56a5.9,5.9,0,0,0,5.66-.21L472.84,44l-3,7.94h0l-1.05,3.52a73.48,73.48,0,0,0,.16,42.17l-20.53,45.23,16.66,2.59,20.52-45.23,2.49,1.17a54.25,54.25,0,0,0,51.55-2.77l.37,0,21.32,21.93,8.41,22.09,12.62-6.21Z"/><path class="cls-4" d="M541.92,56.74l-4.79,1a52.17,52.17,0,0,1-28.79-2.26l-7.62-2.85-.06,11.21c0,11.68,9.24,21.16,20.63,21.16h0c11.4,0,20.63-9.48,20.63-21.16Z"/><path class="cls-13" d="M411.8,121.31a161.93,161.93,0,0,0,99.52,34.15,161.88,161.88,0,0,0,97.43-32.55"/><path class="cls-14" d="M383.12,163.36l104.69,92.87H383.12Z"/><path class="cls-3" d="M485.57,100.25,489,92.46s15.67,13.3,36.81,12C525.84,104.43,507.84,111.7,485.57,100.25Z"/><path class="cls-3" d="M460.61.07l3.41,7a7.41,7.41,0,0,1-1.61,8.63h0Z"/><path class="cls-3" d="M472.84,44l6.68-4.39S468.13,57.37,467,62.8C467,62.8,469.57,50.86,472.84,44Z"/><path class="cls-4" d="M467.07,140.84s68.64,25.77,136.28-23.94C603.35,116.9,548.74,177.42,467.07,140.84Z"/><path class="cls-10" d="M651.94,225.13v19.65A14.09,14.09,0,0,1,638,259H293A14.09,14.09,0,0,1,279,244.78V225.13"/><circle class="cls-3" cx="193.94" cy="551.05" r="38.18"/><circle class="cls-3" cx="732.66" cy="551.05" r="38.18"/><path class="cls-15" d="M706.93,522.85l53.93,53.93A38.12,38.12,0,0,0,770,558.9l-45.22-45.22A38,38,0,0,0,706.93,522.85Z"/><path class="cls-5" d="M695.46,542.48l45.77,45.77a37.88,37.88,0,0,0,13.61-6.14L701.6,528.86A38,38,0,0,0,695.46,542.48Z"/><path class="cls-15" d="M168.21,522.85l53.93,53.93a38,38,0,0,0,9.17-17.88l-45.22-45.22A38,38,0,0,0,168.21,522.85Z"/><path class="cls-5" d="M156.74,542.48l45.77,45.77a38,38,0,0,0,13.62-6.14l-53.25-53.25A38,38,0,0,0,156.74,542.48Z"/></g></g></svg>