<svg xmlns="http://www.w3.org/2000/svg" xmlns:xlink="http://www.w3.org/1999/xlink" viewBox="0 0 238.22 209.88"><defs><style>.cls-1,.cls-12,.cls-13,.cls-15{fill:none;}.cls-2{fill:#fff;}.cls-3{fill:#bbc6ee;}.cls-4{fill:#809ce6;}.cls-5{fill:#d66be8;}.cls-6{fill:#9b46c3;}.cls-7{fill:#59337e;}.cls-8{fill:#567ad0;}.cls-9{fill:#2b52a0;}.cls-10{fill:#e8aaee;}.cls-11{clip-path:url(#clip-path);}.cls-12{stroke:#bbc6ee;}.cls-12,.cls-13{stroke-miterlimit:10;}.cls-13{stroke:#567ad0;}.cls-14{clip-path:url(#clip-path-2);}.cls-15{stroke:#809ce6;stroke-linecap:round;stroke-linejoin:round;stroke-width:0.71px;}.cls-16{clip-path:url(#clip-path-3);}</style><clipPath id="clip-path"><path class="cls-1" d="M158.79,20.48a7.8,7.8,0,1,0,7.8,7.8A7.8,7.8,0,0,0,158.79,20.48Z"/></clipPath><clipPath id="clip-path-2"><path class="cls-1" d="M34,111.81a14.36,14.36,0,0,0-.49-3.8l-3.7-13.77-.49,0a1.57,1.57,0,0,0-1.41,1.62l.2,3.8a2.7,2.7,0,0,1-2.28,2.79l-1.89.3L10,97.44a1,1,0,0,0-1.19.47,1,1,0,0,0,.37,1.28l10.1,5.44-12.74-4.2a1,1,0,0,0-.76,1.78l11.71,5.15L6,104.93a1,1,0,0,0-1.11.9,1,1,0,0,0,.7,1l11.18,3.92-7-1.1a.83.83,0,0,0-.91.58.83.83,0,0,0,.52,1l14.68,5.15,9.93,0Z"/></clipPath><clipPath id="clip-path-3"><path class="cls-1" d="M209.08,111.81a14.36,14.36,0,0,1,.49-3.8l3.7-13.77.49,0a1.57,1.57,0,0,1,1.41,1.62l-.2,3.8a2.7,2.7,0,0,0,2.28,2.79l1.89.3,14-5.35a1,1,0,0,1,1.19.47,1,1,0,0,1-.37,1.28l-10.1,5.44,12.74-4.2a1,1,0,0,1,.76,1.78l-11.71,5.15,11.48-2.43a1,1,0,0,1,1.11.9,1,1,0,0,1-.7,1l-11.18,3.92,7-1.1a.83.83,0,0,1,.91.58.83.83,0,0,1-.52,1L219,116.38l-9.92,0Z"/></clipPath></defs><g id="Layer_2" data-name="Layer 2"><g id="Layer_1-2" data-name="Layer 1"><path class="cls-2" d="M80.66,16.54c-7.22,5.9-12.23,15.49-10,24.56C72,46.91,76.16,51.71,80.81,55.46A51.64,51.64,0,0,0,148.46,53c7-6.53,12.32-15.91,10.83-25.37-1.58-10-10.52-17.62-20.2-20.67C120.51,1.17,96,4,80.66,16.54Z"/><path class="cls-2" d="M211.17,69.14c-.31,5.06-3.4,10-8.07,12-5.29,2.23-11.33.5-16.79-1.25-3.48-1.11-7.19-2.4-9.34-5.35s-2.22-6.93-1.55-10.51c1.46-7.84,6.23-13.92,14.23-15.55,6.36-1.3,13.58,3.7,17.38,8.47A18.13,18.13,0,0,1,211.17,69.14Z"/><path class="cls-2" d="M84.9,95.59C69.32,105,56.22,119.22,50.62,136.52s-2.88,37.63,9,51.4c27.52,31.88,82.57,25.38,107.61,3.8A73.47,73.47,0,0,0,192.33,140a72.64,72.64,0,0,0-4.59-28.56c-2.77-7.4-14.53-25.81-41.2-28.84a101.19,101.19,0,0,0-30.33,1.14A95.88,95.88,0,0,0,84.9,95.59Z"/><path class="cls-2" d="M52.43,108.84c9-12.7,10.17-32.93,5.15-47.65C55.94,56.39,47.14,45.74,36,45.78a28,28,0,0,0-17.22,5.66c-4.81,3.82-7.94,10.05-7.06,16.13.77,5.27,4.36,10.3,3.1,15.47-1.16,4.82-6,7.62-9.35,11.28A21.11,21.11,0,0,0,.16,111C4,141.06,42.46,122.9,52.43,108.84Z"/><polyline class="cls-3" points="87.11 122.66 49.54 161.93 65.19 178.33 87.81 159.09"/><circle class="cls-3" cx="57.76" cy="169.75" r="11.35" transform="translate(-38.43 18.43) rotate(-13.65)"/><circle class="cls-3" cx="57.76" cy="169.74" r="11.35" transform="translate(-81.71 57.06) rotate(-32.27)"/><polygon class="cls-3" points="21.47 109.95 47.49 174.56 66.68 162.75 31.25 107.36 21.47 109.95"/><path class="cls-3" d="M34,111.81a14.36,14.36,0,0,0-.49-3.8l-3.7-13.77-.49,0a1.57,1.57,0,0,0-1.41,1.62l.2,3.8a2.7,2.7,0,0,1-2.28,2.79l-1.89.3L10,97.44a1,1,0,0,0-1.19.47,1,1,0,0,0,.37,1.28l8.86,5-11.5-3.71a1,1,0,0,0-.76,1.78L16.06,107,6,104.93a1,1,0,0,0-1.11.9,1,1,0,0,0,.7,1l10.66,3.72-6.47-.9a.83.83,0,0,0-.91.58.83.83,0,0,0,.52,1l14.68,5.15,9.93,0Z"/><polygon class="cls-4" points="96.41 142.39 65.19 178.33 95.92 153 96.41 142.39"/><path class="cls-5" d="M62,148.94l6.9-7.28,17.75-18.88a14.19,14.19,0,0,1,22,1.57h0a14.19,14.19,0,0,1-2.32,18.9L95.92,153l-6.2,5.1Z"/><polygon class="cls-6" points="96.41 142.39 95.92 153 95.92 153 89.72 158.1 84.31 156.31 96.41 142.39"/><polygon class="cls-3" points="193.56 161.93 155.99 122.66 152.85 157.67 177.91 178.33 193.56 161.93"/><polygon class="cls-4" points="146.69 142.39 177.91 178.33 147.18 153 146.69 142.39"/><path class="cls-6" d="M181.13,148.94l-6.9-7.28-17.75-18.88a14.19,14.19,0,0,0-22,1.57h0a14.19,14.19,0,0,0,2.32,18.9L147.18,153l6.2,5.1Z"/><path class="cls-5" d="M181.13,148.94l-6.9-7.28-17.75-18.88a14.19,14.19,0,0,0-22,1.57h0a14.19,14.19,0,0,0,2.32,18.9L147.18,153l6.2,5.1Z"/><polygon class="cls-6" points="146.69 142.39 147.18 153 147.18 153 153.38 158.1 158.79 156.31 146.69 142.39"/><circle class="cls-3" cx="185.34" cy="169.75" r="11.35" transform="translate(-23.36 309.78) rotate(-76.35)"/><circle class="cls-3" cx="185.34" cy="169.74" r="11.35" transform="translate(-57.14 235.82) rotate(-57.73)"/><polygon class="cls-3" points="221.63 109.95 195.61 174.56 176.42 162.75 211.85 107.36 221.63 109.95"/><path class="cls-3" d="M209.08,111.81a14.36,14.36,0,0,1,.49-3.8l3.7-13.77.49,0a1.57,1.57,0,0,1,1.41,1.62l-.2,3.8a2.7,2.7,0,0,0,2.28,2.79l1.89.3,14-5.35a1,1,0,0,1,1.19.47,1,1,0,0,1-.37,1.28l-10.1,5.44,12.74-4.2a1,1,0,0,1,.76,1.78l-11.71,5.15,11.48-2.43a1,1,0,0,1,1.11.9,1,1,0,0,1-.7,1l-11.18,3.92,7-1.1a.83.83,0,0,1,.91.58.83.83,0,0,1-.52,1L219,116.38l-9.92,0Z"/><path class="cls-5" d="M149.48,202.48l-3.9-84.14H96.12l-11.2,86.79C105.72,212.8,130.43,210.61,149.48,202.48Z"/><rect class="cls-3" x="106.82" y="78.33" width="20" height="25.59" rx="10" transform="translate(185.27 222.52) rotate(-155.47)"/><path class="cls-3" d="M106.36,90l-1.94-1.37s3.36-1.78,4.46-4.19Z"/><path class="cls-3" d="M108.34,100.49h0l16.09-1.93a15.83,15.83,0,0,0-.16,12.81l3.23,7-.7.84a11.3,11.3,0,0,1-18.22-.84h0a13.33,13.33,0,0,0,2.62-13.61A11.5,11.5,0,0,0,108.34,100.49Z"/><path class="cls-7" d="M127.32,81.51a6.88,6.88,0,0,0-4.84-5.11c-4.28-1.34-10,.88-11.65,5.17L119.77,84c-2.08,2.78-.07,5.93-.07,5.93,1,1.33,3.69,11.74,3.69,11.74s4.39-7.24,5.83-13.27C129.3,88.05,130.14,83.5,127.32,81.51Z"/><circle class="cls-7" cx="111.69" cy="78.19" r="3.46"/><circle class="cls-3" cx="120.85" cy="92.16" r="2.67"/><circle class="cls-8" cx="33.18" cy="66.49" r="11.71"/><circle class="cls-8" cx="158.79" cy="28.28" r="7.8"/><path class="cls-9" d="M163.38,22a8.7,8.7,0,0,1,.34,2.4,8.82,8.82,0,0,1-8.82,8.83,8.72,8.72,0,0,1-2.41-.34A7.8,7.8,0,1,0,163.38,22Z"/><path class="cls-5" d="M103.65,47.83l8.71,8.71a0,0,0,0,0,.07,0l5.47-5.48a0,0,0,0,0,0-.07l-8.7-8.7A7.63,7.63,0,0,1,106.93,36a10.91,10.91,0,0,0-3.11-9L77.29.46a1.59,1.59,0,0,0-2.23,0L61.82,13.7a1.58,1.58,0,0,0,0,2.22L88.35,42.45a10.89,10.89,0,0,0,9,3.12A7.65,7.65,0,0,1,103.65,47.83Z"/><path class="cls-6" d="M109.2,42.29A7.63,7.63,0,0,1,106.93,36a10.91,10.91,0,0,0-3.11-9L77.29.46a1.59,1.59,0,0,0-2.23,0L73.83,1.7l0,0,27.83,27.82A11.42,11.42,0,0,1,105,39a8,8,0,0,0,2.37,6.57l8,8,2.55-2.56a0,0,0,0,0,0-.07Z"/><rect class="cls-10" x="71.89" y="10.52" width="21.87" height="21.87" transform="translate(9.08 64.85) rotate(-45)"/><circle class="cls-5" cx="215.71" cy="64.69" r="13.5"/><path class="cls-10" d="M206.16,55.14A13.39,13.39,0,0,0,203,60.05l17.32,17.32a13.47,13.47,0,0,0,8-8L211.07,52A13.39,13.39,0,0,0,206.16,55.14Z"/><path class="cls-10" d="M206.16,55.14A13.39,13.39,0,0,0,203,60.05l17.32,17.32a13.47,13.47,0,0,0,8-8L211.07,52A13.39,13.39,0,0,0,206.16,55.14Z"/><path class="cls-6" d="M225.26,55.14a13.5,13.5,0,0,0-3.93-2.73A4.78,4.78,0,0,0,228,59.07,13.5,13.5,0,0,0,225.26,55.14Z"/><path class="cls-6" d="M206.16,74.24A13.5,13.5,0,0,0,210.09,77a4.78,4.78,0,0,0-6.66-6.66A13.5,13.5,0,0,0,206.16,74.24Z"/><path class="cls-6" d="M103.65,47.83l8.71,8.71a0,0,0,0,0,.07,0l5.47-5.48a0,0,0,0,0,0-.07l-8.7-8.7Z"/><path class="cls-7" d="M109.2,42.29l-2.55,2.54a9.58,9.58,0,0,0,.67.76l8,8,2.55-2.56a0,0,0,0,0,0-.07Z"/><g class="cls-11"><circle class="cls-12" cx="153.31" cy="22.71" r="5.78"/><circle class="cls-13" cx="166.05" cy="35.98" r="5.78"/></g><path class="cls-6" d="M78.46,18.17a6.93,6.93,0,0,0-6.93,6.93c0,.19,0,.38,0,.56L77.91,32l.55,0a6.93,6.93,0,1,0,0-13.86Z"/><path class="cls-6" d="M223.66,53.79a15.1,15.1,0,0,1,.59,4.16A15.28,15.28,0,0,1,209,73.23a15.1,15.1,0,0,1-4.16-.59,13.49,13.49,0,1,0,18.85-18.85Z"/><path class="cls-7" d="M204.81,72.64a14.09,14.09,0,0,0,2.66,2.74l.13.09a11.21,11.21,0,0,0,1.07.73l.17.11c.16.1.33.19.5.28l.44.22.31.16a4.78,4.78,0,0,0,.72-3.85,16,16,0,0,1-1.84.11A15.1,15.1,0,0,1,204.81,72.64Z"/><path class="cls-7" d="M228,59.07l-.15-.31c-.08-.14-.15-.29-.23-.44l-.28-.5c0-.06-.07-.11-.1-.16-.23-.37-.48-.74-.74-1.09l-.09-.11a13.59,13.59,0,0,0-2.74-2.67,15.1,15.1,0,0,1,.59,4.16,16,16,0,0,1-.11,1.84A4.78,4.78,0,0,0,228,59.07Z"/><path class="cls-5" d="M220.35,77.38a13.57,13.57,0,0,0,8.05-8L223,64a15.34,15.34,0,0,1-8,8Z"/><path class="cls-9" d="M40.07,57a13,13,0,0,1,.51,3.6A13.25,13.25,0,0,1,27.34,73.89a13.45,13.45,0,0,1-3.61-.51A11.7,11.7,0,1,0,40.07,57Z"/><g class="cls-14"><path class="cls-15" d="M23.65,102.47c-2.07,4.56,3.74,6.75,3.74,6.75s-8.7-2-10.11,4.78"/></g><path class="cls-15" d="M20.24,103.22a16.2,16.2,0,0,0-3.86,8.37"/><g class="cls-16"><path class="cls-15" d="M219.45,102.47c2.07,4.56-3.74,6.75-3.74,6.75s8.7-2,10.11,4.78"/></g><path class="cls-15" d="M222.86,103.22a16.2,16.2,0,0,1,3.86,8.37"/><path class="cls-6" d="M85.87,197.79h0l-1,7.34c20.8,7.67,45.51,5.48,64.56-2.65C114.67,207.42,85.87,197.79,85.87,197.79Z"/></g></g></svg>