<svg xmlns="http://www.w3.org/2000/svg" xmlns:xlink="http://www.w3.org/1999/xlink" viewBox="0 0 174.01 151.17"><defs><style>.cls-1{fill:none;}.cls-2,.cls-3,.cls-8{fill:#fff;}.cls-3{stroke:#809ce6;}.cls-3,.cls-8{stroke-miterlimit:10;stroke-width:2.83px;}.cls-4{clip-path:url(#clip-path);}.cls-5{fill:#f5f5f5;}.cls-6{fill:#bbc6ee;}.cls-7{fill:#809ce6;}.cls-8{stroke:#d66be8;}.cls-9{clip-path:url(#clip-path-2);}.cls-10{fill:#d66be8;}.cls-11{fill:#f0cef2;}.cls-12{fill:#c1c7db;}.cls-13{fill:#bbc0d4;}.cls-14{fill:#9b46c3;}.cls-15{fill:#59337e;}</style><clipPath id="clip-path"><rect class="cls-1" x="34.36" y="60.95" width="62.75" height="65.33" transform="translate(-21.99 20.2) rotate(-15)"/></clipPath><clipPath id="clip-path-2"><rect class="cls-1" x="71.29" y="24.37" width="63.13" height="65.73"/></clipPath></defs><g id="Layer_2" data-name="Layer 2"><g id="Layer_1-2" data-name="Layer 1"><path class="cls-2" d="M106.47,56.15c-6.7,4.35-14.49,9.12-21.86,3.7-6-4.38-6-13-7.76-20.23C72.91,23.5,56.35,10.81,39.62,11.56,10.32,12.87-3,38.71.56,65.53,3.84,90.33,18.27,114,40.19,126,52.25,132.67,66,135.67,79.68,137c17.19,1.64,34.86.68,51.19-4.93,17-5.85,35.93-17.63,41.51-35.82,7.45-24.24-11.63-50.22-37-50.06-9.31.06-18.43,3.29-26.29,8.27Z"/><ellipse class="cls-2" cx="102.85" cy="21.9" rx="22.47" ry="21.9"/><rect class="cls-3" x="25.2" y="51.41" width="81.07" height="84.41" transform="translate(-21.99 20.2) rotate(-15)"/><g class="cls-4"><g id="qwjPZA"><path class="cls-5" d="M96.84,81.92q-5.36-20-10.7-39.95c-.23-.85-.23-.85-1.08-.62L22.91,58c-.89.24-.89.24-.66,1.1Q32.93,99,43.6,138.83c.24.88.24.88,1.12.64l62.15-16.66c.86-.23.86-.23.64-1.06Z"/><path class="cls-6" d="M96.84,81.92l10.67,39.83c.22.83.22.83-.64,1.06L44.72,139.47c-.88.24-.88.24-1.12-.64Q32.94,99,22.25,59.11c-.23-.86-.23-.86.66-1.1L85.06,41.35c.85-.23.85-.23,1.08.62Q91.48,61.94,96.84,81.92Zm-21.47,48,28.68-7.69c.63-.17,1.51-.13,1.83-.62s-.23-1.2-.34-1.82a5.53,5.53,0,0,0-2-3.28,19.86,19.86,0,0,0-4.62-2.84,50.79,50.79,0,0,0-8.79-3c-2.53-.65-5.1-1.17-7.67-1.63a.89.89,0,0,1-.76-.47c-.59-1.2-1.24-2.38-1.79-3.6-.23-.49-.48-.63-1-.44-.26.1-.51.17-.64-.22-.53-1.51-1.07-3-1.64-4.51a3.52,3.52,0,0,1,.11-2.87A12.76,12.76,0,0,0,77.54,90a1,1,0,0,1,.55-1.09.63.63,0,0,0,.31-.78c-.32-1.79-.63-3.59-1-5.37-.09-.47-.22-.67-.7-.62s-.71-.18-.83-.64c-.79-3.06-1.64-6.1-2.42-9.15a6,6,0,0,0-1.78-2.82A8.27,8.27,0,0,0,67,67.26a8.36,8.36,0,0,1-2.56-.68c-.64-.32-.74-.68-.37-1.28.18-.29.43-.54.58-.84s.35-.54.11-.8-.53,0-.76.07A50.94,50.94,0,0,0,54.43,69a17.18,17.18,0,0,0-5.24,5.53,6.15,6.15,0,0,0-.7,4.86c.82,2.88,1.54,5.8,2.35,8.68.17.58.13,1-.47,1.25-.24.1-.43.25-.31.57q1,2.72,2,5.44c.09.25.19.45.5.43.78,0,1.08.43,1.34,1.05a12.77,12.77,0,0,0,4.52,5.69,1.55,1.55,0,0,1,.69,1c.42,1.83.69,3.67,1.06,5.5.09.46,0,.67-.47.74s-.62.31-.58.78c.1,1.25.1,2.51.23,3.75a1.34,1.34,0,0,1-.6,1.3,78.83,78.83,0,0,0-10.18,9.91,28.43,28.43,0,0,0-3.82,5.87,7.34,7.34,0,0,0-.14,5.93c.29.81.23.83,1.09.6Z"/><path class="cls-7" d="M75.37,129.88l-29.68,8c-.86.23-.8.21-1.09-.6a7.34,7.34,0,0,1,.14-5.93,28.43,28.43,0,0,1,3.82-5.87,78.83,78.83,0,0,1,10.18-9.91,1.34,1.34,0,0,0,.6-1.3c-.13-1.24-.13-2.5-.23-3.75,0-.47.1-.72.58-.78s.56-.28.47-.74c-.37-1.83-.64-3.67-1.06-5.5a1.55,1.55,0,0,0-.69-1,12.77,12.77,0,0,1-4.52-5.69c-.26-.62-.56-1.09-1.34-1.05-.31,0-.41-.18-.5-.43q-1-2.73-2-5.44c-.12-.32.07-.47.31-.57.6-.28.64-.67.47-1.25-.81-2.88-1.53-5.8-2.35-8.68a6.15,6.15,0,0,1,.7-4.86A17.18,17.18,0,0,1,54.43,69,50.94,50.94,0,0,1,64,63.73c.23-.1.53-.31.76-.07s0,.56-.11.8-.4.55-.58.84c-.37.6-.27,1,.37,1.28a8.36,8.36,0,0,0,2.56.68,8.27,8.27,0,0,1,4.65,2.28,6,6,0,0,1,1.78,2.82c.78,3,1.63,6.09,2.42,9.15.12.46.33.69.83.64s.61.15.7.62c.36,1.78.67,3.58,1,5.37a.63.63,0,0,1-.31.78A1,1,0,0,0,77.54,90a12.76,12.76,0,0,1-.78,6.91,3.52,3.52,0,0,0-.11,2.87c.57,1.5,1.11,3,1.64,4.51.13.39.38.32.64.22.52-.19.77,0,1,.44.55,1.22,1.2,2.4,1.79,3.6a.89.89,0,0,0,.76.47c2.57.46,5.14,1,7.67,1.63a50.79,50.79,0,0,1,8.79,3,19.86,19.86,0,0,1,4.62,2.84,5.53,5.53,0,0,1,2,3.28c.11.62.66,1.32.34,1.82s-1.2.45-1.83.62Z"/></g></g><rect class="cls-8" x="62.32" y="15.03" width="81.07" height="84.41"/><rect class="cls-2" x="115.83" y="95.76" width="21.53" height="14.01"/><g class="cls-9"><g id="j6TgU3"><path class="cls-10" d="M71.31,95.09v-6.8c.73,0,.74-.72,1-1.15,1.14-2.11,2.77-3.46,5.26-3.43A6.93,6.93,0,0,0,80.44,83c2.64-1.17,5.25-2.43,7.88-3.63a4.07,4.07,0,0,0,2.15-2.15,5.52,5.52,0,0,1,2.07-2.79,3.84,3.84,0,0,0,1.88-3.31c.13-1-.1-1.44-1.19-1.39A11.13,11.13,0,0,1,91,69.51a24.56,24.56,0,0,1-7.44-1.9c-.47-.23-1-.43-.51-1.08a.25.25,0,0,0,.09,0s0,0,0-.07l-.1.13c-.81-.19-.16-.53,0-.73a26.79,26.79,0,0,0,3-8.66c.77-3.9.92-7.88,1.4-11.82.67-5.58,4.28-13.13,12.56-14.27,3.27-.44,6.53-.49,9.14,2.12a.9.9,0,0,0,1,.32,2.69,2.69,0,0,1,2.75,1.08,20.37,20.37,0,0,1,4.44,10.63c.56,4.33.63,8.73,1.72,13,.72,2.81.95,5.87,3.45,7.92.57.47,0,.71-.3.88a21.13,21.13,0,0,1-3.19,1.52,21.52,21.52,0,0,1-7,1.13c-.71,0-.62.39-.58.77.12,1.51,0,3.06,1.7,4a3.43,3.43,0,0,1,1.6,1.81c.76,2.18,2.46,3.25,4.48,4,.93.36,1.82.81,2.72,1.22,2.29,1,4.47,2.42,7.11,2.43,2.28,0,3.41,1.54,4.44,3.27.3.5.3,1.25,1.06,1.42,0,3.62,0,7.24,0,10.86,0,.89-.12,1.14-1.09,1.14-11.85,0-23.7,0-35.55,0-8.51,0-17,0-25.52,0-.83,0-1-.19-1-1,.08-1.4,0-2.81,0-4.21.13.08.26.06.27-.09S71.41,95.15,71.31,95.09Z"/><path class="cls-11" d="M134.39,88.56c-.76-.17-.76-.92-1.06-1.42-1-1.73-2.16-3.26-4.44-3.27-2.64,0-4.82-1.38-7.11-2.43-.9-.41-1.79-.86-2.72-1.22-2-.76-3.72-1.83-4.48-4A3.43,3.43,0,0,0,113,74.4c-1.68-.91-1.58-2.46-1.7-4,0-.38-.13-.8.58-.77a21.52,21.52,0,0,0,7-1.13A21.13,21.13,0,0,0,122.08,67c.33-.17.87-.41.3-.88-2.5-2-2.73-5.11-3.45-7.92-1.09-4.26-1.16-8.66-1.72-13a20.37,20.37,0,0,0-4.44-10.63A2.69,2.69,0,0,0,110,33.51a.9.9,0,0,1-1-.32c-2.61-2.61-5.87-2.56-9.14-2.12C91.65,32.21,88,39.76,87.37,45.34c-.48,3.94-.63,7.92-1.4,11.82a26.79,26.79,0,0,1-3,8.66c-.12.2-.77.54,0,.73v0c-.45.65,0,.85.51,1.08A24.56,24.56,0,0,0,91,69.51a11.13,11.13,0,0,0,2.28.25c1.09-.05,1.32.42,1.19,1.39a3.84,3.84,0,0,1-1.88,3.31,5.52,5.52,0,0,0-2.07,2.79,4.07,4.07,0,0,1-2.15,2.15c-2.63,1.2-5.24,2.46-7.88,3.63a6.93,6.93,0,0,1-2.89.68c-2.49,0-4.12,1.32-5.26,3.43-.24.43-.25,1.11-1,1.15q0-31.37,0-62.74c0-1,.2-1.18,1.18-1.18q30.82,0,61.65,0l.27.28Z"/><path class="cls-12" d="M134.39,24.67l-.27-.28C134.35,24.34,134.44,24.43,134.39,24.67Z"/><path class="cls-13" d="M83,66.55l.1-.13s0,.06,0,.07a.25.25,0,0,1-.09,0Z"/></g></g><path class="cls-14" d="M44.69,18.39a9.21,9.21,0,0,0-7.64,4.78A9.22,9.22,0,0,0,20.21,28.8c.55,11.43,18,18.82,18,18.82s16.67-9,16.13-20.46A9.23,9.23,0,0,0,44.69,18.39Z"/><circle class="cls-10" cx="28.88" cy="28.3" r="4.43"/><path class="cls-15" d="M144.19,93.62a18.3,18.3,0,0,0-15.57,8.87,18.34,18.34,0,0,0-33.91,9.83c.17,22.76,34.27,38.85,34.27,38.85s33.85-16.6,33.69-39.35A18.34,18.34,0,0,0,144.19,93.62Z"/><circle class="cls-14" cx="107.43" cy="106.74" r="6"/><circle class="cls-14" cx="103.01" cy="118.66" r="2.32"/></g></g></svg>