<svg xmlns="http://www.w3.org/2000/svg" viewBox="0 0 670.12 802.34"><defs><style>.cls-1{fill:#faf8fa;}.cls-2{fill:#809ce6;}.cls-3{fill:#567ad0;}.cls-4{fill:#59337e;}.cls-5{fill:#d66be8;}.cls-6{fill:#9b46c3;}.cls-7{fill:#e8aaee;}.cls-8{fill:#f0cef2;}.cls-9{fill:#bbc6ee;}</style></defs><g id="Layer_2" data-name="Layer 2"><g id="ARTWORK"><path class="cls-1" d="M198.68,424.88q-1.16,2-2.4,3.95c-14.84,20.48-40.47,36-68.79,44.37C68.42,490.71,7.81,450,1.44,388.76a293.5,293.5,0,0,1-1-44.88C5.17,248.34,50.49,159.49,123.49,97.66c15-12.72,30.34-25,45.4-37.28,119.29-97.2,403-85.46,430.28,97.29,36.07,158.69-123,345.41-279.7,240.17-1.55-1.07-3.14-2.12-4.78-3.13C274.63,369.82,222.23,384,198.68,424.88Z"/><path class="cls-1" d="M486.8,458.67c.64-1.1,1.29-2.18,2-3.23,12.42-16.93,34.85-30.54,60.05-38.73C601.4,399.64,658.23,428.15,667,475.9a201.09,201.09,0,0,1,3.13,35.18c.36,75.28-36.28,147.59-99.28,200.25-13,10.83-26.23,21.36-39.24,31.83-103.16,83-360.33,89.83-394-52.11C97.22,568.49,232,412.92,378.87,486.71q2.17,1.14,4.47,2.19C420.8,506.18,467.5,492.08,486.8,458.67Z"/><path class="cls-2" d="M265.66,385.76l-36-55.05a198.81,198.81,0,0,1,196.91-12.08,197.28,197.28,0,0,1,88.91,87.2L457,436a132,132,0,0,0-59.48-58.31A133.86,133.86,0,0,0,265.66,385.76Z"/><path class="cls-3" d="M480,356.75a198.08,198.08,0,0,0-41-31.16,98.65,98.65,0,0,1-36.62,55,132.21,132.21,0,0,1,38.92,31.16,146.9,146.9,0,0,0,34.3-45.06Q478,361.75,480,356.75Z"/><g id="Ring_Front"><polygon class="cls-4" points="247.68 172.4 250.76 91.14 295.11 76.05 247.68 172.4"/><polygon class="cls-4" points="247.68 172.4 195.68 109.88 151.33 124.97 247.68 172.4"/><polygon class="cls-5" points="250.76 91.14 222.51 57.18 242.77 50.29 295.11 76.05 250.76 91.14"/><polygon class="cls-6" points="195.68 109.88 197.35 65.74 177.09 72.64 151.33 124.97 195.68 109.88"/><polygon class="cls-6" points="195.68 109.88 250.76 91.14 247.68 172.4 195.68 109.88"/><polygon class="cls-7" points="222.51 57.18 197.35 65.74 195.68 109.88 250.76 91.14 222.51 57.18"/></g><circle class="cls-5" cx="245.42" cy="162.25" r="24.97"/><path class="cls-6" d="M269.59,156h0l-48.91,2.85a25,25,0,0,0,8.08,22Z"/><path class="cls-5" d="M232.75,432.84c-73-35.93-103.12-124.52-67.2-197.5s124.52-103.13,197.5-67.21,103.13,124.52,67.2,197.5S305.73,468.76,232.75,432.84ZM341.5,211.9a98.73,98.73,0,1,0,45,132.18A98.84,98.84,0,0,0,341.5,211.9Z"/><path class="cls-6" d="M258.24,442.66c.65-1.46,1.32-2.91,2-4.35a133.42,133.42,0,0,1,29.52-39.41,98.69,98.69,0,0,1-62.73-29.34,199.42,199.42,0,0,0-25.82,39.7c-.34.69-.66,1.38-1,2.07a147.64,147.64,0,0,0,58,31.33Z"/><path class="cls-8" d="M354.18,178.83A28.62,28.62,0,0,1,376,157.1a28.6,28.6,0,0,1-21.84-21.72,28.63,28.63,0,0,1-21.85,21.72A28.64,28.64,0,0,1,354.18,178.83Z"/><path class="cls-8" d="M45.77,398.24a41,41,0,0,1,31.07,31.25,41,41,0,0,1,31.08-31.25A40.94,40.94,0,0,1,76.84,367,40.94,40.94,0,0,1,45.77,398.24Z"/><path class="cls-2" d="M250.85,675.59c-98.42-48.44-139.07-167.92-90.63-266.33a198.82,198.82,0,0,1,69.42-78.55l36,55.05a133,133,0,0,0-46.41,52.55C186.83,504.18,214,584.14,279.9,616.56s145.83,5.21,178.25-60.65A132.06,132.06,0,0,0,457,436l58.47-30.16A198.72,198.72,0,0,1,517.18,585C468.74,683.37,349.26,724,250.85,675.59Z"/><path class="cls-9" d="M602.82,244.05a28.63,28.63,0,0,1,21.84-21.73,28.62,28.62,0,0,1-21.84-21.72A28.62,28.62,0,0,1,581,222.32,28.63,28.63,0,0,1,602.82,244.05Z"/><path class="cls-9" d="M112.48,677a28.63,28.63,0,0,1,21.84-21.73,28.63,28.63,0,0,1-21.84-21.73,28.63,28.63,0,0,1-21.84,21.73A28.63,28.63,0,0,1,112.48,677Z"/><path class="cls-9" d="M504.23,497.52a40.94,40.94,0,0,1,31.08,31.24,40.94,40.94,0,0,1,31.07-31.24,40.94,40.94,0,0,1-31.07-31.24A40.94,40.94,0,0,1,504.23,497.52Z"/></g></g></svg>