<svg xmlns="http://www.w3.org/2000/svg" xmlns:xlink="http://www.w3.org/1999/xlink" viewBox="0 0 830.08 647.23"><defs><style>.cls-1{fill:none;}.cls-2{fill:#faf8fa;}.cls-3{fill:#809ce6;}.cls-4{fill:#bbc6ee;}.cls-5{fill:#59337e;}.cls-6{clip-path:url(#clip-path);}.cls-7{clip-path:url(#clip-path-2);}.cls-8{fill:#9b46c3;}.cls-9{fill:#d66be8;}.cls-10{fill:#e8aaee;}</style><clipPath id="clip-path"><path class="cls-1" d="M447.66,594.58l-32.84,26.93H118.49s11.61-42,30.41-58.6C148.9,562.91,381.87,505.57,447.66,594.58Z"/></clipPath><clipPath id="clip-path-2"><path class="cls-1" d="M447.66,594.58,479,621.51H775.28s-11.61-42-30.4-58.6C744.88,562.91,513.45,505.57,447.66,594.58Z"/></clipPath></defs><g id="Layer_2" data-name="Layer 2"><g id="ARTWORK"><circle class="cls-2" cx="306.32" cy="114.73" r="114.73"/><path class="cls-2" d="M556.79,264.61a96.88,96.88,0,0,1-.71-23.26c2.74-29.69,18.33-58,41.71-76.46C627.37,141.57,668.13,134,704.72,143s68.61,33.59,88.7,65.45c8.45,13.4,14.9,28,20.15,42.94,20.51,58.36,21.5,122.85,5.25,182.37a335.05,335.05,0,0,1-48.91,104.53c-27.52,39.52-74.5,52.35-119.86,57.49q-47.59,5.4-95.48,7.24c-28,1.08-62.78,6.08-89.68-1.46-61.51-17.22-90.25-116.56-53.74-167,14.72-20.33,39.72-30.9,64.47-35.09,33.63-5.7,144.83,13.67,116.18-55.11C580.65,317.56,561.17,294,556.79,264.61Z"/><path class="cls-2" d="M109.7,251.26c-29.62,15.41-56.27,36.64-72.89,61.87C12.41,350.18,1.09,391.56.05,435-1,479.55,17,526.25,45.34,561c33,40.35,77.56,73.7,131.69,72.78,38.07-.66,74.27-19.7,94-52.72,25.49-42.69,13-93.58,0-138.15,14.5-3.44,25.1-9.8,34.56-21.77,32.36-41,33-99.29,5.59-143-25.76-41.1-73.5-58.76-120.6-52.86C164.54,228.52,136,237.6,109.7,251.26Z"/><path class="cls-3" d="M447.67,594.45S488,506.55,675.44,511l35.39,35.39S523.41,505.45,447.67,594.45Z"/><path class="cls-4" d="M447.56,595s6.05-127.71,220.56-146l29.3,32.62S512.25,493.26,447.56,595Z"/><path class="cls-3" d="M447.67,594.45S455.29,502.14,580,465.22C580,465.22,495.53,500.7,447.67,594.45Z"/><path class="cls-4" d="M447.68,594.64s7.74-136.55-235.52-91.22l-55.84,52S383,492.92,447.68,594.64Z"/><path class="cls-3" d="M447.67,594.45S453.85,484.73,280,494.93C280,494.93,421.93,522.42,447.67,594.45Z"/><path class="cls-4" d="M447.66,594.58,479,621.51H775.28s-11.61-42-30.4-58.6C744.88,562.91,513.45,505.57,447.66,594.58Z"/><path class="cls-4" d="M447.66,594.58l-32.84,26.93H118.49s11.61-42,30.41-58.6C148.9,562.91,381.87,505.57,447.66,594.58Z"/><polygon class="cls-3" points="447.67 594.46 487.22 627.58 453.75 641.99 416.94 630.68 414.82 621.51 447.67 594.46"/><path class="cls-4" d="M284,436.57l-56.74,52.81c71-7.89,209.35-8.38,220.41,105.2V491.38S418.25,424.24,284,436.57Z"/><path class="cls-4" d="M447.66,594.58V491.38s5.9-114.26,106.15-175.44l98,81.82-99.64,60.52a237.14,237.14,0,0,0-104.55,136.3Z"/><path class="cls-5" d="M449.73,647.23c-.8,0-1.61,0-2.42,0-15.78-.65-29.21-5-37.48-12.06H106a14,14,0,0,1,14-14H415.6l2.07,2.17c5.37,5.65,16.66,9.35,30.21,9.9a42.9,42.9,0,0,0,29.86-10.11l2-1.93,2.84,0H775.16a14,14,0,0,1,14,14h-304A57.85,57.85,0,0,1,449.73,647.23Z"/><path class="cls-3" d="M447.67,594.45V491.38s1.9-35.55,20.27-76.12Z"/><path class="cls-3" d="M447.67,594.45S486.22,507.57,675.44,511C675.44,511,517.26,518.43,447.67,594.45Z"/><g class="cls-6"><rect class="cls-3" x="103.13" y="605.1" width="336.53" height="2"/><rect class="cls-3" x="103.13" y="583.16" width="230.78" height="2"/><path class="cls-3" d="M331.92,583.49c-53.12.67-92.78,16.3-92.78,16.3,3.66-9.65,11.81-16.3,11.81-16.3h81"/></g><g class="cls-7"><path class="cls-3" d="M613.87,576.68c53.13.67,92.78,16.3,92.78,16.3-3.65-9.65-11.8-16.3-11.8-16.3h-81"/><rect class="cls-3" x="526.29" y="576.62" width="152.64" height="2"/></g><path class="cls-8" d="M454.71,338.56,444,293.1,270.22,247.51l-46.92,63.4,17.87,75.42a144.42,144.42,0,0,0,213.54-47.77Z"/><path class="cls-9" d="M311,136.73l233.8,51.61a11.59,11.59,0,0,1,4.84,20.29l-180,147.13a30.9,30.9,0,0,1-27.45,5.95L94.66,296.29a11.59,11.59,0,0,1-3.59-20.77L286.84,141.41A30.91,30.91,0,0,1,311,136.73Z"/><polygon class="cls-5" points="346.58 362.78 233.67 354.26 227.77 331.11 346.58 362.78"/><polygon class="cls-5" points="365.04 359.63 449.77 317.59 444.25 294.52 365.04 359.63"/><path class="cls-8" d="M550.24,208.13,369.29,356.05a30.11,30.11,0,0,1-26.73,5.79L94.29,296.17a11.28,11.28,0,0,1-8-8.41l262.2,67.63A17.26,17.26,0,0,0,363.83,352L553.25,196A11.32,11.32,0,0,1,550.24,208.13Z"/><path class="cls-10" d="M180.22,318.88a16.45,16.45,0,0,1,6-8.16l122.94-88.91a4.26,4.26,0,1,1,5,6.92L193.08,316a10.68,10.68,0,0,0-3.84,5.12"/><path class="cls-10" d="M200.16,385.81,180.29,329.4a16.48,16.48,0,0,1-.07-10.52l9,2.22a10.72,10.72,0,0,0,0,7l18.93,54.65Z"/><path class="cls-9" d="M220.71,443.94l9.43,21.18A23.91,23.91,0,0,0,237.88,433l-17.37-30-17.6,6,5.53,30.55a115.55,115.55,0,0,1,.64,37.16l11.2-6.14-.08,0S225.15,459.92,220.71,443.94Z"/><circle class="cls-8" cx="207.85" cy="394.97" r="15.2"/><path class="cls-5" d="M219.27,385a15.19,15.19,0,0,1-24.7,17.4,15.19,15.19,0,1,0,24.7-17.4Z"/></g></g></svg>