<svg xmlns="http://www.w3.org/2000/svg" viewBox="0 0 163.4 210.08"><defs><style>.cls-1{fill:#fff;}.cls-2{fill:#809ce6;}.cls-3{fill:#567ad0;}.cls-4{fill:#2b52a0;}.cls-5{fill:#f0cef2;}.cls-6{fill:#9b46c3;}.cls-7{fill:#e8aaee;}.cls-8{fill:#bbc6ee;}.cls-9{fill:#59337e;}.cls-10{fill:#f8f2f7;}.cls-11{fill:none;stroke:#e8aaee;stroke-miterlimit:10;stroke-width:1.42px;}</style></defs><g id="Layer_2" data-name="Layer 2"><g id="Layer_1-2" data-name="Layer 1"><path class="cls-1" d="M107.46,65.57c1.82,6.33,5.35,12.41,10.86,16,7.15,4.68,16.86,4.47,24.46.54S155.93,71,159.11,63.07s4.17-16.58,4.28-25.13c.15-10.57-1.33-21.95-8.45-29.76-8.08-8.87-22.56-10.67-33-4.7-6.92,4-11.92,10.81-14.66,18.3a50.61,50.61,0,0,0-2.82,22.75C105.36,51.5,105.5,58.76,107.46,65.57Z"/><path class="cls-1" d="M90.62,110.36C86.38,98.09,79.93,86.74,73.17,75.63a31.68,31.68,0,0,1-3.71-9L66.85,56.1a31.6,31.6,0,0,0-38.1-23.29l-.32.08c-4.78,1.21-9.57,3-13.22,6.33-8,7.32-8.43,19.84-6.27,30.48s6.27,21.2,5.18,32C12.5,117.74-.37,131.46,0,147.58c.24,10.08,5.92,19.56,13.81,25.86s17.75,9.7,27.71,11.34c7.65,1.25,15.61,1.51,23-.66,14-4.1,24.57-16.69,28.6-30.72S95.39,124.16,90.62,110.36Z"/><path class="cls-2" d="M131.89,41.43h0a23.69,23.69,0,0,0-23.28-28.07H59.69A23.7,23.7,0,0,0,36.41,41.43h0a266,266,0,0,0,.4,65.09l3.64,28.13h87.41l3.64-28.13A265.46,265.46,0,0,0,131.89,41.43Z"/><path class="cls-3" d="M107,79.23,114.35,47h9.86a8.09,8.09,0,0,0,7.68-5.57,23.69,23.69,0,0,0-23.28-28.07H59.69A23.7,23.7,0,0,0,36.41,41.43,8.09,8.09,0,0,0,44.1,47H54l7.37,32.23a138.12,138.12,0,0,1,1.23,55.42h43.21A137.94,137.94,0,0,1,107,79.23Z"/><path class="cls-4" d="M38.39,30.9a23.66,23.66,0,0,1,21.3-13.33h48.92a23.61,23.61,0,0,1,23.58,21.62,23.66,23.66,0,0,0-23.58-25.83H59.69A23.68,23.68,0,0,0,36.11,39.19,23.73,23.73,0,0,1,38.39,30.9Z"/><path class="cls-4" d="M64.75,112a138.61,138.61,0,0,1-2.2,22.69h.69A138.07,138.07,0,0,0,64.75,112Z"/><path class="cls-4" d="M105.07,134.65h.69A137.53,137.53,0,0,1,103.55,112,138.08,138.08,0,0,0,105.07,134.65Z"/><path class="cls-4" d="M64.75,112a138.61,138.61,0,0,1-2.2,22.69h.69A138.07,138.07,0,0,0,64.75,112Z"/><path class="cls-4" d="M105.07,134.65h.69A137.53,137.53,0,0,1,103.55,112,138.08,138.08,0,0,0,105.07,134.65Z"/><path class="cls-4" d="M107.7,13.36H92l-6.61,1-6.61-1H63V32.92a7.26,7.26,0,0,0,7.26,7.26h30.17a7.26,7.26,0,0,0,7.25-7.26Z"/><polygon class="cls-4" points="84.15 130.29 39.88 130.29 40.45 134.65 84.15 134.65 127.86 134.65 128.42 130.29 84.15 130.29"/><rect class="cls-5" x="24.98" y="119.18" width="15.47" height="28.23"/><path class="cls-6" d="M26.37,103.08H39.06a4.52,4.52,0,0,1,4.52,4.52v11.58a0,0,0,0,1,0,0H21.85a0,0,0,0,1,0,0V107.6A4.52,4.52,0,0,1,26.37,103.08Z"/><rect class="cls-5" x="40.45" y="160.18" width="10.15" height="35.14"/><rect class="cls-5" x="127.86" y="119.18" width="15.47" height="28.23" transform="translate(271.18 266.59) rotate(-180)"/><path class="cls-6" d="M124.73,103.08h21.73a0,0,0,0,1,0,0v11.58a4.52,4.52,0,0,1-4.52,4.52H129.25a4.52,4.52,0,0,1-4.52-4.52V103.08A0,0,0,0,1,124.73,103.08Z" transform="translate(271.18 222.26) rotate(-180)"/><path class="cls-3" d="M137.17,134.65h-106A6.15,6.15,0,0,0,25,140.8V154a6.15,6.15,0,0,0,6.15,6.15h106a6.15,6.15,0,0,0,6.15-6.15V140.8A6.15,6.15,0,0,0,137.17,134.65Z"/><rect class="cls-5" x="117.71" y="160.18" width="10.15" height="35.14" transform="translate(245.57 355.5) rotate(-180)"/><rect class="cls-7" x="40.45" y="160.18" width="10.15" height="3.68"/><rect class="cls-7" x="117.71" y="160.18" width="10.15" height="3.68" transform="translate(245.57 324.04) rotate(-180)"/><path class="cls-1" d="M106.49,31.88V13.36H61.81V31.88a7.26,7.26,0,0,0,7.26,7.26H99.24A7.25,7.25,0,0,0,106.49,31.88Z"/><polygon class="cls-8" points="61.81 13.36 61.81 17.57 84.15 17.57 106.5 17.57 106.5 13.36 84.15 13.36 61.81 13.36"/><path class="cls-9" d="M115.22,189.27h15.13a3.44,3.44,0,0,1,3.44,3.44v2.62a0,0,0,0,1,0,0h-22a0,0,0,0,1,0,0v-2.62A3.44,3.44,0,0,1,115.22,189.27Z"/><path class="cls-9" d="M102.29,140.48l-6.89-4.81a22.07,22.07,0,0,1,18.08-9.43h14.38v8.41H113.48A13.67,13.67,0,0,0,102.29,140.48Z"/><polygon class="cls-10" points="93.89 134.62 88.14 142.7 98.05 149.61 103.8 141.53 93.89 134.62"/><path class="cls-9" d="M66,140.48l6.89-4.81a22.07,22.07,0,0,0-18.08-9.43H40.45v8.41H54.82A13.65,13.65,0,0,1,66,140.48Z"/><polygon class="cls-10" points="74.41 134.62 64.5 141.53 66.92 144.92 76.82 138.01 74.41 134.62"/><path class="cls-10" d="M78.14,144.74l-2.93-2.36-1.55-2.16-3.57,2.49,1.58,2.21,1.26,3.56s1.59.92,2.34.38l2.49-1.78C78.51,146.54,78.14,144.74,78.14,144.74Z"/><polygon class="cls-7" points="73.66 140.22 70.08 142.71 70.62 143.45 74.19 140.96 73.66 140.22"/><path class="cls-3" d="M74.83,144.47l1.07.86a.9.9,0,0,1,0,1.43l-.42.3a.9.9,0,0,1-1.38-.43l-.45-1.29A.78.78,0,0,1,74.83,144.47Z"/><polyline class="cls-11" points="90.04 144.02 94.45 137.83 100.56 142.09 96.14 148.28"/><rect class="cls-7" x="24.98" y="119.18" width="15.47" height="2.33"/><rect class="cls-7" x="127.86" y="119.18" width="15.47" height="2.33"/><path class="cls-9" d="M39.06,103.08H26.37a4.5,4.5,0,0,0-3,1.16h13.4a3.7,3.7,0,0,1,3.7,3.7v11.24h3.13V107.6A4.52,4.52,0,0,0,39.06,103.08Z"/><path class="cls-9" d="M141.93,103.08H129.25a4.48,4.48,0,0,0-3,1.16h13.39a3.7,3.7,0,0,1,3.7,3.7v11.24h3.14V107.6A4.52,4.52,0,0,0,141.93,103.08Z"/><path class="cls-9" d="M38,189.27H53.09a3.44,3.44,0,0,1,3.44,3.44v2.62a0,0,0,0,1,0,0h-22a0,0,0,0,1,0,0v-2.62A3.44,3.44,0,0,1,38,189.27Z"/><path class="cls-5" d="M12.26,195.32H156a0,0,0,0,1,0,0v0a14.76,14.76,0,0,1-14.76,14.76H27a14.76,14.76,0,0,1-14.76-14.76v0a0,0,0,0,1,0,0Z"/></g></g></svg>