<svg xmlns="http://www.w3.org/2000/svg" viewBox="0 0 193.9 164.84"><defs><style>.cls-1{fill:#fff;}.cls-2{fill:#bbc6ee;}.cls-3{fill:#e8aaee;}.cls-4{fill:#d66be8;}.cls-5{fill:#59337e;}.cls-6{fill:#f0cef2;}.cls-7{fill:#9b46c3;}.cls-8{fill:#567ad0;}.cls-9{fill:#809ce6;}</style></defs><g id="Layer_2" data-name="Layer 2"><g id="Layer_1-2" data-name="Layer 1"><circle class="cls-1" cx="28.56" cy="127.47" r="28.56"/><path class="cls-1" d="M81.72,64.2c-.33-.12-.65-.25-1-.39-5.14-2.54-9.57-7.67-12.51-13.66a22.31,22.31,0,0,1,14.2-31.27,67,67,0,0,1,10-1.91,78.82,78.82,0,0,1,59.77,18.17C155.64,38,159,41,162.28,43.86c26.23,22.93,34.21,86.59-5.71,99.55-34.21,14-82-14.44-64.27-53.31.18-.39.36-.78.52-1.18A18.78,18.78,0,0,0,81.72,64.2Z"/><rect class="cls-2" x="11.78" y="127.47" width="182.13" height="37.38" rx="18.69"/><circle class="cls-3" cx="82.58" cy="82.05" r="29.48"/><circle class="cls-4" cx="133.87" cy="43.69" r="4.43"/><path class="cls-5" d="M142.72,136.89c.12-6.54.19-8.51.24-10.39s.09-3.83.08-5.75c0-3.83-.07-7.68-.23-11.52-.33-7.69-1-15.38-2-23a195.29,195.29,0,0,0-4.54-22.73,120.71,120.71,0,0,0-8.36-21.84l2.28-1c1.35-.59,2-.16,2.71,1a134.85,134.85,0,0,1,10.43,19.85,207.65,207.65,0,0,1,7.89,23.06c2.12,7.79,3.85,15.66,5.26,23.57q1.06,5.94,1.86,11.92c.27,2,.5,4,.73,6a108.58,108.58,0,0,1,.57,10.92Z"/><path class="cls-6" d="M171.54,146.16c-36.81-34.31-100.91-34.31-137.71,0v13.48l137.71,2.3Z"/><circle class="cls-3" cx="131.16" cy="134.53" r="1.53"/><path class="cls-3" d="M126.64,143a1.54,1.54,0,1,1,1.53-1.54A1.53,1.53,0,0,1,126.64,143Z"/><path class="cls-3" d="M135.68,143a1.54,1.54,0,1,1,1.53-1.54A1.53,1.53,0,0,1,135.68,143Z"/><path class="cls-7" d="M80,95.73l1,2.71a5.93,5.93,0,0,0,11.14-4.06l-1-2.72ZM90.32,95a4,4,0,0,1-7.54,2.76l-.33-.92L90,94.12Z"/><rect class="cls-5" x="81.88" y="93.64" width="8.02" height="1.91" transform="translate(-27.25 35.23) rotate(-20.07)"/><path class="cls-7" d="M96.77,116h0a8,8,0,0,1,8,8v8.8a0,0,0,0,1,0,0h-16a0,0,0,0,1,0,0V124A8,8,0,0,1,96.77,116Z" transform="translate(-36.81 40.77) rotate(-20.07)"/><path class="cls-7" d="M91.06,100h2.39a0,0,0,0,1,0,0v22.8a1.2,1.2,0,0,1-1.2,1.2h0a1.2,1.2,0,0,1-1.2-1.2V100A0,0,0,0,1,91.06,100Z" transform="translate(-32.85 38.47) rotate(-20.07)"/><path class="cls-5" d="M91.13,127a5.88,5.88,0,0,1-.16-4.91,6.38,6.38,0,0,1,8.78-3.21,5.89,5.89,0,0,1,3,3.86,6.63,6.63,0,0,0-3.38-3.15,6.1,6.1,0,0,0-7.74,2.83A6.59,6.59,0,0,0,91.13,127Z"/><path class="cls-6" d="M74,138.81h0l26.86,0,26.87,0h0A33.55,33.55,0,0,0,74,138.81Z"/><path class="cls-2" d="M144,146.16a19.49,19.49,0,0,1-27.55,0,19.48,19.48,0,0,1-27.54,0,19.48,19.48,0,0,1-27.54,0,19.48,19.48,0,0,1-27.54,0v15.78a19.7,19.7,0,0,0,.21,2.9H171.33a21.17,21.17,0,0,0,.21-2.9V146.16A19.48,19.48,0,0,1,144,146.16Z"/><path class="cls-5" d="M58.17,86.33a1.48,1.48,0,0,1-.83-.26L48.83,80a1.42,1.42,0,1,1,1.65-2.31l7.69,5.5,7.68-5.5a1.43,1.43,0,0,1,2,.33,1.41,1.41,0,0,1-.33,2L59,86.07A1.47,1.47,0,0,1,58.17,86.33Z"/><path class="cls-5" d="M38.49,56.36a1.43,1.43,0,0,1-.82-.26L29.16,50a1.42,1.42,0,1,1,1.65-2.3l7.68,5.49,7.69-5.49A1.42,1.42,0,1,1,47.83,50L39.32,56.1A1.48,1.48,0,0,1,38.49,56.36Z"/><path class="cls-8" d="M156.47,63.86q-2.66-2.94-5.44-5.75a164.5,164.5,0,0,0-22-18.53c.61-.11,1.22-.21,1.84-.3a34.16,34.16,0,0,1,38.34,38.34l-.3,1.84A164.62,164.62,0,0,0,156.47,63.86Z"/><path class="cls-8" d="M151,18.16l-2.37-2.43c1.64,0,3.28,0,4.91,0A164.37,164.37,0,0,1,171.33,1.29L169.5,1a33.22,33.22,0,0,0-28.63,9.71,33.23,33.23,0,0,0-9.72,28.64l.3,1.83A164.32,164.32,0,0,1,151,18.16Z"/><path class="cls-9" d="M130.68,40.23c12.23-17.74,42-17.74,54.23,0L186,41.75a163.62,163.62,0,0,0-29.28-2.44c-1.28-1.35-2.6-2.67-3.94-4l.12,4.06a163.12,163.12,0,0,0-23.3,2.37Z"/><path class="cls-9" d="M111.47,17.57l2.36-2.43c-1.64,0-3.28,0-4.9,0A164.49,164.49,0,0,0,91.16.7C91.77.59,92.38.49,93,.4a33.21,33.21,0,0,1,28.63,9.71,33.24,33.24,0,0,1,9.71,28.63l-.3,1.84A164.25,164.25,0,0,0,111.47,17.57Z"/><circle class="cls-3" cx="126.32" cy="43.69" r="4.43"/><path class="cls-9" d="M131.38,40.51l-.32-.44a34.16,34.16,0,0,0-54.23,0c-.37.5-.73,1-1.09,1.51A163.9,163.9,0,0,1,131,41.4,6.9,6.9,0,0,1,131.38,40.51Z"/></g></g></svg>