<svg width="18" height="18" viewBox="0 0 18 18" fill="none" xmlns="http://www.w3.org/2000/svg">
<path fill-rule="evenodd" clip-rule="evenodd" d="M8.99998 12.6001C7.08383 12.6001 5.03337 11.4908 3.32538 9.0001C5.03337 6.5094 7.08383 5.4001 8.99998 5.4001C10.9161 5.4001 12.9666 6.5094 14.6746 9.0001C12.9666 11.4908 10.9161 12.6001 8.99998 12.6001ZM16.5132 8.5231C14.5298 5.34965 11.8406 3.6001 8.99998 3.6001C6.15937 3.6001 3.47018 5.34965 1.48678 8.5231C1.30438 8.81494 1.30438 9.18525 1.48678 9.4771C3.47018 12.6505 6.15937 14.4001 8.99998 14.4001C11.8406 14.4001 14.5298 12.6505 16.5132 9.4771C16.6956 9.18525 16.6956 8.81494 16.5132 8.5231ZM8.99995 12.0001C10.6568 12.0001 12 10.657 12 9.0001C12 7.34324 10.6568 6.0001 8.99995 6.0001C7.3431 6.0001 5.99995 7.34324 5.99995 9.0001C5.99995 10.657 7.3431 12.0001 8.99995 12.0001Z" fill="#5865F6"/>
</svg>
