<svg xmlns="http://www.w3.org/2000/svg" xmlns:xlink="http://www.w3.org/1999/xlink" viewBox="0 0 832.08 696.17"><defs><style>.cls-1{fill:#f0cef2;}.cls-2{fill:#bbc6ee;}.cls-3{fill:#faf8fa;}.cls-4{fill:#59337e;}.cls-5{fill:#d66be8;}.cls-6{fill:none;stroke:#faf8fa;stroke-miterlimit:10;stroke-width:10px;}.cls-7{fill:#809ce6;}.cls-8{clip-path:url(#clip-path);}.cls-9{fill:#e8aaee;}.cls-10{clip-path:url(#clip-path-2);}.cls-11{clip-path:url(#clip-path-3);}.cls-12{clip-path:url(#clip-path-4);}.cls-13{clip-path:url(#clip-path-5);}.cls-14{clip-path:url(#clip-path-6);}.cls-15{fill:#9b46c3;}.cls-16{fill:#567ad0;}</style><clipPath id="clip-path"><path class="cls-1" d="M562.46,415.43l-.71-.56a30.3,30.3,0,0,1-11.6-22l-25.6,28.1h.1a28.37,28.37,0,1,0,37.81-5.51Z"/></clipPath><clipPath id="clip-path-2"><path class="cls-2" d="M247.15,415.43l.71-.56a30.3,30.3,0,0,0,11.6-22l25.6,28.1H285a28.38,28.38,0,1,1-37.81-5.51Z"/></clipPath><clipPath id="clip-path-3"><path class="cls-2" d="M507.67,415.58h0l-3.91-3.06a52.61,52.61,0,0,1-14.07-16.75l-1.56-2.93-19.6,27.25a28.38,28.38,0,1,0,39.14-4.5Z"/></clipPath><clipPath id="clip-path-4"><path class="cls-1" d="M302.66,415.58h0l3.91-3.06a52.61,52.61,0,0,0,14.07-16.75l1.56-2.93,19.6,27.25a28.38,28.38,0,1,1-39.14-4.5Z"/></clipPath><clipPath id="clip-path-5"><path class="cls-1" d="M414.51,416.82l21.33-24a105,105,0,0,0,12.9,19.29l4.69,5.57a28.37,28.37,0,1,1-38.92-.87Z"/></clipPath><clipPath id="clip-path-6"><path class="cls-2" d="M398,419.27l-6-7.15A104.54,104.54,0,0,1,379,392.83l-21.34,24,0,0a28.39,28.39,0,1,0,40.23,2.4Z"/></clipPath></defs><g id="Layer_2" data-name="Layer 2"><g id="ARTWORK"><path class="cls-3" d="M410.32,462.2c22.88,17.31,48.45,34,63.06,59.27,18.44,31.91,9.06,65.3-15.49,90.76C427.1,644.16,383,663,341.31,675.76,293,690.61,241.56,698.25,191,695.68l-1.33-.07C116,691.56,49.57,649,17.37,582.62-5.4,535.73-6.54,483.41,18.46,437.26,80.3,323.1,228.12,349,322.15,403c30.6,17.57,59.71,37.67,87.81,59Z"/><path class="cls-3" d="M248.08,106.19a221.93,221.93,0,0,1,25.25-25C339.44,25.35,431.17-19.95,518.65,9c38.61,12.79,65.84,49.6,64.23,90.65-1.52,38.7-29.79,72-60.32,93-15.6,10.74-33,18.82-49.51,27.93C457.79,229,434.62,239.9,425,255.17c-24,38.09-39.9,86.67-86.89,101.76-58,18.61-114.58-11.38-132-68.06C186,223.66,205.32,156,248.08,106.19Z"/><path class="cls-3" d="M580.35,476.33c.74,51.79,29.27,99.56,75.56,122.79,121.53,61,220.5-115.7,155.66-238.18C765.7,261.5,637.79,192.53,533.92,224.45c-56.83,17.47-94.37,72.31-87.32,131.35,7.1,59.49,56.47,103.87,134.2,100.94C580.43,463.19,580.26,469.75,580.35,476.33Z"/><polygon class="cls-4" points="420.5 444.1 418.5 328.7 388.59 328.7 386.6 444.1 420.5 444.1"/><polygon class="cls-5" points="419.08 362 418.98 356.24 391.42 328.68 388.59 328.68 388.54 331.46 419.08 362"/><polygon class="cls-5" points="388.15 354.35 419.49 385.69 419.39 379.93 388.25 348.79 388.15 354.35"/><polygon class="cls-5" points="387.75 377.23 419.9 409.38 419.8 403.62 387.85 371.67 387.75 377.23"/><polygon class="cls-5" points="387.36 400.11 420.31 433.06 420.21 427.31 387.45 394.55 387.36 400.11"/><polygon class="cls-5" points="386.96 422.99 408.05 444.07 413.7 444.07 387.06 417.43 386.96 422.99"/><path class="cls-1" d="M282.49,418.53l-23.05-25.7h0a30.36,30.36,0,0,1-11.4,22l-1.92,1.52v0a28.39,28.39,0,0,0-10.92,22.46,27.88,27.88,0,1,0,55.75,0A28.42,28.42,0,0,0,282.49,418.53Z"/><path class="cls-1" d="M341.7,420l-19.53-27.14-1.57,2.93a52.45,52.45,0,0,1-14.06,16.75l-2,1.57A28.37,28.37,0,1,0,341.7,420Z"/><path class="cls-6" d="M562.46,415.43l-.71-.56a30.3,30.3,0,0,1-11.6-22l-25.6,28.1h.1a28.37,28.37,0,1,0,37.81-5.51Z"/><path class="cls-7" d="M507.61,415.58h0l-3.9-3.06a52.48,52.48,0,0,1-14.07-16.75l-1.56-2.93-19.61,27.25a28.39,28.39,0,1,0,39.14-4.5Z"/><path class="cls-2" d="M398,419.27l-6-7.15A104.54,104.54,0,0,1,379,392.83l-21.34,24,0,0a28.39,28.39,0,1,0,40.23,2.4Z"/><path class="cls-1" d="M562.46,415.43l-.71-.56a30.3,30.3,0,0,1-11.6-22l-25.6,28.1h.1a28.37,28.37,0,1,0,37.81-5.51Z"/><g class="cls-8"><path class="cls-1" d="M579.23,463.66a32.49,32.49,0,0,0,.66-11.54,15,15,0,0,0-2-6.36,16.87,16.87,0,0,0-4.54-4.33c-7.6-5.45-16.71-9.57-21.59-17.55a27.29,27.29,0,0,1-3.6-16c.38-5.54,1.37-11.23,3.79-16.23l2-1.08c-.85.77-1.7,1.58-2.55,2.44l.13-3.47c-1.25,4.45-.43,9.76,1.45,14a34.17,34.17,0,0,0,8.54,11.19c1.86,1.66,3.72,2.59,5.52,4.32a29.47,29.47,0,0,1,7.74,13.72c1.36,5.14,0,11.35-.41,16.66"/><path class="cls-9" d="M557.33,385.9l-7.18,6.93L544,409l5.54,27L572,452.63l16.41,3.77s8.42-42.79,7.75-43.45S557.33,385.9,557.33,385.9Z"/><path class="cls-9" d="M575.51,484.38c-.36-5.13-1.92-10.09-3.47-15a20,20,0,0,0-1.53-3.89,15.07,15.07,0,0,0-2.77-3.4c-7.61-7.31-19-10.59-24.68-19.48a27.51,27.51,0,0,1-2.72-5.75,42.47,42.47,0,0,1-.64-26.12c2.53-8.49,8.9-17.16,15.22-22.82l-2,1.08c-2.42,5-3.41,10.69-3.79,16.23a27.22,27.22,0,0,0,3.6,16c4.88,8,14,12.1,21.59,17.55a16.69,16.69,0,0,1,4.53,4.33,14.74,14.74,0,0,1,2,6.36,32.26,32.26,0,0,1-.65,11.54Z"/></g><path class="cls-2" d="M247.15,415.43l.71-.56a30.3,30.3,0,0,0,11.6-22l25.6,28.1H285a28.38,28.38,0,1,1-37.81-5.51Z"/><path class="cls-2" d="M247.15,415.43l.71-.56a30.3,30.3,0,0,0,11.6-22l25.6,28.1H285a28.38,28.38,0,1,1-37.81-5.51Z"/><g class="cls-10"><path class="cls-7" d="M230.38,463.66a32.26,32.26,0,0,1-.66-11.54,15,15,0,0,1,2-6.36,16.87,16.87,0,0,1,4.54-4.33c7.6-5.45,16.7-9.57,21.58-17.55a27.14,27.14,0,0,0,3.6-16c-.37-5.54-1.36-11.23-3.79-16.23l-2-1.08c.85.77,1.7,1.58,2.54,2.44l-.12-3.47c1.25,4.45.43,9.76-1.45,14a34.17,34.17,0,0,1-8.54,11.19c-1.86,1.66-3.72,2.59-5.52,4.32a29.47,29.47,0,0,0-7.74,13.72c-1.37,5.14,0,11.35.4,16.66"/><path class="cls-7" d="M234.09,484.38c.37-5.13,1.93-10.09,3.48-15a20,20,0,0,1,1.53-3.89,15.07,15.07,0,0,1,2.77-3.4c7.61-7.31,19-10.59,24.68-19.48a28,28,0,0,0,2.72-5.75,42.47,42.47,0,0,0,.64-26.12c-2.53-8.49-8.9-17.16-15.22-22.82l2,1.08c2.42,5,3.41,10.69,3.79,16.23a27.29,27.29,0,0,1-3.6,16c-4.88,8-14,12.1-21.59,17.55a16.87,16.87,0,0,0-4.54,4.33,15,15,0,0,0-2,6.36,32.49,32.49,0,0,0,.66,11.54Z"/></g><path class="cls-2" d="M507.67,415.58h0l-3.91-3.06a52.61,52.61,0,0,1-14.07-16.75l-1.56-2.93-19.6,27.25a28.38,28.38,0,1,0,39.14-4.5Z"/><g class="cls-11"><path class="cls-7" d="M495.48,382l-10.65,16.63,6.66,23.61,13,42.9s23.95-.34,23.61-2-12-64.51-12-64.51l-22.61-19.29Z"/><path class="cls-7" d="M507.4,452.29a25.11,25.11,0,0,0-8.19-33.36c-1.88-1.23-3.92-2.2-5.71-3.53a17.29,17.29,0,0,1-4-23.6c-5.11,4.11-8.1,10.54-6.91,17,1.59,8.62,9.21,15.52,9.57,24.28.16,4-1.26,7.94-2.92,11.61a86.57,86.57,0,0,1-6.59,12"/></g><path class="cls-1" d="M302.72,415.58h0l3.9-3.06a52.48,52.48,0,0,0,14.07-16.75l1.56-2.93,19.61,27.25a28.39,28.39,0,1,1-39.14-4.5Z"/><path class="cls-1" d="M302.66,415.58h0l3.91-3.06a52.61,52.61,0,0,0,14.07-16.75l1.56-2.93,19.6,27.25a28.38,28.38,0,1,1-39.14-4.5Z"/><g class="cls-12"><polygon class="cls-9" points="320.56 389.34 326.55 404.19 309.47 432.57 313.46 459.39 288.63 459.61 286.86 420.37 299.28 399.76 320.56 389.34"/><path class="cls-9" d="M302.93,452.29a25.11,25.11,0,0,1,8.19-33.36c1.88-1.23,3.92-2.2,5.71-3.53a17.29,17.29,0,0,0,4-23.6c5.11,4.11,8.1,10.54,6.91,17-1.59,8.62-9.21,15.52-9.57,24.28-.16,4,1.26,7.94,2.91,11.61a87.69,87.69,0,0,0,6.6,12"/><path class="cls-1" d="M588.55,447.37c53.12.66,92.77,16.29,92.77,16.29-3.65-9.64-11.8-16.29-11.8-16.29h-81"/></g><path class="cls-1" d="M414.51,416.82l21.33-24a105,105,0,0,0,12.9,19.29l4.69,5.57a28.37,28.37,0,1,1-38.92-.87Z"/><g class="cls-13"><path class="cls-9" d="M434.9,385.73l4.32,24.78-31.09,56.36s-5.49-34.75-5.49-35.74,3.66-33.42,3.66-33.42Z"/><path class="cls-9" d="M415.05,462.85c10.41-3.19,8.71-17.42,18-23.08,7.65-4.65,13.87-18.64,11.27-29.21a53.15,53.15,0,0,0-14.73-25.11c4.87,4.28,5.79,10.49,6,17a24.9,24.9,0,0,1-.67,7.41,22.51,22.51,0,0,1-3.58,6.95c-5.16,7.16-12.46,12.42-18.91,18.45s-12.35,13.47-13.25,22.24"/></g><path class="cls-2" d="M398,419.27l-6-7.15A104.54,104.54,0,0,1,379,392.83l-21.34,24,0,0a28.39,28.39,0,1,0,40.23,2.4Z"/><g class="cls-14"><path class="cls-7" d="M379.25,390.39l-.83,20.28,8.65,36.09-5.32,21.94-31.59,1.67-20.79-27.11s24.94-41.06,25.11-41.73S379.25,390.39,379.25,390.39Z"/><path class="cls-2" d="M362.15,469.2a43.82,43.82,0,0,1,2.54-13.2c3-8.42,8.57-15.84,10.82-24.5a34,34,0,0,0,1-10.92c-.2-2.86-.76-5.69-1-8.55A40.83,40.83,0,0,1,380,389.16c-2.69,8.15,0,17.13,3.92,24.75s9.16,14.62,12.11,22.68a44.18,44.18,0,0,1,.35,29Z"/></g><path class="cls-9" d="M240.82,439.77H565.9a30,30,0,0,1,30,30V629.32a0,0,0,0,1,0,0H210.82a0,0,0,0,1,0,0V469.77A30,30,0,0,1,240.82,439.77Z"/><path class="cls-1" d="M240.82,439.77H433.06a0,0,0,0,1,0,0v84.89a0,0,0,0,1,0,0H210.82a0,0,0,0,1,0,0V469.77A30,30,0,0,1,240.82,439.77Z"/><path class="cls-1" d="M518.86,439.77h47a30,30,0,0,1,30,30v48.9a0,0,0,0,1,0,0h-77a0,0,0,0,1,0,0v-78.9A0,0,0,0,1,518.86,439.77Z"/><path class="cls-1" d="M419.16,301.62A24,24,0,0,0,390.44,278a14.69,14.69,0,0,1,1,19.63h0a14.69,14.69,0,1,0,23.63,17.33h0A23.85,23.85,0,0,0,419.16,301.62Z"/><path class="cls-9" d="M391.43,297.59h0a15.44,15.44,0,0,0,1.22-1.77,14.9,14.9,0,0,0-.77,6.07,14.68,14.68,0,0,0,25.54,8.59,23.29,23.29,0,0,1-2.36,4.44h0a14.69,14.69,0,1,1-23.63-17.33Z"/><path class="cls-4" d="M405.55,329.2h-4V318.29a3,3,0,0,1,3.05-3.05h0a.94.94,0,0,1,.95.94Z"/><path class="cls-7" d="M397.91,58.72l-19.28-8.65s-18.62,25.28-18,48.56l19.29,6S379.29,76,397.91,58.72Z"/><rect class="cls-5" x="674.26" y="438.81" width="21.95" height="53.87" transform="translate(530.03 -348.12) rotate(45)"/><rect class="cls-7" x="151.96" y="334.36" width="21.95" height="53.87" transform="translate(-207.75 221.03) rotate(-45)"/><circle class="cls-2" cx="94.64" cy="589.46" r="13.97"/><circle class="cls-2" cx="638.47" cy="392.55" r="13.97"/><circle class="cls-9" cx="283.98" cy="340.67" r="13.97"/><circle class="cls-9" cx="467.75" cy="90.64" r="13.97"/><path class="cls-5" d="M130.11,512.75l-1.55-19.07s27.82,12.31,9.64-30.59l24.5-1.33S166.47,503.44,130.11,512.75Z"/><path class="cls-15" d="M128.56,493.68s18.29,6.82,29.7-5.09c0,0-7.76,20.89-30.37,25.21Z"/><path class="cls-7" d="M711.42,591.58l-6.24-18.09s-20.53,22.45-21.12-24.14l-23,8.62S674.38,597.65,711.42,591.58Z"/><path class="cls-16" d="M705.18,573.49s-14,13.59-29.25,7.27c0,0,15.5,16,37.94,10.89Z"/><path class="cls-7" d="M323.87,234.52l-1.55-19.06s27.82,12.3,9.64-30.6l24.5-1.33S360.23,225.21,323.87,234.52Z"/><path class="cls-16" d="M322.32,215.46s18.29,6.82,29.7-5.1c0,0-7.76,20.89-30.37,25.22Z"/><path class="cls-5" d="M579.7,204.6l1.56-19.07s-27.83,12.3-9.65-30.59l-24.5-1.33S543.35,195.28,579.7,204.6Z"/><path class="cls-15" d="M581.26,185.53s-18.29,6.82-29.71-5.1c0,0,7.76,20.9,30.37,25.22Z"/><path class="cls-15" d="M205.83,201.67,225.12,193s18.62,25.27,18,48.55l-19.29,6S224.45,219,205.83,201.67Z"/><path class="cls-15" d="M626.83,266.19l19.29-8.65s18.62,25.27,18,48.55l-19.28,6S645.45,283.48,626.83,266.19Z"/><path class="cls-7" d="M500.13,265.85l19.29-8.64s18.62,25.27,18,48.55l-19.29,6S518.75,283.15,500.13,265.85Z"/><rect class="cls-5" x="432.15" y="158.35" width="21.95" height="53.87" transform="translate(-1.23 367.6) rotate(-45)"/><rect class="cls-2" x="162.93" y="629.32" width="486.17" height="21.28" rx="10.64"/><polygon class="cls-7" points="177.44 650.6 200.64 680.7 611.4 680.7 634.56 650.6 177.44 650.6"/><polygon class="cls-16" points="627.65 659.58 184.37 659.58 177.44 650.6 634.56 650.6 627.65 659.58"/><path class="cls-1" d="M518.86,533h0a73.38,73.38,0,0,0,76.48.34l.56-.34V512.82H518.75Z"/><path class="cls-1" d="M360.24,512.82H210.93L211,533a73.36,73.36,0,0,0,74.6,1.43,73.32,73.32,0,0,0,72.49-.19,73.33,73.33,0,0,0,74.37-.9l.57-.34V512.82Z"/><rect class="cls-3" x="217.69" y="476.5" width="3.55" height="14.99" transform="translate(-275.36 290.17) rotate(-44.22)"/><rect class="cls-9" x="258.11" y="501.52" width="3.55" height="14.99" transform="translate(-252.64 761.92) rotate(-89.22)"/><rect class="cls-15" x="242.96" y="454.89" width="3.55" height="14.99" transform="translate(6.34 -3.3) rotate(0.78)"/><rect class="cls-7" x="229.33" y="501.93" width="3.55" height="14.99" transform="translate(455.23 1021.97) rotate(-179.22)"/><rect class="cls-16" x="257.93" y="474.17" width="3.55" height="14.99" transform="translate(-262.34 317.57) rotate(-44.22)"/><rect class="cls-5" x="383.63" y="502.44" width="3.55" height="14.99" transform="translate(777.74 1014.56) rotate(179.22)"/><rect class="cls-7" x="413.8" y="495.04" width="3.55" height="14.99" transform="translate(-81.23 924.94) rotate(-90.78)"/><rect class="cls-15" x="420.75" y="456.24" width="3.55" height="14.99" transform="translate(851.35 921.66) rotate(179.22)"/><rect class="cls-3" x="339.07" y="502.44" width="3.55" height="14.99" transform="translate(-6.93 4.7) rotate(-0.78)"/><rect class="cls-16" x="398.59" y="480.49" width="3.55" height="14.99" transform="translate(347 1116.94) rotate(-135.78)"/><rect class="cls-3" x="302.82" y="453.22" width="3.55" height="14.99" transform="translate(422.38 -78.88) rotate(45.78)"/><rect class="cls-9" x="287.19" y="481.49" width="3.55" height="14.99" transform="translate(6.71 -3.9) rotate(0.78)"/><rect class="cls-15" x="329.98" y="476.36" width="3.55" height="14.99" transform="translate(820.1 158.75) rotate(90.78)"/><rect class="cls-7" x="274.81" y="448.55" width="3.55" height="14.99" transform="translate(-183.19 726.38) rotate(-89.22)"/><rect class="cls-16" x="307.57" y="493.47" width="3.55" height="14.99" transform="translate(452.65 -70.1) rotate(45.78)"/><rect class="cls-5" x="572.94" y="454.94" width="3.55" height="14.99" transform="translate(505.34 -271.95) rotate(45.78)"/><rect class="cls-9" x="568.52" y="483.15" width="3.55" height="14.99" transform="translate(6.76 -7.75) rotate(0.78)"/><rect class="cls-16" x="587.48" y="472.71" width="3.55" height="14.99" transform="translate(1171.89 968.41) rotate(-179.22)"/><rect class="cls-7" x="553.93" y="443.56" width="3.55" height="14.99" transform="translate(97.1 1000.55) rotate(-89.22)"/><rect class="cls-3" x="578.17" y="500.78" width="3.55" height="14.99" transform="translate(539.78 -261.83) rotate(45.78)"/><rect class="cls-5" x="378.99" y="464.25" width="3.55" height="14.99" transform="translate(982.64 544.32) rotate(135.78)"/><rect class="cls-9" x="360.68" y="443.25" width="3.55" height="14.99" transform="translate(818.11 94.48) rotate(90.78)"/><rect class="cls-15" x="360.68" y="483.15" width="3.55" height="14.99" transform="translate(718.18 986.21) rotate(-179.22)"/><rect class="cls-7" x="340.96" y="458.54" width="3.55" height="14.99" transform="translate(913.37 561.04) rotate(135.78)"/><rect class="cls-9" x="396.13" y="451.92" width="3.55" height="14.99" transform="translate(1003.48 511.19) rotate(135.78)"/><rect class="cls-5" x="526.83" y="487.63" width="3.55" height="14.99" transform="translate(-6.71 7.27) rotate(-0.78)"/><rect class="cls-15" x="548.11" y="470.36" width="3.55" height="14.99" transform="translate(79.59 1034.22) rotate(-90.78)"/><rect class="cls-3" x="531.17" y="453.92" width="3.55" height="14.99" transform="translate(-169.42 521.6) rotate(-45.78)"/><rect class="cls-7" x="545.91" y="501.11" width="3.55" height="14.99" transform="translate(509.85 -237.86) rotate(44.22)"/><polyline class="cls-5" points="433.25 454.89 518.84 454.89 518.72 629.32 433.25 629.32 433.25 455.3"/><polygon class="cls-15" points="518.88 533.85 471.74 533.85 481.52 553.77 518.88 553.77 518.88 533.85"/><polygon class="cls-15" points="433.14 455.3 518.64 629.32 432.96 629.32 433.14 455.3"/><polygon class="cls-4" points="433.04 553.77 481.52 553.77 471.74 533.85 433.06 533.85 433.04 553.77"/><rect class="cls-9" x="433.33" y="439.77" width="85.76" height="15.25"/></g></g></svg>